<?xml version="1.0" standalone="no"?><!DOCTYPE svg PUBLIC "-//W3C//DTD SVG 1.1//EN" "http://www.w3.org/Graphics/SVG/1.1/DTD/svg11.dtd" ><svg xmlns="http://www.w3.org/2000/svg"><metadata></metadata><defs><font id="STXihei GBK TTF" horiz-adv-x="1000"><font-face font-family="STXihei" font-weight="400" font-stretch="normal" units-per-em="1000" panose-1="2 1 6 0 4 1 1 1 1 1" ascent="1070" descent="-307" x-height="1" bbox="-10 -194 978 785" underline-thickness="20" underline-position="-133" unicode-range="U+0021-ff1a" /><missing-glyph horiz-adv-x="1000" d="M182 736 l0 -556 l-71 0 l0 556 l71 0 ZM87 47 q0 25 18 42.5 q18 17.5 42 17.5 q26 0 43.5 -17.5 q17.5 -17.5 17.5 -42.5 q0 -25 -18 -43 q-18 -18 -43 -18 q-24 0 -42 18 q-18 18 -18 43 Z" /><glyph glyph-name="" unicode="!" d="M182 736 l0 -556 l-71 0 l0 556 l71 0 ZM87 47 q0 25 18 42.5 q18 17.5 42 17.5 q26 0 43.5 -17.5 q17.5 -17.5 17.5 -42.5 q0 -25 -18 -43 q-18 -18 -43 -18 q-24 0 -42 18 q-18 18 -18 43 Z" /><glyph glyph-name="" unicode="&quot;" d="M274 510 l-50 0 l-11 226 l73 0 l-12 -226 ZM85 510 l-51 0 l-11 226 l73 0 l-11 -226 Z" /><glyph glyph-name="" unicode="#" d="M602 294 l0 -53 l-121 0 l-35 -241 l-55 0 l35 241 l-162 0 l-37 -241 l-54 0 l37 241 l-120 0 l0 53 l128 0 l25 163 l-123 0 l0 53 l131 0 l34 229 l52 0 l-33 -229 l162 0 l34 229 l54 0 l-33 -229 l109 0 l0 -53 l-117 0 l-24 -163 l113 0 ZM459 457 l-163 0 l-24 -163 l162 0 l25 163 Z" /><glyph glyph-name="" unicode="$" d="M323 -170 l-64 0 l0 939 l64 0 l0 -939 ZM47 134 l61 36 q64 -118 149 -118 q55 0 94 35 q39 35 39 87 q0 41 -33 83 q-33 42 -115 103 q-71 54 -97.5 82.5 q-26.5 28.5 -39 61 q-12.5 32.5 -12.5 65.5 q0 70 49.5 118.5 q49.5 48.5 124.5 48.5 q59 0 103 -29.5 q44 -29.5 85 -87.5 l-58 -45 q-28 38 -58 63 q-30 25 -74 25 q-43 0 -70.5 -26 q-27.5 -26 -27.5 -65 q0 -41 24.5 -70.5 q24.5 -29.5 113.5 -94.5 q84 -63 123.5 -117 q39.5 -54 39.5 -114 q0 -78 -60.5 -135.5 q-60.5 -57.5 -140.5 -57.5 q-141 0 -220 152 Z" /><glyph glyph-name="" unicode="%" d="M674 750 l-523 -800 l-65 0 l477 729 q-58 -14 -118.5 -18 q-60.5 -4 -88.5 -3 l-26 1 q30 -42 30 -89 q0 -72 -48.5 -122.5 q-48.5 -50.5 -121.5 -50.5 q-70 0 -119 49 q-49 49 -49 120 q0 71 50.5 120 q50.5 49 116.5 49 q27 0 61 -7 q66 -14 139 -14 q116 0 228 36 l57 0 ZM299 567 q0 45 -31.5 76 q-31.5 31 -76.5 31 q-44 0 -75.5 -31.5 q-31.5 -31.5 -31.5 -75.5 q0 -44 31.5 -75.5 q31.5 -31.5 75.5 -31.5 q45 0 76.5 31 q31.5 31 31.5 76 ZM415 148 q0 69 49.5 119 q49.5 50 118.5 50 q70 0 119.5 -49.5 q49.5 -49.5 49.5 -119.5 q0 -70 -49.5 -119.5 q-49.5 -49.5 -119.5 -49.5 q-69 0 -118.5 49.5 q-49.5 49.5 -49.5 119.5 ZM691 148 q0 44 -31.5 75.5 q-31.5 31.5 -76.5 31.5 q-44 0 -75 -31.5 q-31 -31.5 -31 -75.5 q0 -44 31 -75.5 q31 -31.5 75 -31.5 q45 0 76.5 31 q31.5 31 31.5 76 Z" /><glyph glyph-name="" unicode="&#39;" d="M124 510 l-50 0 l-11 226 l72 0 l-11 -226 Z" /><glyph glyph-name="" unicode="(" d="M229 779 l80 0 q-51 -104 -78.5 -235 q-27.5 -131 -27.5 -264 q0 -261 82 -459 l-76 0 q-79 194 -79 450 q0 277 99 508 Z" /><glyph glyph-name="" unicode=")" d="M140 779 q99 -231 99 -508 q0 -256 -79 -450 l-76 0 q82 198 82 459 q0 133 -27.5 264 q-27.5 131 -78.5 235 l80 0 Z" /><glyph glyph-name="" unicode="*" d="M180 736 l64 0 l-15 -145 l121 86 l32 -54 l-135 -61 l135 -61 l-32 -55 l-121 85 l15 -145 l-64 0 l15 145 l-120 -85 l-32 55 l137 61 l-137 61 l32 54 l120 -86 l-15 145 Z" /><glyph glyph-name="" unicode="+" d="M270 393 l0 211 l66 0 l0 -211 l214 0 l0 -67 l-214 0 l0 -212 l-66 0 l0 212 l-214 0 l0 67 l214 0 Z" /><glyph glyph-name="" unicode="," d="M144 132 l66 -31 l-99 -185 l-49 21 l82 195 Z" /><glyph glyph-name="" unicode="-" d="M32 300 l268 0 l0 -60 l-268 0 l0 60 Z" /><glyph glyph-name="" unicode="." d="M91 47 q0 25 18 42.5 q18 17.5 42 17.5 q25 0 42.5 -17.5 q17.5 -17.5 17.5 -42.5 q0 -26 -17.5 -43.5 q-17.5 -17.5 -42.5 -17.5 q-24 0 -42 18 q-18 18 -18 43 Z" /><glyph glyph-name="" unicode="/" d="M408 736 l-298 -834 l-75 0 l298 834 l75 0 Z" /><glyph glyph-name="" unicode="0" d="M273 -18 q-116 0 -178.5 95.5 q-62.5 95.5 -62.5 281.5 q0 186 62.5 281.5 q62.5 95.5 178.5 95.5 q114 0 181.5 -97.5 q67.5 -97.5 67.5 -279.5 q0 -182 -68 -279.5 q-68 -97.5 -181 -97.5 ZM275 668 q-83 0 -129 -80 q-46 -80 -46 -231 q0 -310 175 -310 q85 0 132.5 81.5 q47.5 81.5 47.5 228.5 q0 151 -49 231 q-49 80 -131 80 Z" /><glyph glyph-name="" unicode="1" d="M185 718 l141 0 l0 -718 l-71 0 l0 648 l-113 0 l43 70 Z" /><glyph glyph-name="" unicode="2" d="M116 493 l-69 0 q5 110 73 176.5 q68 66.5 166 66.5 q95 0 158.5 -62.5 q63.5 -62.5 63.5 -152.5 q0 -67 -35.5 -124 q-35.5 -57 -107.5 -135 l-179 -193 l332 0 l0 -69 l-488 0 l274 296 q72 78 103 123 q31 45 31 101 q0 60 -45.5 104 q-45.5 44 -110.5 44 q-70 0 -114.5 -45.5 q-44.5 -45.5 -51.5 -129.5 Z" /><glyph glyph-name="" unicode="3" d="M132 552 l-73 0 q20 89 76.5 136.5 q56.5 47.5 134.5 47.5 q85 0 145.5 -54 q60.5 -54 60.5 -131 q0 -93 -92 -147 q63 -26 97.5 -77.5 q34.5 -51.5 34.5 -112.5 q0 -95 -69.5 -163.5 q-69.5 -68.5 -175.5 -68.5 q-94 0 -155 53.5 q-61 53.5 -81 156.5 l70 0 q19 -71 58.5 -105.5 q39.5 -34.5 108.5 -34.5 q75 0 124 46 q49 46 49 110 q0 72 -54 113.5 q-54 41.5 -157 43.5 l0 66 q74 0 120.5 34 q46.5 34 46.5 86 q0 49 -37.5 82.5 q-37.5 33.5 -93.5 33.5 q-50 0 -82.5 -28.5 q-32.5 -28.5 -55.5 -86.5 Z" /><glyph glyph-name="" unicode="4" d="M426 736 l14 0 l0 -500 l87 0 l0 -69 l-87 0 l0 -167 l-71 0 l0 167 l-344 0 l401 569 ZM369 236 l0 299 l-212 -299 l212 0 Z" /><glyph glyph-name="" unicode="5" d="M492 718 l0 -68 l-256 0 l-36 -196 q48 14 90 14 q94 0 157 -66.5 q63 -66.5 63 -168.5 q0 -106 -68.5 -178.5 q-68.5 -72.5 -181.5 -72.5 q-86 0 -146.5 51.5 q-60.5 51.5 -72.5 140.5 l73 0 q13 -60 54 -92 q41 -32 95 -32 q71 0 122.5 53 q51.5 53 51.5 132 q0 72 -45 118.5 q-45 46.5 -122 46.5 q-68 0 -156 -38 l67 356 l311 0 Z" /><glyph glyph-name="" unicode="6" d="M367 736 l59 -38 l-194 -294 q41 14 78 14 q80 0 140 -63.5 q60 -63.5 60 -153.5 q0 -93 -65.5 -156 q-65.5 -63 -159.5 -63 q-93 0 -155.5 64 q-62.5 64 -62.5 156 q0 44 17 90.5 q17 46.5 65 118.5 l218 325 ZM439 203 q0 63 -44 107 q-44 44 -107 44 q-63 0 -107 -44 q-44 -44 -44 -107 q0 -63 44.5 -107 q44.5 -44 106.5 -44 q62 0 106.5 44 q44.5 44 44.5 107 Z" /><glyph glyph-name="" unicode="7" d="M72 718 l455 0 l-384 -736 l-59 30 l332 638 l-344 0 l0 68 Z" /><glyph glyph-name="" unicode="8" d="M384 394 q136 -67 136 -188 q0 -96 -67.5 -160 q-67.5 -64 -176.5 -64 q-110 0 -176 64 q-66 64 -66 154 q0 126 139 194 q-105 56 -105 155 q0 74 61.5 130.5 q61.5 56.5 151.5 56.5 q84 0 145 -55 q61 -55 61 -134 q0 -96 -103 -153 ZM415 550 q0 48 -37.5 82.5 q-37.5 34.5 -100.5 34.5 q-58 0 -97 -34.5 q-39 -34.5 -39 -84.5 q0 -48 42.5 -86.5 q42.5 -38.5 96.5 -38.5 q54 0 94.5 38 q40.5 38 40.5 89 ZM448 205 q0 61 -49.5 107 q-49.5 46 -117.5 46 q-73 0 -124 -47.5 q-51 -47.5 -51 -112.5 q0 -64 47 -106 q47 -42 124 -42 q75 0 123 45 q48 45 48 110 Z" /><glyph glyph-name="" unicode="9" d="M192 -18 l-59 38 l194 294 q-38 -13 -75 -13 q-86 0 -144.5 62 q-58.5 62 -58.5 152 q0 95 65 158 q65 63 159 63 q95 0 156.5 -64.5 q61.5 -64.5 61.5 -154.5 q0 -50 -20.5 -100.5 q-20.5 -50.5 -60.5 -109.5 l-218 -325 ZM119 515 q0 -63 44 -107 q44 -44 107 -44 q63 0 107 44.5 q44 44.5 44 106.5 q0 62 -44 106.5 q-44 44.5 -107 44.5 q-63 0 -107 -44 q-44 -44 -44 -107 Z" /><glyph glyph-name="" unicode=":" d="M91 484 q0 25 18 43 q18 18 42 18 q25 0 42.5 -17.5 q17.5 -17.5 17.5 -43.5 q0 -25 -17 -42.5 q-17 -17.5 -43 -17.5 q-25 0 -42.5 17.5 q-17.5 17.5 -17.5 42.5 ZM91 47 q0 25 18 42.5 q18 17.5 42 17.5 q25 0 42.5 -17.5 q17.5 -17.5 17.5 -42.5 q0 -26 -17.5 -43.5 q-17.5 -17.5 -42.5 -17.5 q-24 0 -42 18 q-18 18 -18 43 Z" /><glyph glyph-name="" unicode=";" d="M91 484 q0 25 18 43 q18 18 42 18 q25 0 42.5 -17.5 q17.5 -17.5 17.5 -43.5 q0 -25 -17 -42.5 q-17 -17.5 -43 -17.5 q-25 0 -42.5 17.5 q-17.5 17.5 -17.5 42.5 ZM144 132 l66 -31 l-99 -185 l-49 21 l82 195 Z" /><glyph glyph-name="" unicode="&lt;" d="M555 169 l0 -71 l-504 229 l0 64 l504 230 l0 -72 l-409 -191 l409 -189 Z" /><glyph glyph-name="" unicode="=" d="M550 500 l0 -67 l-494 0 l0 67 l494 0 ZM550 285 l0 -67 l-494 0 l0 67 l494 0 Z" /><glyph glyph-name="" unicode="&gt;" d="M51 169 l409 189 l-409 191 l0 72 l504 -230 l0 -64 l-504 -229 l0 71 Z" /><glyph glyph-name="" unicode="@" d="M755 142 l52 0 q-60 -80 -132 -120 q-72 -40 -169 -40 q-112 0 -204.5 54.5 q-92.5 54.5 -138.5 141 q-46 86.5 -46 185.5 q0 100 48.5 189.5 q48.5 89.5 137.5 142 q89 52.5 196 52.5 q94 0 175.5 -43 q81.5 -43 128.5 -116.5 q47 -73.5 47 -154.5 q0 -81 -37 -147 q-37 -66 -98.5 -104 q-61.5 -38 -115.5 -38 q-58 0 -58 54 q-45 -49 -110 -49 q-67 0 -113 49 q-46 49 -46 127 q0 60 30 118.5 q30 58.5 78 85 q48 26.5 99 26.5 q89 0 130 -72 l12 67 l53 0 l-57 -319 q-2 -10 -2 -17 q0 -27 24 -27 q55 0 114 68.5 q59 68.5 59 167.5 q0 120 -90.5 200.5 q-90.5 80.5 -224.5 80.5 q-97 0 -175.5 -45 q-78.5 -45 -122.5 -124.5 q-44 -79.5 -44 -169.5 q0 -89 42 -166.5 q42 -77.5 124.5 -125.5 q82.5 -48 181.5 -48 q78 0 135.5 29 q57.5 29 116.5 88 ZM456 204 q61 0 95.5 54.5 q34.5 54.5 34.5 133.5 q0 50 -27.5 80.5 q-27.5 30.5 -71.5 30.5 q-60 0 -102 -49.5 q-42 -49.5 -42 -117.5 q0 -62 32.5 -97 q32.5 -35 80.5 -35 Z" /><glyph glyph-name="" unicode="a" d="M381 747 l335 -747 l-77 0 l-113 245 l-310 0 l-112 -245 l-80 0 l339 747 l18 0 ZM372 588 l-123 -270 l245 0 l-122 270 Z" /><glyph glyph-name="" unicode="c" d="M756 585 l-56 -43 q-100 124 -257 124 q-128 0 -220.5 -90 q-92.5 -90 -92.5 -219 q0 -132 90.5 -219.5 q90.5 -87.5 226.5 -87.5 q152 0 253 118 l56 -43 q-53 -70 -134 -106.5 q-81 -36.5 -179 -36.5 q-171 0 -280 108 q-109 108 -109 273 q0 102 50.5 188.5 q50.5 86.5 140 135.5 q89.5 49 197.5 49 q98 0 180 -39 q82 -39 134 -112 Z" /><glyph glyph-name="" unicode="d" d="M87 0 l0 718 l149 0 q153 0 224.5 -22.5 q71.5 -22.5 123.5 -71 q52 -48.5 80 -118.5 q28 -70 28 -156 q0 -101 -43.5 -183.5 q-43.5 -82.5 -118 -124.5 q-74.5 -42 -214.5 -42 l-229 0 ZM156 68 l83 0 q130 0 188.5 13 q58.5 13 102.5 51.5 q44 38.5 67 93.5 q23 55 23 123 q0 74 -26.5 134 q-26.5 60 -75.5 99 q-49 39 -115.5 52.5 q-66.5 13.5 -195.5 13.5 l-51 0 l0 -580 Z" /><glyph glyph-name="" unicode="e" d="M88 718 l412 0 l0 -71 l-340 0 l0 -224 l337 0 l0 -70 l-337 0 l0 -282 l337 0 l0 -71 l-409 0 l0 718 Z" /><glyph glyph-name="" unicode="f" d="M87 718 l360 0 l0 -71 l-288 0 l0 -224 l288 0 l0 -71 l-288 0 l0 -352 l-72 0 l0 718 Z" /><glyph glyph-name="" unicode="i" d="M77 718 l72 0 l0 -718 l-72 0 l0 718 Z" /><glyph glyph-name="" unicode="j" d="M322 718 l73 0 l0 -485 q0 -97 -15 -146 q-15 -49 -57 -77 q-42 -28 -99 -28 q-92 0 -182 76 l38 57 q50 -34 82 -49.5 q32 -15.5 58 -15.5 q33 0 57.5 18 q24.5 18 34.5 49.5 q10 31.5 10 118.5 l0 482 Z" /><glyph glyph-name="" unicode="k" d="M87 718 l74 0 l0 -269 l286 269 l97 0 l-345 -322 l372 -396 l-95 0 l-315 335 l0 -335 l-74 0 l0 718 Z" /><glyph glyph-name="" unicode="l" d="M87 718 l73 0 l0 -649 l276 0 l0 -69 l-349 0 l0 718 Z" /><glyph glyph-name="" unicode="n" d="M88 0 l0 718 l16 0 l477 -550 l0 550 l71 0 l0 -718 l-16 0 l-474 543 l0 -543 l-74 0 Z" /><glyph glyph-name="" unicode="o" d="M56 356 q0 104 50 192 q50 88 137 138 q87 50 187 50 q105 0 193.5 -49.5 q88.5 -49.5 139 -137 q50.5 -87.5 50.5 -190.5 q0 -102 -50 -189.5 q-50 -87.5 -137.5 -137.5 q-87.5 -50 -189.5 -50 q-103 0 -191 49.5 q-88 49.5 -138.5 136.5 q-50.5 87 -50.5 188 ZM738 359 q0 129 -89.5 218 q-89.5 89 -215.5 89 q-129 0 -215.5 -89.5 q-86.5 -89.5 -86.5 -220.5 q0 -126 89 -215 q89 -89 213 -89 q128 0 216.5 87 q88.5 87 88.5 220 Z" /><glyph glyph-name="" unicode="p" d="M87 718 l143 0 q127 0 166 -10 q39 -10 71.5 -35 q32.5 -25 50.5 -62.5 q18 -37.5 18 -83.5 q0 -74 -40 -121 q-40 -47 -100.5 -59.5 q-60.5 -12.5 -185.5 -12.5 l-51 0 l0 -334 l-72 0 l0 718 ZM159 648 l0 -245 l121 0 q109 -2 145 35.5 q36 37.5 36 88.5 q0 121 -175 121 l-127 0 Z" /><glyph glyph-name="" unicode="q" d="M690 78 l106 -135 l-88 0 l-73 93 q-89 -54 -194 -54 q-163 0 -273.5 108.5 q-110.5 108.5 -110.5 265.5 q0 161 107 270.5 q107 109.5 271 109.5 q103 0 190.5 -50 q87.5 -50 137.5 -137 q50 -87 50 -190 q0 -165 -123 -281 ZM646 134 q93 92 93 225 q0 129 -90 218 q-90 89 -214 89 q-126 0 -214.5 -90 q-88.5 -90 -88.5 -220 q0 -131 90 -217.5 q90 -86.5 214 -86.5 q83 0 154 41 l-160 203 l87 0 l129 -162 Z" /><glyph glyph-name="" unicode="r" d="M91 718 l143 0 q120 0 164 -10.5 q44 -10.5 75.5 -34.5 q31.5 -24 49.5 -62 q18 -38 18 -84 q0 -92 -65 -144.5 q-65 -52.5 -184 -48.5 l259 -334 l-89 0 l-258 334 l-41 0 l0 -334 l-72 0 l0 718 ZM163 648 l0 -244 l124 0 q92 -1 135.5 28.5 q43.5 29.5 43.5 94.5 q0 63 -43 92 q-43 29 -133 29 l-127 0 Z" /><glyph glyph-name="" unicode="s" d="M13 134 l61 36 q64 -118 149 -118 q55 0 94 35 q39 35 39 87 q0 41 -33 83 q-33 42 -115 103 q-71 54 -97.5 82.5 q-26.5 28.5 -39 61 q-12.5 32.5 -12.5 65.5 q0 70 49.5 118.5 q49.5 48.5 124.5 48.5 q59 0 103 -29.5 q44 -29.5 85 -87.5 l-58 -45 q-28 38 -58 63 q-30 25 -74 25 q-43 0 -70.5 -26 q-27.5 -26 -27.5 -65 q0 -41 24.5 -70.5 q24.5 -29.5 113.5 -94.5 q84 -63 123.5 -117 q39.5 -54 39.5 -114 q0 -78 -60.5 -135.5 q-60.5 -57.5 -140.5 -57.5 q-141 0 -220 152 Z" /><glyph glyph-name="" unicode="t" d="M16 648 l0 70 l394 0 l0 -70 l-160 0 l0 -648 l-73 0 l0 648 l-161 0 Z" /><glyph glyph-name="" unicode="u" d="M90 718 l72 0 l0 -433 q0 -67 3.5 -101 q3.5 -34 24 -65.5 q20.5 -31.5 57.5 -50 q37 -18.5 84 -18.5 q38 0 70 15.5 q32 15.5 54 43.5 q22 28 30.5 61.5 q8.5 33.5 8.5 114.5 l0 433 l71 0 l0 -433 q0 -109 -22 -167 q-22 -58 -77.5 -97 q-55.5 -39 -130.5 -39 q-60 0 -108 19.5 q-48 19.5 -80 54.5 q-32 35 -44.5 78 q-12.5 43 -12.5 151 l0 433 Z" /><glyph glyph-name="" unicode="x" d="M49 718 l84 0 l172 -280 l174 280 l83 0 l-214 -348 l228 -370 l-84 0 l-187 301 l-187 -301 l-84 0 l229 370 l-214 348 Z" /><glyph glyph-name="" unicode="[" d="M142 765 l164 0 l0 -69 l-96 0 l0 -794 l96 0 l0 -67 l-164 0 l0 930 Z" /><glyph glyph-name="" unicode="]" d="M209 -165 l-164 0 l0 67 l96 0 l0 794 l-96 0 l0 69 l164 0 l0 -930 Z" /><glyph glyph-name="" unicode="_" d="M0 -75 l500 0 l0 -50 l-500 0 l0 50 Z" /><glyph glyph-name="" unicode="a" d="M605 531 l0 -531 l-67 0 l0 91 q-91 -109 -213 -109 q-112 0 -192.5 83.5 q-80.5 83.5 -80.5 199.5 q0 115 81 197.5 q81 82.5 194 82.5 q130 0 211 -111 l0 97 l67 0 ZM542 263 q0 91 -61 153.5 q-61 62.5 -149 62.5 q-89 0 -150 -64.5 q-61 -64.5 -61 -151.5 q0 -89 62 -153.5 q62 -64.5 149 -64.5 q86 0 148 62 q62 62 62 156 Z" /><glyph glyph-name="" unicode="b" d="M81 0 l0 736 l67 0 l0 -296 q87 105 213 105 q114 0 193.5 -82.5 q79.5 -82.5 79.5 -199.5 q0 -115 -81 -198 q-81 -83 -194 -83 q-126 0 -211 116 l0 -98 l-67 0 ZM144 269 q0 -93 61 -157 q61 -64 149 -64 q88 0 149.5 65 q61.5 65 61.5 152 q0 88 -60 153 q-60 65 -150 65 q-90 0 -150.5 -61 q-60.5 -61 -60.5 -153 Z" /><glyph glyph-name="" unicode="c" d="M631 421 l-54 -34 q-70 93 -192 93 q-96 0 -161 -61.5 q-65 -61.5 -65 -152.5 q0 -91 64 -156 q64 -65 162 -65 q117 0 192 93 l54 -36 q-40 -58 -107.5 -89 q-67.5 -31 -145.5 -31 q-123 0 -205.5 81 q-82.5 81 -82.5 197 q0 118 83.5 201.5 q83.5 83.5 214.5 83.5 q77 0 142.5 -33 q65.5 -33 100.5 -91 Z" /><glyph glyph-name="" unicode="d" d="M606 736 l0 -736 l-67 0 l0 91 q-91 -109 -213 -109 q-113 0 -193 83 q-80 83 -80 200 q0 115 81 197.5 q81 82.5 194 82.5 q130 0 211 -111 l0 302 l67 0 ZM543 262 q0 91 -60 154 q-60 63 -150 63 q-90 0 -150.5 -64.5 q-60.5 -64.5 -60.5 -151.5 q0 -88 62 -153 q62 -65 149 -65 q82 0 146 61.5 q64 61.5 64 155.5 Z" /><glyph glyph-name="" unicode="e" d="M523 172 l58 -30 q-86 -160 -254 -160 q-120 0 -198 82.5 q-78 82.5 -78 197.5 q0 117 78.5 200 q78.5 83 193.5 83 q116 0 194.5 -77 q78.5 -77 81.5 -210 l-478 0 q3 -96 60.5 -154.5 q57.5 -58.5 139.5 -58.5 q135 0 202 127 ZM523 317 q-14 76 -70 119 q-56 43 -129 43 q-150 0 -196 -162 l395 0 Z" /><glyph glyph-name="" unicode="f" d="M295 722 l0 -67 q-39 17 -65 17 q-35 0 -44 -19.5 q-9 -19.5 -9 -63.5 l0 -58 l111 0 l0 -58 l-111 0 l0 -473 l-69 0 l0 473 l-69 0 l0 58 l69 0 l0 69 q0 70 26 103 q26 33 81 33 q32 0 80 -14 Z" /><glyph glyph-name="" unicode="g" d="M541 531 l69 0 l0 -410 q0 -109 -19 -160 q-19 -51 -55 -85 q-36 -34 -87 -52 q-51 -18 -112 -18 q-208 0 -274 166 l74 0 q58 -104 197 -104 q67 0 116.5 26 q49.5 26 70 66.5 q20.5 40.5 20.5 126.5 l0 23 q-41 -51 -97 -76 q-56 -25 -118 -25 q-116 0 -193 79 q-77 79 -77 186 q0 111 82 191 q82 80 192 80 q123 0 211 -106 l0 92 ZM544 274 q0 87 -59 146 q-59 59 -146 59 q-92 0 -153 -63.5 q-61 -63.5 -61 -146.5 q0 -81 59 -138.5 q59 -57.5 151 -57.5 q92 0 150.5 56 q58.5 56 58.5 145 Z" /><glyph glyph-name="" unicode="h" d="M76 736 l69 0 l0 -300 q82 109 199 109 q60 0 108 -32.5 q48 -32.5 68 -85 q20 -52.5 20 -154.5 l0 -273 l-69 0 l0 253 q0 82 -5 113 q-5 31 -22 59 q-17 28 -45.5 42.5 q-28.5 14.5 -68.5 14.5 q-41 0 -78 -19 q-37 -19 -63 -53 q-26 -34 -35 -70 q-9 -36 -9 -145 l0 -195 l-69 0 l0 736 Z" /><glyph glyph-name="" unicode="i" d="M44 679 q0 23 16.5 40 q16.5 17 39.5 17 q24 0 40.5 -16.5 q16.5 -16.5 16.5 -40.5 q0 -23 -16.5 -39.5 q-16.5 -16.5 -40.5 -16.5 q-23 0 -39.5 17 q-16.5 17 -16.5 39 ZM66 531 l69 0 l0 -531 l-69 0 l0 531 Z" /><glyph glyph-name="" unicode="j" d="M45 679 q0 23 17 40 q17 17 40 17 q23 0 39.5 -16.5 q16.5 -16.5 16.5 -40.5 q0 -22 -17 -39 q-17 -17 -39 -17 q-22 0 -39.5 17 q-17.5 17 -17.5 39 ZM68 531 l69 0 l0 -579 q0 -65 -17 -95.5 q-17 -30.5 -55 -30.5 q-26 0 -65 15 l0 61 q29 -13 42 -13 q15 0 20.5 17 q5.5 17 5.5 66 l0 559 Z" /><glyph glyph-name="" unicode="k" d="M66 736 l69 0 l0 -419 l245 214 l101 0 l-292 -253 l309 -278 l-97 0 l-266 239 l0 -239 l-69 0 l0 736 Z" /><glyph glyph-name="" unicode="l" d="M66 736 l68 0 l0 -736 l-68 0 l0 736 Z" /><glyph glyph-name="" unicode="m" d="M76 531 l68 0 l0 -92 q71 106 182 106 q59 0 105.5 -33.5 q46.5 -33.5 62.5 -94.5 q33 62 84 95 q51 33 111 33 q73 0 127 -51.5 q54 -51.5 54 -203.5 l0 -290 l-70 0 l0 290 q0 73 -9 107.5 q-9 34.5 -39 58 q-30 23.5 -76 23.5 q-53 0 -96 -33 q-43 -33 -59 -84 q-16 -51 -16 -154 l0 -208 l-67 0 l0 272 q0 85 -9 121.5 q-9 36.5 -40 61 q-31 24.5 -76 24.5 q-45 0 -84.5 -26.5 q-39.5 -26.5 -62 -72.5 q-22.5 -46 -22.5 -155 l0 -225 l-68 0 l0 531 Z" /><glyph glyph-name="" unicode="n" d="M76 531 l69 0 l0 -95 q82 109 199 109 q60 0 108 -32.5 q48 -32.5 68 -85 q20 -52.5 20 -154.5 l0 -273 l-68 0 l0 253 q0 93 -8.5 126 q-8.5 33 -26 56 q-17.5 23 -44.5 35 q-27 12 -63 12 q-41 0 -78 -19 q-37 -19 -63 -53 q-26 -34 -35 -70 q-9 -36 -9 -145 l0 -195 l-69 0 l0 531 Z" /><glyph glyph-name="" unicode="o" d="M51 262 q0 117 80.5 200 q80.5 83 196.5 83 q115 0 195.5 -83 q80.5 -83 80.5 -200 q0 -115 -79.5 -197.5 q-79.5 -82.5 -196.5 -82.5 q-117 0 -197 82.5 q-80 82.5 -80 197.5 ZM535 261 q0 88 -61.5 152.5 q-61.5 64.5 -145.5 64.5 q-85 0 -146 -64.5 q-61 -64.5 -61 -152.5 q0 -90 59 -152 q59 -62 148 -62 q86 0 146.5 62.5 q60.5 62.5 60.5 151.5 Z" /><glyph glyph-name="" unicode="p" d="M77 531 l68 0 l0 -97 q81 111 211 111 q112 0 193 -82.5 q81 -82.5 81 -197.5 q0 -117 -80 -200 q-80 -83 -192 -83 q-122 0 -213 109 l0 -285 l-68 0 l0 725 ZM562 263 q0 89 -61.5 152.5 q-61.5 63.5 -149.5 63.5 q-90 0 -150.5 -62.5 q-60.5 -62.5 -60.5 -153.5 q0 -93 62 -155.5 q62 -62.5 150 -62.5 q85 0 147.5 63.5 q62.5 63.5 62.5 154.5 Z" /><glyph glyph-name="" unicode="q" d="M605 531 l0 -725 l-67 0 l0 285 q-90 -109 -214 -109 q-112 0 -192 83.5 q-80 83.5 -80 199.5 q0 115 81 197.5 q81 82.5 193 82.5 q131 0 212 -111 l0 97 l67 0 ZM543 261 q0 89 -60.5 153.5 q-60.5 64.5 -150.5 64.5 q-88 0 -149.5 -65 q-61.5 -65 -61.5 -151 q0 -90 62.5 -154 q62.5 -64 147.5 -64 q83 0 147.5 63 q64.5 63 64.5 153 Z" /><glyph glyph-name="" unicode="r" d="M50 531 l70 0 l0 -77 q28 47 54.5 69 q26.5 22 63.5 22 q28 0 61 -18 l-36 -58 q-15 9 -31 9 q-31 0 -58.5 -32 q-27.5 -32 -40.5 -82.5 q-13 -50.5 -13 -183.5 l0 -180 l-70 0 l0 531 Z" /><glyph glyph-name="" unicode="s" d="M343 473 l-44 -45 q-55 53 -107 53 q-34 0 -57 -21.5 q-23 -21.5 -23 -51.5 q0 -33 24.5 -55.5 q24.5 -22.5 76.5 -50.5 q68 -35 99.5 -71.5 q31.5 -36.5 31.5 -89.5 q0 -67 -46.5 -113 q-46.5 -46 -114.5 -46 q-45 0 -86.5 20 q-41.5 20 -70.5 56 l43 48 q53 -59 111 -59 q41 0 70 27 q29 27 29 64 q0 36 -25.5 59.5 q-25.5 23.5 -79.5 51.5 q-65 32 -94.5 67.5 q-29.5 35.5 -29.5 87.5 q0 61 41.5 101 q41.5 40 104.5 40 q74 0 147 -72 Z" /><glyph glyph-name="" unicode="t" d="M136 736 l69 0 l0 -205 l108 0 l0 -58 l-108 0 l0 -473 l-69 0 l0 473 l-94 0 l0 58 l94 0 l0 205 Z" /><glyph glyph-name="" unicode="u" d="M67 531 l69 0 l0 -252 q0 -81 7.5 -114.5 q7.5 -33.5 29.5 -60.5 q22 -27 54 -41 q32 -14 73 -14 q42 0 74 14.5 q32 14.5 53.5 41 q21.5 26.5 28 58.5 q6.5 32 6.5 116 l0 252 l70 0 l0 -264 q0 -114 -26 -169 q-26 -55 -78 -85.5 q-52 -30.5 -128 -30.5 q-73 0 -125.5 29.5 q-52.5 29.5 -80 87 q-27.5 57.5 -27.5 172.5 l0 260 Z" /><glyph glyph-name="" unicode="v" d="M26 531 l73 0 l177 -404 l177 404 l73 0 l-243 -549 l-12 0 l-245 549 Z" /><glyph glyph-name="" unicode="w" d="M4 531 l71 0 l162 -403 l171 403 l12 0 l170 -403 l165 403 l72 0 l-231 -549 l-13 0 l-169 398 l-170 -398 l-13 0 l-227 549 Z" /><glyph glyph-name="" unicode="x" d="M239 222 l-154 -222 l-81 0 l194 280 l-175 251 l82 0 l134 -192 l133 192 l82 0 l-174 -250 l197 -281 l-83 0 l-155 222 Z" /><glyph glyph-name="" unicode="y" d="M19 531 l72 0 l183 -409 l177 409 l73 0 l-317 -725 l-72 0 l102 234 l-218 491 Z" /><glyph glyph-name="" unicode="z" d="M33 531 l390 0 l-301 -470 l291 0 l0 -61 l-409 0 l301 471 l-272 0 l0 60 Z" /><glyph glyph-name="" unicode="{" d="M37 340 q40 0 64 22.5 q24 22.5 30 55 q6 32.5 7 146.5 q1 107 20 141 q19 34 47.5 49 q28.5 15 86.5 15 l27 0 l0 -76 l-15 0 q-38 0 -56 -10.5 q-18 -10.5 -23 -33 q-5 -22.5 -5 -79.5 q0 -90 -5.5 -139.5 q-5.5 -49.5 -30 -80 q-24.5 -30.5 -66.5 -50.5 q54 -22 78 -68.5 q24 -46.5 24 -151.5 q0 -95 4 -123.5 q4 -28.5 22.5 -39 q18.5 -10.5 72.5 -10.5 l0 -76 l-27 0 q-69 0 -100.5 23 q-31.5 23 -42 62.5 q-10.5 39.5 -11.5 154.5 q0 66 -6 103.5 q-6 37.5 -29 60.5 q-23 23 -66 25 l0 80 Z" /><glyph glyph-name="" unicode="}" d="M314 260 q-40 -2 -63.5 -22.5 q-23.5 -20.5 -30.5 -56.5 q-7 -36 -7 -110 q-1 -116 -12 -155.5 q-11 -39.5 -42.5 -62 q-31.5 -22.5 -99.5 -22.5 l-27 0 l0 76 q53 0 71.5 10 q18.5 10 23 38 q4.5 28 4.5 125 q0 105 24 151.5 q24 46.5 78 68.5 q-41 19 -65 48.5 q-24 29.5 -30.5 74 q-6.5 44.5 -6.5 169.5 q0 65 -18 83 q-18 18 -66 18 l-15 0 l0 76 l27 0 q67 0 97 -21 q30 -21 43 -58 q13 -37 14 -126 q1 -117 8 -149 q7 -32 31 -53.5 q24 -21.5 62 -21.5 l0 -80 Z" /><glyph glyph-name="" unicode="©" d="M374 752 q104 0 192.5 -51.5 q88.5 -51.5 139.5 -140.5 q51 -89 51 -190 q0 -105 -51.5 -193 q-51.5 -88 -141 -139 q-89.5 -51 -190.5 -51 q-104 0 -192.5 51.5 q-88.5 51.5 -140 141 q-51.5 89.5 -51.5 190.5 q0 102 51.5 191 q51.5 89 141 140 q89.5 51 191.5 51 ZM374 39 q135 0 232.5 96.5 q97.5 96.5 97.5 234.5 q0 135 -96.5 232.5 q-96.5 97.5 -233.5 97.5 q-135 0 -233 -96 q-98 -96 -98 -234 q0 -135 97 -233 q97 -98 234 -98 ZM562 451 l-67 0 q-20 87 -115 87 q-64 0 -100.5 -45 q-36.5 -45 -36.5 -126 q0 -80 35 -124 q35 -44 96 -44 q49 0 80.5 30.5 q31.5 30.5 40.5 89.5 l67 0 q-12 -82 -62.5 -128.5 q-50.5 -46.5 -123.5 -46.5 q-94 0 -148.5 60 q-54.5 60 -54.5 164 q0 106 56.5 169.5 q56.5 63.5 146.5 63.5 q80 0 129.5 -39 q49.5 -39 56.5 -111 Z" /><glyph glyph-name="" unicode="&#x6771;" d="M538 639 q243 0 391 6 l0 -64 q-148 6 -391 6 l0 -86 q227 0 300 4 q-4 -27 -4 -54 l0 -215 q0 -27 4 -54 q-64 4 -233 4 q140 -166 346 -231 q-39 -26 -49 -63 q-236 125 -352 294 l-12 0 l0 -213 q0 -55 8 -130 l-81 0 q10 61 10 130 l0 213 l-7 0 q-121 -186 -361 -308 q-16 41 -59 58 q104 32 201 99 q97 67 160 151 q-142 0 -245 -4 q4 27 4 54 l0 215 q0 27 -4 54 q73 -4 311 -4 l0 86 q-243 0 -391 -6 l0 64 q150 -6 391 -6 q0 84 -6 108 q29 -3 55 -3 l30 1 q11 0 11 -8 q0 -8 -8.5 -12 q-8.5 -4 -13.5 -11.5 q-5 -7.5 -5 -13.5 l0 -61 ZM475 369 l0 81 l-247 0 l0 -81 l247 0 ZM538 450 l0 -81 l234 0 l0 81 l-234 0 ZM475 234 l0 87 l-247 0 l0 -87 l247 0 ZM538 321 l0 -87 l234 0 l0 87 l-234 0 Z" /><glyph glyph-name="" unicode="&#xff1a;" d="M296 407 l-94 0 l0 96 l94 0 l0 -96 ZM296 0 l-94 0 l0 96 l94 0 l0 -96 Z" /><glyph glyph-name="" unicode="&#x6309;" d="M199 279 l0 223 q-76 0 -131 -9 l0 69 q46 -9 131 -9 q-2 153 -13 202 q30 -8 78 -8 q21 0 21 -7.5 q0 -7.5 -18 -23.5 q-8 -7 -8 -63 l0 -100 q56 1 95 9 l0 -69 q-41 7 -95 8 l0 -194 q33 16 89 48 q3 -25 19 -55 q-57 -27 -108 -53 l0 -287 q0 -67 -37.5 -84.5 q-37.5 -17.5 -113.5 -17.5 q0 43 -28 80 q50 -10 74 -10 q24 0 34.5 10 q10.5 10 10.5 43 l0 233 q-59 -33 -109 -62 q-10 41 -37 72 q91 32 146 55 ZM638 607 q-25 54 -73 112 l62 30 q46 -65 74 -142 q175 0 232 6 l0 -175 l-60 0 l0 117 l-438 0 l0 -123 l-58 0 l0 181 q63 -6 261 -6 ZM518 282 q-96 -2 -139 -7 l0 62 q53 -6 158 -6 q35 97 48 187 q35 -20 74 -24 q19 -3 19 -9 q0 -6 -17 -18.5 q-17 -12.5 -34.5 -59.5 q-17.5 -47 -29.5 -76 l210 0 q62 0 144 6 l0 -62 q-44 6 -102 6 q-41 -163 -118 -247 q60 -27 213 -104 q-27 -28 -44 -64 q-104 67 -213 125 q-101 -86 -307 -135 q-15 44 -55 70 q201 25 303 95 q-105 53 -204 91 q53 73 94 170 ZM788 282 l-211 0 q-38 -86 -71 -147 q69 -27 169 -75 q77 76 113 222 Z" /><glyph glyph-name="" unicode="&#x767d;" d="M362 603 q60 107 72 156 q39 -22 79 -30 q13 -3 13 -10 q0 -7 -17 -12 q-24 -7 -85 -104 l235 0 q130 0 203 7 q-5 -43 -5 -79 l0 -522 q0 -73 5 -137 l-69 0 l0 90 l-567 0 l0 -100 l-67 0 q5 51 5 160 l0 509 q0 42 -5 79 q58 -7 203 -7 ZM226 311 l567 0 l0 240 l-567 0 l0 -240 ZM793 259 l-567 0 l0 -245 l567 0 l0 245 Z" /><glyph glyph-name="" unicode="&#x4f34;" d="M178 428 q-44 -70 -99 -137 q-22 35 -51 49 q86 89 149.5 207.5 q63.5 118.5 84.5 201.5 q32 -18 67 -23 q17 -2 17 -9.5 q0 -7.5 -13.5 -16.5 q-13.5 -9 -31 -38.5 q-17.5 -29.5 -63.5 -125.5 l0 -691 l-71 0 q11 107 11 208 l0 375 ZM591 349 q-206 0 -267 -8 l0 66 q61 -8 267 -8 l0 144 q0 145 -10 198 q39 -7 83 -7 q12 0 12 -7 q0 -7 -7 -11 q-7 -4 -12.5 -15 q-5.5 -11 -5.5 -20 l0 -282 q203 0 269 8 l0 -66 q-66 8 -269 8 l0 -161 q201 0 302 8 l0 -68 q-101 8 -302 8 l0 -142 q0 -85 8 -154 l-77 0 q9 93 9 155 l0 141 q-196 0 -297 -8 l0 68 q101 -8 297 -8 l0 161 ZM845 696 q36 -28 68 -37 q17 -5 17 -11.5 q0 -6.5 -17 -11.5 q-17 -5 -44 -38 q-27 -33 -101 -142 q-20 24 -56 32 q92 107 133 208 ZM542 500 l-52 -41 q-61 95 -150 179 l43 38 q98 -92 159 -176 Z" /><glyph glyph-name="" unicode="&#x5305;" d="M291 570 q-39 -58 -83 -112 q78 -5 218 -5 q140 0 209 5 q-9 -43 -9 -100 l0 -95 q0 -52 11 -99 q-53 5 -119 5 l-246 0 l0 -164 q0 -24 10.5 -37.5 q10.5 -13.5 36 -19 q25.5 -5.5 104.5 -8.5 q79 -3 188.5 -3 q109.5 0 163 8 q53.5 8 74 32 q20.5 24 28.5 84 q26 -24 69 -37 q-26 -75 -53 -103 q-27 -28 -88 -35.5 q-61 -7.5 -187 -7.5 q-126 0 -210 3 q-84 3 -112.5 8 q-28.5 5 -48 16.5 q-19.5 11.5 -28 32.5 q-8.5 21 -8.5 59 l0 361 q0 43 -6 95 q-51 -65 -103 -114 q-25 31 -63 47 q110 84 181.5 181 q71.5 97 96.5 186 q34 -23 72 -30 q15 -2 15 -10.5 q0 -8.5 -12 -13.5 q-12 -5 -22.5 -17 q-10.5 -12 -41.5 -58 l357 0 q125 0 173 8 q-6 -38 -6.5 -143.5 q-0.5 -105.5 -4.5 -199 q-4 -93.5 -10 -128 q-6 -34.5 -24 -57 q-18 -22.5 -55.5 -36.5 q-37.5 -14 -109.5 -25 q-2 37 -33 75 q66 -1 95 3.5 q29 4.5 44 17.5 q15 13 20.5 39 q5.5 26 10.5 108.5 q5 82.5 5 155 q0 72.5 -2 128.5 l-497 0 ZM567 219 l0 184 l-295 0 l0 -184 l295 0 Z" /><glyph glyph-name="" unicode="&#x5317;" d="M337 435 l0 99 q0 138 -9 194 q43 -11 87 -11 q16 0 16 -6 q0 -6 -9 -11.5 q-9 -5.5 -15.5 -19.5 q-6.5 -14 -6.5 -29 l0 -632 q0 -84 8 -150 l-80 0 q9 76 9 150 l0 89 q-107 -61 -250 -158 q-7 34 -41 69 q129 48 291 150 l0 218 l-128 0 q-79 0 -137 -7 l0 63 q56 -8 137 -8 l128 0 ZM642 410 q160 48 249 105 q19 -40 42 -60 q11 -9 11 -16.5 q0 -7.5 -19 -7.5 l-13 1 q-25 0 -81 -15.5 q-56 -15.5 -189 -61.5 l0 -347 q0 -22 8.5 -34 q8.5 -12 34 -17.5 q25.5 -5.5 88 -5.5 q62.5 0 87 11.5 q24.5 11.5 31.5 35 q7 23.5 7 60.5 q31 -30 66 -40 q-11 -56 -30 -81 q-19 -25 -57 -33.5 q-38 -8.5 -118 -8.5 q-80 0 -117.5 9 q-37.5 9 -49 29.5 q-11.5 20.5 -11.5 63.5 l0 561 q0 128 -6 169 q22 -5 43 -5.5 q21 -0.5 36 -0.5 q15 0 15 -4.5 q0 -4.5 -10 -15.5 q-17 -19 -17 -143 l0 -148 Z" /><glyph glyph-name="" unicode="&#x51b0;" d="M673 393 q96 91 160 204 q32 -31 58 -49 q13 -9 13 -20 q0 -11 -22.5 -11 q-22.5 0 -75.5 -54 q-68 -72 -115 -111 q51 -121 112.5 -205.5 q61.5 -84.5 154.5 -141.5 q-29 -16 -60 -55 q-115 113 -168 202 q-53 89 -102 230 l0 -427 q0 -38 -13 -59 q-13 -21 -52.5 -31.5 q-39.5 -10.5 -117.5 -10.5 q4 44 -26 78 q56 -6 87.5 -6 q31.5 0 46.5 12 q15 12 15 65 l0 555 q0 140 -10 183 q42 -7 68.5 -7 q26.5 0 26.5 -5 q0 -5 -12.5 -15.5 q-12.5 -10.5 -12.5 -34.5 l0 -171 q17 -49 45 -115 ZM267 508 l-42 -44 q-98 117 -165 179 l40 40 q66 -60 167 -175 ZM257 -47 q-24 24 -63 41 q111 74 179 196.5 q68 122.5 84 271.5 q-106 0 -155 -12 l0 65 q45 -6 108.5 -6 q63.5 0 110.5 6 q-22 -194 -81 -319 q-59 -125 -183 -243 ZM266 294 q-96 -170 -160 -332 q-31 22 -72 40 q99 105 172 334 q27 -23 60 -42 Z" /><glyph glyph-name="" unicode="&#x53c2;" d="M725 520 l-218 -8 q-20 -46 -49 -86 q373 0 468 6 l0 -58 q-120 7 -270 7 q117 -129 309 -166 q-29 -21 -42 -66 q-215 74 -332 232 l-166 0 q-108 -132 -337 -234 q-20 40 -52 60 q199 54 320 174 q-159 0 -280 -7 l0 58 q124 -6 320 -6 q33 43 51 84 q-183 -10 -247 -28 q-4 36 -24 67 q32 1 58 14.5 q26 13.5 101.5 78.5 q75.5 65 114.5 119 q28 -33 48.5 -41 q20.5 -8 20.5 -16.5 q0 -8.5 -16.5 -11 q-16.5 -2.5 -30.5 -9.5 q-14 -7 -47.5 -38 q-33.5 -31 -122.5 -94 l381 8 q-50 44 -115 86 l45 43 q129 -102 218 -191 l-51 -41 q-23 31 -55 64 ZM553 353 q15 -27 43 -43 q11 -6 11 -13 q0 -7 -18.5 -7 q-18.5 0 -66.5 -34 q-64 -45 -119.5 -72 q-55.5 -27 -129.5 -56 q-13 35 -46 51 q205 46 326 174 ZM651 251 q22 -31 44 -40 q11 -5 11 -11.5 q0 -6.5 -16 -6.5 q-16 0 -54 -31 q-121 -97 -371 -182 q-11 34 -45 60 q285 55 431 211 ZM753 162 q24 -31 48 -43 q9 -5 9 -11 q0 -6 -12 -9 q-29 -6 -80 -53 q-161 -145 -502 -204 q-10 36 -46 60 q223 27 350.5 84 q127.5 57 232.5 176 Z" /><glyph glyph-name="" unicode="&#x4ea7;" d="M521 623 q-25 45 -68 85 l56 40 q47 -65 73 -125 q226 0 332 8 l0 -65 q-119 8 -374 8 q-255 0 -397 -8 l0 65 q118 -8 378 -8 ZM411 369 q-55 90 -106 137 l51 38 q61 -69 117 -175 l128 0 q56 73 112 185 q29 -24 62 -36 q16 -5 16 -13 q0 -8 -18 -13 q-29 -9 -108 -123 q212 0 277 7 l0 -65 q-174 7 -301 7 l-422 0 q0 -228 -21.5 -318.5 q-21.5 -90.5 -61.5 -158.5 q-26 24 -71 33 q52 65 73 135.5 q21 70.5 21 201.5 q0 65 -5 165 q43 -7 257 -7 Z" /><glyph glyph-name="" unicode="&#x5ba0;" d="M544 642 q272 0 365 9 l0 -185 l-61 0 l0 127 l-684 0 l0 -124 l-63 0 l0 182 q69 -8 382 -9 q-24 46 -77 91 l57 36 q45 -51 81 -127 ZM802 450 l-41 -43 q-66 63 -135 104 l33 44 q83 -57 143 -105 ZM396 393 q5 78 5 152 q31 -12 70 -12 q14 0 14 -7.5 q0 -7.5 -9.5 -13 q-9.5 -5.5 -12.5 -38 q-3 -32.5 -9 -81.5 l243 0 q161 0 211 9 l0 -67 q-50 9 -211 9 l-249 0 q-23 -182 -99 -286 q-76 -104 -256 -214 q-14 36 -51 52 q167 77 248 180 q81 103 101 268 q-259 0 -294 -9 l0 67 q44 -9 299 -9 ZM529 10 q-93 -68 -156 -96 q-8 37 -41 54 q89 32 197 108 l0 135 q0 78 -9 106 q40 -5 77 -6 q14 0 14 -11 q0 -7 -8.5 -13 q-8.5 -6 -11.5 -12 q-3 -6 -3 -18 l0 -137 q119 97 172 182 q26 -24 55 -39 q10 -5 10 -12 q0 -12 -17 -12 q-10 0 -24 -10 q-14 -10 -67.5 -62.5 q-53.5 -52.5 -128.5 -111.5 l0 -64 q0 -44 23 -57 q23 -13 100 -13 q77 0 108 6.5 q31 6.5 45.5 29.5 q14.5 23 26.5 82 q23 -31 64 -44 q-26 -61 -49.5 -86.5 q-23.5 -25.5 -65.5 -34 q-42 -8.5 -124.5 -8.5 q-82.5 0 -117 5 q-34.5 5 -52 20 q-17.5 15 -17.5 62 l0 57 Z" /><glyph glyph-name="" unicode="&#x9664;" d="M603 655 q-96 -170 -257 -284 q-23 23 -71 41 q121 55 202 150 q81 95 109 203 q31 -12 69 -22 q12 -3 12 -11 q0 -8 -11 -12 q-11 -4 -29 -25 q48 -75 152 -146 q104 -71 194 -96 q-34 -22 -49 -71 q-53 31 -129.5 89 q-76.5 58 -115 95.5 q-38.5 37.5 -76.5 88.5 ZM240 402 q119 -96 119 -214 q0 -84 -33.5 -115 q-33.5 -31 -103.5 -44 q-4 42 -44 72 q20 -2 36 -2 q48 0 66.5 21.5 q18.5 21.5 18.5 76.5 q0 91 -121 200 q64 115 118 260 l-147 0 l0 -816 l-65 0 q6 121 6 245 l0 474 q0 106 -5 147 q61 -7 145 -7 q84 0 145 7 q-19 -51 -65 -151 l-70 -154 ZM598 371 q-98 0 -166 -6 l0 55 q77 -6 201 -6 q124 0 199 6 l0 -55 q-53 6 -172 6 l0 -129 q143 0 240 10 l0 -66 q-96 10 -240 10 l0 -264 q0 -48 -42 -66.5 q-42 -18.5 -117 -23.5 q-1 30 -37 71 q31 -6 62 -6 q31 0 51.5 12.5 q20.5 12.5 20.5 31.5 l0 245 q-116 -1 -214 -10 l0 66 q98 -9 214 -10 l0 129 ZM464 155 q23 -24 56 -36 q12 -4 12 -15 q0 -13 -15 -15 q-11 -1 -24 -10 q-13 -9 -21 -19 q-56 -73 -139 -139 q-22 22 -70 41 q55 25 115.5 83 q60.5 58 85.5 110 ZM952 -23 l-55 -40 q-69 102 -156 178 l41 38 q72 -64 170 -176 Z" /><glyph glyph-name="" unicode="&#x5e8a;" d="M561 644 q296 0 353 7 l0 -61 q-51 6 -266 6 l-433 0 q1 -69 1 -125 q0 -244 -26 -366.5 q-26 -122.5 -90 -229.5 q-21 24 -69 30 q68 78 98 198.5 q30 120.5 30 311.5 q0 105 -9 236 q26 -7 349 -7 q-24 43 -73 84 l57 36 q43 -50 78 -120 ZM594 358 l0 -322 q0 -83 8 -188 l-74 0 q8 105 8 188 l0 322 l-13 0 q-89 -233 -273 -418 q-13 31 -62 53 q100 72 166 156.5 q66 84.5 117 207.5 q-136 -2 -213 -6 l0 61 q115 -7 278 -7 q-1 112 -10 151 q38 -9 77 -9 q17 0 17 -6.5 q0 -6.5 -13 -21.5 q-13 -15 -13 -64 l0 -50 q174 0 296 7 l0 -61 q-106 6 -237 7 q108 -215 295 -343 q-37 -28 -54 -55 q-186 174 -292 398 l-8 0 Z" /><glyph glyph-name="" unicode="&#x6625;" d="M447 602 q-182 0 -327 -7 l0 65 q122 -10 337 -10 q9 49 10 100 q48 -14 71.5 -14 q23.5 0 23.5 -6.5 q0 -6.5 -10 -14.5 q-16 -12 -32 -65 q229 0 354 10 l0 -65 q-123 7 -366 7 q-12 -53 -23 -85 l71 0 q170 0 261 8 l0 -65 q-104 9 -261 9 l-88 0 q-18 -45 -39 -84 l200 0 q205 0 302 8 l0 -65 q-100 7 -270 9 q115 -142 303 -166 q-29 -28 -44 -76 q-94 28 -169 82 l0 -188 q0 -79 5 -130 l-65 0 l0 47 l-381 0 l0 -62 l-66 0 q6 59 6 118 l0 225 q-71 -50 -150 -98 q-15 28 -62 54 q197 77 292 194 q-172 -2 -270 -9 l0 65 q116 -8 305 -8 q24 37 43 84 q-148 0 -247 -9 l0 65 q87 -8 265 -8 q14 50 21 85 ZM601 337 l-202 0 q-38 -54 -85 -96 l363 0 q-42 45 -76 96 ZM310 97 l381 0 l0 96 l-381 0 l0 -96 ZM310 -47 l381 0 l0 97 l-381 0 l0 -97 Z" /><glyph glyph-name="" unicode="&#x5927;" d="M500 337 q-34 -149 -122 -254.5 q-88 -105.5 -272 -202.5 q-28 38 -64 56 q380 158 418 493 q-219 0 -366 -10 l0 73 q167 -9 370 -9 q1 59 1.5 144 q0.5 85 -1.5 121 q31 -11 56 -11 l25 1 q14 0 14 -8 q0 -8 -9.5 -14.5 q-9.5 -6.5 -14.5 -19.5 q-5 -13 -5.5 -21.5 q-0.5 -8.5 -0.5 -67 q0 -58.5 -6 -124.5 q257 0 401 9 l0 -73 q-159 10 -400 10 q48 -159 157.5 -282 q109.5 -123 268.5 -195 q-40 -23 -66 -71 q-265 160 -384 456 Z" /><glyph glyph-name="" unicode="&#x7684;" d="M199 557 q34 104 38 196 q39 -13 79 -21 q11 -2 11 -8.5 q0 -6.5 -8 -14.5 q-27 -27 -64 -152 q109 0 185 8 q-7 -39 -7 -91 l0 -478 q0 -81 7 -146 l-68 0 l0 92 l-212 0 l0 -100 l-70 0 q8 76 8 146 l0 486 q0 46 -7 91 q43 -7 108 -8 ZM160 272 l212 0 l0 233 l-212 0 l0 -233 ZM372 222 l-212 0 l0 -232 l212 0 l0 232 ZM606 519 q-45 -107 -94 -185 q-30 20 -62 29 q66 94 95.5 178 q29.5 84 54.5 204 q39 -19 73 -23 q14 -2 14 -9 q0 -7 -13.5 -17.5 q-13.5 -10.5 -49.5 -122.5 l159 0 q58 0 111 8 q-6 -44 -7 -99 l-10 -510 q-1 -71 -57 -95 q-56 -24 -163 -24 q-3 38 -30 78 q44 -2 83 -2 q39 0 63 10.5 q24 10.5 31.5 36.5 q7.5 26 8.5 84 l5 459 l-212 0 ZM730 137 l-56 -33 q-59 143 -113 223 l55 37 q57 -93 114 -227 Z" /><glyph glyph-name="" unicode="&#x5730;" d="M695 494 q149 43 203 61 l-7 -333 q-1 -63 -25 -85 q-24 -22 -104 -34 q4 38 -32 69 q20 -2 34 -2 q40 0 54.5 14 q14.5 14 14.5 49 l3 253 l-141 -38 l0 -241 q0 -62 6 -141 l-71 0 q8 85 8 141 l0 226 l-129 -34 l0 -357 q0 -46 9.5 -63.5 q9.5 -17.5 46 -25 q36.5 -7.5 135 -7.5 q98.5 0 135 7 q36.5 7 55.5 31.5 q19 24.5 26 80.5 q18 -36 61 -42 q-12 -44 -25.5 -68.5 q-13.5 -24.5 -32.5 -36 q-19 -11.5 -46 -15.5 q-27 -4 -103 -8.5 q-76 -4.5 -144 -4.5 q-68 0 -109 13 q-41 13 -53.5 42 q-12.5 29 -12.5 89 l0 350 q-70 -21 -114 -33 l-15 65 q38 1 129 21 l0 38 q0 196 -9 231 q21 -4 83 -4 q17 0 17 -8 q0 -8 -10.5 -12 q-10.5 -4 -16.5 -16 q-6 -12 -6 -22 l0 -194 l129 29 l0 159 q0 90 -11 128 q52 -7 71.5 -7 q19.5 0 19.5 -8.5 q0 -8.5 -13 -15.5 q-10 -5 -10 -60 l0 -181 ZM178 459 q-77 -1 -126 -10 l0 67 q49 -9 126 -10 q0 186 -8 241 q36 -8 77 -8 q15 0 15 -6 q0 -6 -12 -12.5 q-12 -6.5 -12 -23.5 l0 -191 q70 1 117 10 l0 -67 q-54 9 -117 9 l0 -346 q56 19 149 60 q-1 -31 6 -60 q-187 -63 -340 -123 q-10 38 -29 68 q74 13 154 35 l0 367 Z" /><glyph glyph-name="" unicode="&#x57ab;" d="M602 546 q-86 -5 -144 -14 l-5 57 q22 -1 54.5 -1 q32.5 0 97.5 4 q4 90 -13 161 q30 -5 81 -5 q15 0 15 -8.5 q0 -8.5 -11 -18.5 q-19 -16 -21 -125 l198 14 q-20 -99 -20 -188 q0 -65 20.5 -121 q20.5 -56 35.5 -56 q20 0 31 88 q18 -42 56 -45 q-35 -109 -87 -109 q-38 0 -72.5 62 q-34.5 62 -34.5 219 q0 47 3 99 l-131 -9 q-4 -84 -31 -146 q44 -27 98 -64 l-44 -47 q-38 35 -77 65 q-58 -95 -204 -167 q-18 38 -52 49 q158 52 212 149 q-42 26 -88 48 l26 38 l82 -43 q19 48 25 114 ZM239 560 q-117 0 -169 -8 l0 62 q64 -8 169 -8 q0 115 -9 147 q37 -9 77 -9 q20 0 20 -13 q0 -9 -12 -15 q-18 -8 -18 -39 l0 -71 q79 0 134 8 l0 -62 q-55 8 -134 8 l0 -101 q39 9 130 32 q-3 -12 -3 -25.5 q0 -13.5 3 -31.5 q-62 -10 -130 -24 l0 -117 q0 -37 -11 -55.5 q-11 -18.5 -42 -27 q-31 -8.5 -94 -10.5 q3 28 -4.5 45 q-7.5 17 -26.5 35 q45 -8 71 -8 q26 0 37.5 10 q11.5 10 11.5 37 l0 78 q-74 -19 -150 -40 q-8 25 -26 63 q80 10 176 28 l0 112 ZM476 62 q-209 0 -317 -11 l0 69 q108 -11 317 -11 q0 91 -7 122 q34 -6 77 -6 q15 0 15 -10 q0 -10 -11 -19 q-13 -10 -13 -35 l0 -52 q193 1 300 11 l0 -69 q-108 10 -300 11 l0 -126 q229 1 391 13 l0 -72 q-168 13 -429 13 q-261 0 -429 -13 l0 72 q162 -13 406 -13 l0 126 Z" /><glyph glyph-name="" unicode="&#x5e97;" d="M578 636 q274 1 337 9 l0 -64 q-51 6 -261 6 l-436 0 q3 -146 3 -290 q0 -144 -16 -244 q-16 -100 -61 -207 q-27 23 -69 36 q45 71 66 173 q21 102 21 248.5 q0 146.5 -12 341.5 q46 -9 359 -9 q-26 41 -73 87 l62 32 q47 -56 80 -119 ZM521 226 l0 249 q0 58 -8 88 q5 -3 78 -3 q11 0 11 -5 q0 -5 -11 -13 q-11 -8 -11 -51 l0 -76 l173 0 q91 0 152 9 l0 -68 q-60 9 -152 9 l-173 0 l0 -139 q219 0 266 8 q-8 -54 -8 -109 l0 -122 q0 -74 8 -129 l-68 0 l0 59 l-406 0 l0 -74 l-68 0 q10 60 10 130 l0 136 q0 49 -7 109 q42 -7 214 -8 ZM372 -15 l406 0 l0 190 l-406 0 l0 -190 Z" /><glyph glyph-name="" unicode="&#x8c03;" d="M304 613 l-49 -44 q-67 73 -156 135 l34 46 q110 -79 171 -137 ZM921 688 q-5 -54 -5 -197 l0 -544 q0 -52 -15.5 -70 q-15.5 -18 -48 -24 q-32.5 -6 -101.5 -6 q6 45 -34 78 q44 -8 74 -8 q65 0 65 33 l0 684 l-401 0 l0 -290 q0 -197 -25 -302 q-25 -105 -95 -187 q-22 27 -80 30 q76 61 107.5 159.5 q31.5 98.5 31.5 284.5 l0 359 q116 -6 263.5 -6 q147.5 0 263.5 6 ZM624 463 q-78 0 -125 -8 l0 60 q47 -8 125 -8 q0 54 -8 91 q12 -4 75 -4 q12 0 12 -9 q0 -9 -12 -17 q-12 -8 -12 -41 l0 -20 q75 0 122 8 l0 -60 q-46 8 -122 8 l0 -93 q83 0 143 7 l0 -60 q-69 7 -168 7 q-99 0 -168 -7 l0 60 q63 -6 138 -7 l0 93 ZM230 348 l0 -290 q46 38 83 80 q12 -41 29 -56 l-92 -82 q-45 -40 -65 -77 q-20 35 -53 60 q39 49 39 111 l0 315 q-79 0 -122 -17 l0 76 q42 -5 99 -5 q57 0 99 5 q-17 -42 -17 -120 ZM792 267 q-6 -42 -6 -108 q0 -66 5 -115 q-45 3 -135.5 3 q-90.5 0 -137.5 -3 q7 67 7 120.5 q0 53.5 -7 102.5 q63 -6 137 -6 q74 0 137 6 ZM731 93 l0 126 l-151 0 l0 -126 l151 0 Z" /><glyph glyph-name="" unicode="&#x4e01;" d="M500 597 q-267 0 -424 -8 l0 69 q129 -8 411 -8 q282 0 443 8 l0 -69 q-146 8 -367 8 l0 -620 q0 -47 -16.5 -70 q-16.5 -23 -62 -33 q-45.5 -10 -138.5 -12 q-2 43 -33 83 q75 -10 114 -10 q39 0 56 9.5 q17 9.5 17 41.5 l0 611 Z" /><glyph glyph-name="" unicode="&#x6d1e;" d="M328 603 l-39 -44 q-63 62 -168 135 l33 45 q82 -59 174 -136 ZM418 34 q0 -81 9 -172 l-78 0 q9 107 9 172 l0 456 q0 111 -2 204 q168 -6 289.5 -6 q121.5 0 279.5 6 q-7 -51 -7 -197 l0 -531 q0 -41 -9.5 -58.5 q-9.5 -17.5 -42.5 -27 q-33 -9.5 -112 -17.5 q0 48 -31 81 q55 -8 81.5 -8 q26.5 0 40 8 q13.5 8 13.5 45 l0 651 l-440 0 l0 -606 ZM806 526 l0 -63 q-81 8 -167.5 8 q-86.5 0 -168.5 -8 l0 63 q81 -8 167.5 -8 q86.5 0 168.5 8 ZM290 366 l-33 -52 q-73 65 -181 128 l30 46 q67 -41 184 -122 ZM771 69 q-56 3 -123.5 3 q-67.5 0 -143.5 -4 q6 53 6 141.5 q0 88.5 -6 162.5 q54 -5 115 -5 q61 0 152 5 q-3 -75 -3 -163 q0 -88 3 -140 ZM713 117 l0 204 l-149 0 l0 -204 l149 0 ZM291 207 q-54 -136 -122 -339 l-80 24 q42 56 80.5 155 q38.5 99 57.5 200 q33 -29 64 -40 Z" /><glyph glyph-name="" unicode="&#x90fd;" d="M326 461 l39 0 q106 120 142 238 q28 -23 51.5 -33.5 q23.5 -10.5 23.5 -21.5 q0 -11 -20 -13 q-12 -1 -125 -168 q85 3 150 9 l0 -70 q-76 9 -192 11 q-56 -61 -125 -115 l162 0 q49 0 89 9 q-5 -23 -5 -77 l0 -243 q0 -45 6 -100 l-66 0 l0 61 l-227 0 l0 -83 l-70 0 q5 63 5 100 l0 256 q-51 -35 -82 -55 q-10 36 -65 54 q69 26 144 71 l-3 16 l24 -3 q86 56 139 109 q-179 0 -272 -11 l0 70 q92 -11 216 -11 l0 123 q-77 0 -131 -10 l0 66 q57 -9 131 -10 q0 99 -7 131 q36 -5 77 -5 q16 0 16 -8 q0 -8 -10 -16 q-15 -11 -15 -35 l0 -67 q73 1 121 10 l0 -66 q-48 9 -121 10 l0 -123 ZM229 147 l227 0 l0 105 l-227 0 l0 -105 ZM456 99 l-227 0 l0 -105 l227 0 l0 105 ZM810 375 q67 -52 101.5 -111.5 q34.5 -59.5 34.5 -122 q0 -62.5 -14.5 -95.5 q-14.5 -33 -54 -48 q-39.5 -15 -122.5 -20 q2 15 2 24 q0 34 -36 59 q46 -6 85 -6 q39 0 58 20 q19 20 19 73 q0 53 -36.5 112.5 q-36.5 59.5 -108.5 103.5 q73 139 111 284 l-174 0 l0 -808 l-65 0 q6 121 6 245 l0 470 q0 105 -5 147 q49 -7 160.5 -7 q111.5 0 159.5 7 q-62 -200 -121 -327 Z" /><glyph glyph-name="" unicode="&#x5bf9;" d="M830 529 q84 0 134 7 l0 -65 q-56 5 -134 6 l0 -526 q0 -37 -12 -56 q-12 -19 -47 -29.5 q-35 -10.5 -109 -17.5 q-3 44 -35 83 q54 -7 83.5 -7 q29.5 0 43.5 9.5 q14 9.5 14 45.5 l0 498 l-156 0 q-96 0 -159 -5 l0 64 q53 -7 159 -7 l156 0 q0 167 -9 224 q27 -7 39.5 -8.5 q12.5 -1.5 34.5 -1.5 q22 0 22 -6 q0 -6 -9 -12 q-16 -10 -16 -40 l0 -156 ZM295 300 q53 127 71 286 l-154 0 q-74 0 -128 -4 l0 63 q39 -6 176.5 -6 q137.5 0 175.5 6 q-25 -221 -101 -399 q86 -120 149 -224 l-60 -42 q-49 93 -121 198 q-80 -153 -200 -275 q-28 30 -67 49 q133 98 228 282 q-85 123 -164 214 l48 38 q67 -76 147 -186 ZM510 364 l54 31 q62 -88 131 -234 l-60 -31 q-40 113 -125 234 Z" /><glyph glyph-name="" unicode="&#x756a;" d="M472 625 q-174 -9 -315 -13 q-8 41 -36 69 q66 -8 210.5 -8 q144.5 0 286.5 17.5 q142 17.5 185 38.5 q15 -35 40 -56 q12 -10 12 -17 q0 -12 -22.5 -9.5 q-22.5 2.5 -56.5 2.5 q-34 0 -94 -7 q-60 -7 -151 -13 l0 -143 l92 0 q63 70 95 141 q28 -26 60 -36 q14 -4 14 -11 q0 -7 -17.5 -12 q-17.5 -5 -86.5 -82 q157 0 241 9 l0 -66 q-81 9 -309 9 q105 -113 339 -163 q-34 -27 -50 -65 q-136 50 -214 101 q-78 51 -135 127 l-29 0 l0 -52 q0 -59 8 -135 l-75 0 q8 76 8 135 l0 52 l-20 0 q-117 -138 -365 -228 q-19 39 -54 60 q242 53 354 168 q-226 0 -317 -9 l0 66 q86 -9 242 -9 q-33 41 -77 76 l59 36 q43 -47 85 -112 l93 0 l0 139 ZM264 -101 l0 -56 l-66 0 q6 46 6 110 l0 204 q0 42 -5 80 q112 -7 305 -7 q193 0 305 7 q-6 -34 -6 -80 l0 -192 q0 -73 6 -110 l-66 0 l0 44 l-479 0 ZM264 88 l212 0 l0 94 l-212 0 l0 -94 ZM533 88 l210 0 l0 94 l-210 0 l0 -94 ZM476 41 l-212 0 l0 -94 l212 0 l0 94 ZM743 41 l-210 0 l0 -94 l210 0 l0 94 Z" /><glyph glyph-name="" unicode="&#x65b9;" d="M479 582 q-32 76 -76 127 l69 31 q43 -75 74 -158 q254 0 386 7 l0 -67 q-139 7 -528 7 l0 -181 l293 0 q67 0 120 5 l-36 -375 q-3 -35 -21 -55.5 q-18 -20.5 -68 -33.5 q-50 -13 -149 -19 q0 44 -32 87 q70 -12 114.5 -12 q44.5 0 67.5 13 q23 13 26 45 l29 295 l-344 0 q-2 -155 -59.5 -261.5 q-57.5 -106.5 -178.5 -186.5 q-25 35 -64 52 q98 52 150 115 q52 63 70 135.5 q18 72.5 18 171.5 l0 205 q-132 -1 -258 -7 l0 67 q135 -7 397 -7 Z" /><glyph glyph-name="" unicode="&#x5206;" d="M955 333 q-30 -20 -53 -64 q-107 81 -176.5 179.5 q-69.5 98.5 -140.5 271.5 l55 21 q65 -164 136.5 -261 q71.5 -97 178.5 -147 ZM374 738 q38 -30 76 -35 q13 -2 13 -10 q0 -8 -12 -13 q-26 -11 -60 -71 q-117 -210 -268 -366 q-25 39 -68 46 q240 183 319 449 ZM376 294 q-84 0 -146 -7 l0 66 q61 -8 266.5 -8 q205.5 0 287.5 8 l-33 -365 q-3 -35 -19.5 -54.5 q-16.5 -19.5 -63 -31.5 q-46.5 -12 -138.5 -15 q-1 41 -36 73 q50 -3 91.5 -3 q41.5 0 65 7.5 q23.5 7.5 31.5 22.5 q8 15 11 46 l25 261 l-283 0 q-2 -156 -69 -256 q-67 -100 -216 -179 q-18 33 -62 48 q142 62 215 140 q73 78 73 247 Z" /><glyph glyph-name="" unicode="&#x7c89;" d="M846 363 q-119 162 -148 362 l52 10 q26 -143 80 -237 q54 -94 147 -162 q-39 -27 -55 -58 q-40 38 -73 82 q-7 -49 -9 -116 l-8 -221 q-2 -57 -16.5 -86 q-14.5 -29 -52.5 -43.5 q-38 -14.5 -117 -21.5 q-4 43 -39 81 q49 -6 84.5 -6 q35.5 0 57.5 12.5 q22 12.5 24 68.5 l9 281 l-143 0 q0 -169 -48 -267.5 q-48 -98.5 -169 -185.5 q-18 41 -62 60 q123 53 171 139 q48 86 51 254 q-67 0 -95 -5 l0 35 q-16 -25 -38 -54 q-22 22 -62 35 q78 72 125 179 q47 107 51 215 q39 -18 65.5 -21.5 q26.5 -3.5 26.5 -10 q0 -6.5 -16 -15.5 q-16 -9 -38 -78 q-43 -134 -101 -228 q38 -4 169 -4 q131 0 177 6 ZM214 370 q-104 0 -162 -8 l0 64 q58 -8 162 -8 l0 196 q0 76 -8 120 q31 -9 74 -9 q13 0 13 -7.5 q0 -7.5 -11.5 -17 q-11.5 -9.5 -11.5 -45.5 l0 -237 q87 0 140 8 l0 -64 q-53 8 -140 8 l0 -47 q97 -75 161 -148 l-54 -45 q-43 71 -107 136 l0 -261 q0 -58 11 -166 l-77 0 q10 100 10 166 l0 231 q-51 -136 -124 -241 q-29 28 -64 40 q121 127 188 329 l0 6 ZM182 494 l-54 -24 q-20 78 -73 165 l50 28 q45 -76 77 -169 ZM384 663 q34 -26 59 -35 q11 -4 11 -10.5 q0 -6.5 -13 -11.5 q-22 -8 -89 -140 q-15 14 -54 20 q63 91 86 177 Z" /><glyph glyph-name="" unicode="&#x5e72;" d="M471 597 q-217 0 -334 -8 l0 67 q163 -8 383 -8 q220 0 348 8 l0 -67 q-95 8 -335 8 l0 -293 q256 0 397 8 l0 -69 q-140 8 -397 8 l0 -226 q0 -78 9 -168 l-80 0 q9 90 9 168 l0 226 q-261 0 -404 -8 l0 69 q141 -8 404 -8 l0 293 Z" /><glyph glyph-name="" unicode="&#x6e2f;" d="M723 371 q18 -34 85 -95 q67 -61 155 -93 q-44 -26 -58 -49 q-53 40 -130 107 l-1 -103 q0 -65 5 -106 q-54 6 -136 6 l-167 0 l0 -48 q0 -40 11.5 -57 q11.5 -17 37 -21 q25.5 -4 93.5 -4 q134 0 167 10.5 q33 10.5 46 82.5 q22 -29 55 -34 q-31 -90 -77.5 -100 q-46.5 -10 -220.5 -10 q-82 0 -113.5 6.5 q-31.5 6.5 -42.5 28 q-11 21.5 -11 71.5 l0 251 q-58 -62 -107 -95 q-15 31 -64 38 q57 23 128.5 90.5 q71.5 67.5 94.5 123.5 q-122 -1 -206 -10 l0 60 q74 -7 197 -8 l0 153 q-91 -1 -146 -9 l0 59 q68 -8 146 -9 l0 31 q0 69 -8 104 q44 -6 66.5 -6 q22.5 0 22.5 -6 q0 -6 -11.5 -12 q-11.5 -6 -11.5 -23 l0 -88 l162 0 l0 27 q0 53 -6 109 q39 -6 61.5 -6 q22.5 0 22.5 -6 q0 -6 -11 -12 q-11 -6 -11 -23 l0 -89 q86 1 155 9 l0 -59 q-69 8 -155 9 l0 -153 q106 1 199 8 l0 -60 q-84 8 -216 10 ZM684 413 l0 153 l-162 0 l0 -153 l162 0 ZM773 242 q-70 66 -108 129 l-136 0 q-36 -66 -85 -131 q51 -1 130 -1 q79 0 199 3 ZM721 81 l0 116 l-245 0 l0 -116 l245 0 ZM281 629 l-36 -48 q-61 54 -156 101 l31 49 q108 -57 161 -102 ZM248 373 l-36 -46 q-78 60 -176 106 l22 46 q105 -49 190 -106 ZM256 198 q-48 -107 -143 -348 q-31 22 -74 33 q43 49 92 155.5 q49 106.5 71 201.5 q24 -32 54 -42 Z" /><glyph glyph-name="" unicode="&#x516c;" d="M964 298 q-40 -21 -68 -59 q-214 199 -275 462 l57 14 q30 -148 117.5 -263.5 q87.5 -115.5 168.5 -153.5 ZM359 713 q39 -20 61 -23 q22 -3 22 -9.5 q0 -6.5 -13 -16.5 q-13 -10 -27 -31 q-14 -21 -24 -43 q-56 -131 -111 -208.5 q-55 -77.5 -125 -152.5 q-23 27 -67 46 q111 75 187 208.5 q76 133.5 97 229.5 ZM741 -40 q-209 -10 -332.5 -20 q-123.5 -10 -186.5 -31 q-12 49 -40 84 q26 7 45.5 23.5 q19.5 16.5 70.5 83 q51 66.5 97.5 145 q46.5 78.5 68.5 150.5 q45 -25 77 -34 q15 -5 15 -11.5 q0 -6.5 -14 -10.5 q-20 -6 -60 -69 q-94 -149 -189 -278 l413 22 q-52 76 -122 154 l53 36 q154 -191 217 -304 l-60 -34 q-22 44 -53 94 Z" /><glyph glyph-name="" unicode="&#x72d7;" d="M550 606 l190 0 q95 0 168 14 l-10 -606 q-1 -62 -14.5 -93 q-13.5 -31 -53 -47.5 q-39.5 -16.5 -124.5 -26.5 q0 37 -31 77 q28 -2 49 -2 q54 0 83.5 13.5 q29.5 13.5 30.5 79.5 l9 538 l-324 0 q-42 -81 -111 -167 q-25 30 -60 41 q137 120 185 321 q34 -19 59.5 -23.5 q25.5 -4.5 25.5 -12 q0 -7.5 -11.5 -11.5 q-11.5 -4 -21.5 -21 q-10 -17 -39 -74 ZM235 509 q-66 -58 -140 -110 q-16 30 -50 48 q83 40 161 106 q-65 86 -126 109 l38 47 q79 -50 132 -115 q55 57 93 117 q35 -28 60 -40 q11 -5 11 -12 q0 -7 -13 -8 q-13 -1 -29.5 -11 q-16.5 -10 -35.5 -32.5 q-19 -22.5 -57 -58.5 q86 -155 86 -392 q0 -178 -43 -234.5 q-43 -56.5 -157 -67.5 q-2 42 -37 82 q35 -4 57 -4 q63 0 85.5 34.5 q22.5 34.5 28.5 99 q6 64.5 6 126.5 q0 62 -8 121 q-79 -115 -202 -217 q-16 38 -44 58 q150 90 232 229 q-15 68 -48 125 ZM517 86 l0 -91 l-65 0 q8 62 8 131 l0 220 q0 52 -4 79 q38 -5 152 -5 q114 0 149 5 q-4 -37 -4 -79 l0 -205 q0 -79 6 -131 l-63 0 l0 76 l-179 0 ZM696 135 l0 237 l-179 0 l0 -237 l179 0 Z" /><glyph glyph-name="" unicode="&#x8d2d;" d="M559 527 q-31 -83 -76 -153 q-24 22 -62 31 q116 139 136 342 q32 -15 72 -17 q16 -1 16 -8.5 q0 -7.5 -10 -15.5 q-15 -10 -58 -129 l165 0 q125 0 173 8 q-4 -41 -5 -97 q-9 -432 -13.5 -495 q-4.5 -63 -51.5 -91 q-47 -28 -198 -41 q-5 48 -36 86 q69 -7 107 -7 q71 0 93 23.5 q22 23.5 25.5 63.5 q3.5 40 8 222.5 q4.5 182.5 4.5 277.5 l-290 0 ZM424 117 l-66 0 l0 495 l-206 0 l0 -517 l-65 0 q10 89 10 187 l0 238 q0 81 -5 149 q46 -9 164 -9 q118 0 164 9 q-7 -63 -7 -149 l0 -216 q0 -103 11 -187 ZM218 530 q34 -4 82 -4 q9 0 9 -5 q0 -5 -9 -12 q-9 -7 -12 -31 q-3 -24 -3 -156.5 q0 -132.5 -20 -213 q-20 -80.5 -58.5 -138.5 q-38.5 -58 -97.5 -119 q-26 33 -60 47 q58 36 94.5 78.5 q36.5 42.5 56.5 97.5 q20 55 26 119.5 q6 64.5 6 183 q0 118.5 -14 153.5 ZM743 108 l-168 -22 q-85 -12 -113 -21 q-1 35 -22 63 q33 13 52 38 q19 25 54.5 110 q35.5 85 55.5 176 q32 -18 58 -21 q26 -3 26 -10.5 q0 -7.5 -11 -15 q-11 -7.5 -23 -28 q-12 -20.5 -48.5 -100 q-36.5 -79.5 -70.5 -143.5 l190 17 q-29 61 -74 125 l49 33 q80 -126 129 -251 l-58 -23 q-12 42 -26 73 ZM483 -93 l-51 -41 q-71 113 -157 182 l40 44 q88 -88 168 -185 Z" /><glyph glyph-name="" unicode="&#x53f7;" d="M781 440 q-100 3 -284 3 q-184 0 -271 -4 q6 51 6 132.5 q0 81.5 -6 132.5 q114 -5 277.5 -5 q163.5 0 277.5 5 q-3 -72 -3 -143.5 q0 -71.5 3 -120.5 ZM718 491 l0 158 l-426 0 l0 -158 l426 0 ZM338 307 q-214 -2 -278 -7 l0 65 q155 -8 464.5 -8 q309.5 0 417.5 8 l0 -65 q-127 8 -541 8 l-38 -133 l325 0 q59 0 111 8 q-22 -184 -33 -235 q-11 -51 -68 -71.5 q-57 -20.5 -222 -27.5 q0 47 -28 78 q87 -5 138 -5 q51 0 76.5 7.5 q25.5 7.5 34.5 23.5 q9 16 17.5 67 q8.5 51 10.5 105 l-352 0 q-66 0 -100 -8 q19 27 34 81 l31 109 Z" /><glyph glyph-name="" unicode="&#x9ed1;" d="M537 226 l0 -105 q230 0 385 8 l0 -63 q-165 8 -421 8 q-256 0 -421 -8 l0 63 q159 -8 397 -8 l0 105 q-190 0 -305 -6 l0 58 q114 -6 305 -6 l0 94 q-194 0 -305 -6 q7 68 7 169 q0 101 -7 170 q119 -6 338 -6 q219 0 338 6 q-6 -75 -6 -170 q0 -95 6 -168 q-90 5 -311 5 l0 -94 q191 0 307 6 l0 -58 q-116 6 -307 6 ZM477 413 l0 232 l-240 0 l0 -232 l240 0 ZM441 466 l-56 -26 q-44 90 -95 145 l47 32 q56 -64 104 -151 ZM537 645 l0 -232 l247 0 l0 232 l-247 0 ZM735 585 q-36 -30 -115 -149 l-50 30 q66 69 111 153 l54 -34 ZM941 -104 l-55 -42 q-36 66 -126 161 l43 35 q83 -81 138 -154 ZM255 9 q-63 -104 -127 -170 l-54 35 q82 71 128 169 l53 -34 ZM701 -99 l-56 -27 q-31 75 -85 136 l49 30 q58 -74 92 -139 ZM483 -116 l-62 -23 q-24 89 -72 150 l51 25 q46 -69 83 -152 Z" /><glyph glyph-name="" unicode="&#x7ea2;" d="M277 389 l-116 -12 q-42 -4 -67 -16 q-12 38 -33 62 q37 13 93 101.5 q56 88.5 101 215.5 q35 -23 69 -32 q16 -4 16 -11.5 q0 -7.5 -14 -14.5 q-17 -10 -176 -255 l160 10 q48 71 63 132 q36 -28 58 -34 q22 -6 22 -14.5 q0 -8.5 -13 -14.5 q-13 -6 -31.5 -27 q-18.5 -21 -82.5 -108 l-142 -192 q129 17 243 37 q0 -26 8 -55 l-240 -36 q-66 -10 -99 -24 q-8 43 -24 64 q55 16 205 224 ZM708 583 l0 -622 q186 0 245 8 l0 -67 q-61 8 -267.5 8 q-206.5 0 -273.5 -8 l0 67 q62 -7 232 -8 l0 622 q-144 0 -203 -8 l0 67 q69 -8 237.5 -8 q168.5 0 236.5 8 l0 -67 q-62 8 -207 8 ZM457 64 q-4 -18 -4 -31.5 q0 -13.5 2 -29.5 q-304 -66 -365 -96 q-4 42 -30 76 q110 2 397 81 Z" /><glyph glyph-name="" unicode="&#x62a4;" d="M744 647 l-47 -42 q-44 58 -128 125 l36 44 q78 -61 139 -127 ZM226 481 q-102 -1 -162 -9 l0 65 q60 -8 162 -9 q0 166 -13 231 q23 -6 77 -6 q24 0 24 -7 q0 -7 -15 -19 q-15 -12 -15 -38 l0 -161 q88 1 144 9 l0 -65 q-56 8 -144 9 l0 -178 q68 23 135 50 q-3 -24 9 -54 q-84 -27 -144 -47 l0 -295 q0 -39 -11.5 -57.5 q-11.5 -18.5 -43 -27 q-31.5 -8.5 -101.5 -14.5 q-1 45 -29 75 q47 -5 74 -5 q27 0 40 9 q13 9 13 43 l0 252 q-76 -26 -158 -57 q-5 32 -23 68 q99 18 181 42 l0 196 ZM850 263 l-327 0 q-2 -147 -36.5 -237 q-34.5 -90 -118.5 -182 q-21 32 -70 39 q74 58 110 117.5 q36 59.5 47.5 130 q11.5 70.5 11.5 173 q0 102.5 -6 295.5 q21 -9 217 -9 q196 0 239 7 q-5 -20 -5 -78 l0 -206 q0 -54 5 -131 l-67 0 l0 81 ZM850 316 l0 225 l-326 0 l0 -225 l326 0 Z" /><glyph glyph-name="" unicode="&#x8d27;" d="M232 558 q-51 -45 -140 -101 q-11 40 -49 55 q88 33 181.5 119 q93.5 86 112.5 141 q24 -31 52 -47 q11 -6 11 -13 q0 -7 -16.5 -14.5 q-16.5 -7.5 -34.5 -24.5 q-18 -17 -57 -57 l0 -262 l-71 0 q11 56 11 118 l0 86 ZM531 504 q-92 -30 -167 -52 q-14 40 -42 61 q95 12 209 49 l0 84 q0 73 -5 111 q28 -6 77 -6 q13 0 13 -6.5 q0 -6.5 -12 -14.5 q-15 -9 -15 -59 l0 -88 q135 49 239 122 q22 -32 40 -44 q18 -12 18 -19.5 q0 -7.5 -15 -7.5 l-15 1 q-20 0 -69 -24 q-80 -41 -198 -87 l0 -35 q0 -30 10.5 -45 q10.5 -15 43.5 -21.5 q33 -6.5 98 -6.5 q65 0 93 6.5 q28 6.5 39.5 25.5 q11.5 19 15.5 62 q25 -32 67 -37 q-17 -66 -56 -90.5 q-39 -24.5 -167 -24.5 q-105 0 -153.5 18.5 q-48.5 18.5 -48.5 102.5 l0 25 ZM840 236 l0 -114 q0 -61 4 -100 l-69 0 l0 238 l-506 0 l0 -247 l-66 0 q5 54 5 100 l0 123 q0 55 -3 84 q62 -7 319.5 -7 q257.5 0 318.5 7 q-3 -29 -3 -84 ZM479 217 q31 -8 73 -8 q15 0 15 -7 q0 -7 -8 -15 q-21 -19 -25 -71 q-10 -118 -110.5 -182 q-100.5 -64 -282.5 -97 q-9 40 -47 73 q118 2 218 38.5 q100 36.5 134 89.5 q34 53 34 142 q0 18 -1 37 ZM922 -99 l-41 -59 q-127 90 -323 171 l28 51 q186 -82 336 -163 Z" /><glyph glyph-name="" unicode="&#x5b63;" d="M475 643 q-144 -8 -256 -10 q-4 30 -29 64 q107 -9 167 -9 q60 0 192 7 q132 7 231 38 q6 -31 18 -47 q12 -16 12 -21 q0 -10 -20 -6.5 q-20 3.5 -43 3.5 q-23 0 -74.5 -6 q-51.5 -6 -139.5 -10 l0 -97 q259 0 388 7 l0 -60 q-116 6 -304 6 q151 -127 348 -178 q-31 -26 -47 -60 q-241 103 -366 238 l-19 0 l0 -80 q0 -46 3 -109 l-66 0 q5 71 5 109 l0 80 l-18 0 q-81 -88 -154.5 -142.5 q-73.5 -54.5 -212.5 -120.5 q-13 34 -53 62 q205 50 355 201 q-188 -1 -307 -6 l0 60 q129 -7 390 -7 l0 94 ZM491 73 q-256 0 -369 -9 l0 65 q138 -9 369 -9 l0 42 l147 83 l-212 0 q-108 0 -187 -5 l0 56 q91 -4 270 -4 q179 0 267 4 l0 -47 q-39 2 -89 -28 l-138 -82 l0 -19 q218 0 352 9 l0 -64 q-94 8 -352 8 l0 -111 q0 -53 -12 -76 q-12 -23 -51.5 -32.5 q-39.5 -9.5 -133.5 -13.5 q-1 39 -29 75 q57 -7 93 -7 q36 0 55.5 8 q19.5 8 19.5 33 l0 124 Z" /><glyph glyph-name="" unicode="&#x8ba1;" d="M683 434 q170 1 269 9 l0 -69 q-80 8 -269 9 l0 -364 q0 -76 8 -180 l-77 0 q8 124 8 180 l0 364 q-178 0 -276 -9 l0 69 q102 -8 276 -9 l0 169 q0 104 -12 153 q47 -9 74.5 -9 q27.5 0 27.5 -6 q0 -6 -14.5 -14 q-14.5 -8 -14.5 -74 l0 -219 ZM335 561 l-51 -43 q-69 95 -175 182 l45 41 q97 -82 181 -180 ZM261 323 l0 -325 q79 59 148 136 q8 -35 29 -61 l-149 -125 q-48 -40 -79 -75 q-18 34 -48 56 q22 25 30.5 46.5 q8.5 21.5 8.5 64.5 l0 346 q-80 0 -103.5 -2 q-23.5 -2 -53.5 -13 l0 72 q40 -5 114 -5 q74 0 120 5 q-17 -42 -17 -120 Z" /><glyph glyph-name="" unicode="&#x7b80;" d="M230 604 q-47 -67 -115 -142 q-26 30 -60 39 q69 50 125.5 121.5 q56.5 71.5 82.5 143.5 q38 -20 55.5 -25 q17.5 -5 17.5 -10.5 q0 -5.5 -14 -12.5 q-24 -13 -59 -67 q228 1 254 12 l0 -66 q-20 7 -166 7 q51 -62 77 -106 l-56 -27 q-25 69 -75 133 l-67 0 ZM642 646 q259 1 305 15 l0 -68 q-29 6 -190 6 q43 -49 72 -96 l-57 -31 q-24 62 -75 127 l-79 0 q-50 -84 -88 -131 q-23 26 -63 30 q116 93 157 262 q37 -18 55.5 -21 q18.5 -3 18.5 -8 q0 -5 -10 -11 q-10 -6 -46 -74 ZM367 388 l-52 -39 q-26 51 -108 120 l37 40 q65 -55 123 -121 ZM867 448 q-7 -35 -7 -108 l0 -385 q0 -49 -11.5 -72 q-11.5 -23 -45.5 -32.5 q-34 -9.5 -108 -12.5 q3 48 -26 76 q43 -7 72.5 -7 q29.5 0 44 10 q14.5 10 14.5 36 l0 439 l-201 0 q-105 0 -191 -5 l0 60 q76 -6 238 -6 q162 0 221 7 ZM154 382 q23 -9 32 -10.5 q9 -1.5 32.5 -1.5 q23.5 0 23.5 -7 q0 -7 -15 -19 q-4 -3 -7.5 -22.5 q-3.5 -19.5 -3.5 -42.5 l0 -441 l-67 0 q10 76 10 133 l0 287 q0 80 -5 124 ZM669 -30 q-47 7 -166 7 q-119 0 -165 -7 q3 34 3 61 l0 222 q0 29 -3 60 q53 -6 164.5 -6 q111.5 0 166.5 6 q-3 -24 -3 -60 l0 -222 q0 -36 3 -61 ZM612 168 l0 94 l-216 0 l0 -94 l216 0 ZM396 122 l0 -100 l216 0 l0 100 l-216 0 Z" /><glyph glyph-name="" unicode="&#x8230;" d="M111 335 l0 176 q0 73 -7 128 q25 -4 79 -6 q30 70 36 133 q38 -16 73 -19 q10 -1 10 -8.5 q0 -7.5 -12.5 -15 q-12.5 -7.5 -23 -25.5 q-10.5 -18 -30.5 -65 l69 0 q63 0 120 6 q-7 -52 -7 -128 l0 -499 q0 -35 -10 -52 q-10 -17 -39 -26 q-29 -9 -93 -16 q1 36 -28 67 q32 -3 53 -3 q41 0 51.5 12 q10.5 12 10.5 45 l0 245 l-194 0 q-1 -161 -15.5 -251 q-14.5 -90 -47.5 -171 q-28 20 -72 24 q39 56 57.5 143 q18.5 87 19.5 255 q-33 -1 -71 -5 l0 61 q38 -4 71 -5 ZM363 335 l0 251 l-194 0 l0 -251 l194 0 ZM322 393 l-52 -24 q-18 66 -64 131 l47 26 q38 -64 69 -133 ZM876 607 l0 -263 q0 -94 9 -156 l-67 0 l0 445 l-280 0 l0 -453 l-66 0 q9 73 9 153 l0 278 q0 53 -4 78 q47 -6 194 -6 q147 0 212 6 q-7 -42 -7 -82 ZM688 207 q-16 -119 -81.5 -198.5 q-65.5 -79.5 -223.5 -168.5 q-20 29 -61 49 q176 70 249 169.5 q73 99.5 73 310.5 q0 124 -11 158 q36 -8 81 -8 q11 0 11 -7 q0 -7 -8.5 -14.5 q-8.5 -7.5 -12.5 -54 q-4 -46.5 -6 -106.5 q-2 -60 -8 -118 q28 -8 52 -8 l13 1 q8 0 8 -4.5 q0 -4.5 -7.5 -11 q-7.5 -6.5 -7.5 -22.5 l0 -202 q0 -24 4 -33.5 q4 -9.5 18.5 -13 q14.5 -3.5 54.5 -3.5 q40 0 53.5 18 q13.5 18 19.5 86 q15 -18 28 -24.5 q13 -6.5 37 -5.5 q-17 -63 -32 -88 q-15 -25 -40.5 -32.5 q-25.5 -7.5 -91.5 -7.5 q-66 0 -87 15 q-21 15 -21 93 l0 167 q0 43 -3 64 ZM326 98 l-55 -22 q-21 65 -66 142 l46 21 q37 -65 75 -141 Z" /><glyph glyph-name="" unicode="&#x964d;" d="M665 479 q85 64 119 133 l-255 0 q-48 -68 -107 -130 q-20 34 -57 41 q56 33 111.5 106.5 q55.5 73.5 75.5 140.5 q32 -24 52.5 -28 q20.5 -4 20.5 -13.5 q0 -9.5 -13.5 -15 q-13.5 -5.5 -49.5 -55.5 l158 0 q115 0 163 8 q-66 -122 -173 -217 q99 -56 264 -75 q-28 -32 -30 -63 q-196 48 -280 103 q-108 -74 -287 -126 q-5 37 -41 63 q64 5 146 32.5 q82 27.5 138 61.5 q-51 41 -101 117 l41 27 q45 -66 105 -110 ZM264 398 q49 -36 77 -95 q28 -59 28 -124.5 q0 -65.5 -39.5 -100 q-39.5 -34.5 -119.5 -45.5 q-4 39 -30 75 q69 -3 100 16 q31 19 31 65 q0 46 -28.5 101.5 q-28.5 55.5 -81.5 100.5 q68 158 92 262 l-135 0 l0 -601 q0 -128 7 -215 l-75 0 q10 83 10 215 l0 523 q0 68 -7 131 q61 -4 136 -4 q75 0 140 5 q-43 -145 -105 -309 ZM639 215 q-149 0 -237 -8 l0 64 q89 -8 237 -8 q-2 57 -9 91 q36 -10 78 -10 q16 0 16 -6 q0 -6 -13 -14 q-13 -8 -14 -61 q134 0 218 8 l0 -64 q-84 8 -218 8 l0 -143 q163 0 227 10 l0 -62 q-52 4 -227 4 q0 -96 10 -186 l-77 0 q9 87 9 186 q-167 -2 -214 -7 q29 79 29 169 q34 -8 56.5 -8 q22.5 0 22.5 -9 q0 -6 -7.5 -12 q-7.5 -6 -13 -23 q-5.5 -17 -13.5 -62 l140 0 l0 143 Z" /><glyph glyph-name="" unicode="&#x4ecb;" d="M499 667 q-68 -126 -165.5 -209.5 q-97.5 -83.5 -248.5 -143.5 q-15 43 -53 60 q179 47 301 162.5 q122 115.5 133 235.5 q36 -14 76 -16 q15 -1 15 -9.5 q0 -8.5 -13 -12.5 q-7 -3 -22 -25 q154 -220 446 -308 q-38 -23 -51 -64 q-276 123 -418 330 ZM634 409 q36 -10 78 -10 q17 0 17 -6 q0 -6 -10.5 -12 q-10.5 -6 -13.5 -18 q-3 -12 -3 -60 l0 -271 q0 -88 10 -186 l-78 0 q9 95 9 186 l0 220 q0 113 -9 157 ZM298 406 q27 -8 76 -8 q10 0 10 -4 q0 -4 -7 -12 q-7 -8 -12.5 -40.5 q-5.5 -32.5 -5.5 -72.5 q-1 -205 -42 -287 q-41 -82 -128 -143 q-23 29 -65 43 q96 50 136.5 127 q40.5 77 40.5 271 q0 53 -3 126 Z" /><glyph glyph-name="" unicode="&#x8fdb;" d="M764 309 q124 0 183 7 l0 -66 q-59 7 -183 7 l0 -96 q0 -112 9 -180 l-76 0 q9 68 9 180 l0 96 l-165 0 q-7 -85 -34.5 -148.5 q-27.5 -63.5 -91.5 -137.5 q-24 29 -65 37 q68 63 96 116.5 q28 53.5 35 132.5 q-125 0 -184 -7 l0 66 q61 -7 188 -7 q4 74 3 202 q-102 -2 -145 -7 l0 62 q43 -5 145 -7 q-2 170 -13 202 q37 -10 80 -10 q15 0 15 -6 q0 -6 -10 -17 q-14 -15 -14 -169 l160 0 l0 61 q0 87 -9 137 q42 -10 67.5 -10 q25.5 0 25.5 -5.5 q0 -5.5 -14 -13.5 q-12 -10 -12 -39 l0 -130 q113 2 155 7 l0 -62 q-42 5 -155 7 l0 -202 ZM544 309 l162 0 l0 202 l-159 0 q1 -113 -3 -202 ZM292 543 l-53 -40 q-54 82 -147 168 l46 43 q82 -77 154 -171 ZM248 28 q36 -20 96 -64 q20 -15 91 -24 q71 -9 200.5 -9 q129.5 0 329.5 15 q-26 -27 -24 -78 q-267 3 -391 7.5 q-124 4.5 -171 14 q-47 9.5 -73 29.5 q-41 31 -59.5 40 q-18.5 9 -36.5 9 q-18 0 -43 -21.5 q-25 -21.5 -70 -76.5 q-21 39 -51 56 q99 87 142 105 l0 329 q-99 0 -130 -4 l0 63 q48 -7 103 -7 q55 0 94 7 q-7 -45 -7 -119 l0 -272 Z" /><glyph glyph-name="" unicode="&#x4eac;" d="M480 627 q-26 52 -73 112 l58 35 q42 -71 81 -147 q244 0 393 8 l0 -65 q-163 8 -434.5 8 q-271.5 0 -433.5 -8 l0 65 q155 -8 409 -8 ZM538 221 l0 -294 q0 -34 -11 -50.5 q-11 -16.5 -47.5 -25 q-36.5 -8.5 -115.5 -11.5 q-2 42 -34 79 q58 -9 89 -9 q31 0 45 9.5 q14 9.5 14 42.5 l0 259 q-179 0 -264 -4 q6 71 6 142 q0 71 -6 141 q117 -5 290.5 -5 q173.5 0 289.5 5 q-3 -74 -3 -152.5 q0 -78.5 3 -129.5 q-95 3 -256 3 ZM730 271 l0 173 l-448 0 l0 -173 l448 0 ZM295 182 q23 -26 46 -36 q15 -7 15 -13.5 q0 -6.5 -18 -12.5 q-14 -5 -61 -52 q-75 -75 -161 -140 q-17 33 -52 50 q145 80 231 204 ZM909 -22 l-52 -49 q-103 116 -213 196 l40 44 q131 -106 225 -191 Z" /><glyph glyph-name="" unicode="&#x541b;" d="M410 639 q-169 -1 -229 -6 l0 66 q113 -11 339 -11 q226 0 302 11 q-8 -35 -8 -74 l0 -105 q82 2 134 7 l0 -69 q-75 6 -134 7 l0 -98 q0 -39 8 -81 q-82 8 -439 8 q-21 -50 -62 -106 q113 -2 255.5 -2 q142.5 0 256.5 2 q-3 -10 -3 -54 l0 -190 q0 -53 6 -91 l-68 0 l0 58 l-417 0 l0 -68 l-65 0 q6 48 6 90 l0 216 q-84 -104 -188 -183 q-24 39 -65 49 q73 36 153.5 116.5 q80.5 80.5 124.5 161.5 q-103 -1 -156 -7 l0 70 q63 -6 181 -7 q22 54 38 119 q-194 0 -307 -10 l0 69 q117 -10 318 -10 q13 67 19 122 ZM755 517 l0 122 l-285 0 q-6 -53 -19 -122 l304 0 ZM403 348 l352 0 l0 120 l-315 0 q-10 -41 -37 -120 ZM768 -37 l0 173 l-417 0 l0 -173 l417 0 Z" /><glyph glyph-name="" unicode="&#x7a7a;" d="M479 632 q-39 68 -76 107 l55 34 q47 -69 82 -141 q264 0 355 9 q-8 -40 -8 -98.5 q0 -58.5 6 -96.5 l-66 0 l0 137 l-650 0 l0 -148 l-65 0 q6 44 6 100.5 q0 56.5 -6 105.5 q91 -8 367 -9 ZM368 521 q19 -27 49 -46 q9 -6 9 -10.5 q0 -4.5 -15 -9.5 q-26 -8 -44 -26 q-110 -92 -230 -170 q-16 36 -48 52 q77 32 153.5 89.5 q76.5 57.5 125.5 120.5 ZM895 326 l-44 -48 q-36 36 -120 94.5 q-84 58.5 -149 91.5 l35 49 q168 -103 278 -187 ZM534 214 l0 -268 q285 0 401 8 l0 -66 q-119 8 -392 8 q-273 0 -466 -8 l0 66 q149 -8 394 -8 l0 268 q-190 -2 -267 -8 l0 66 q128 -8 314 -8 q186 0 286 8 l0 -66 q-89 8 -270 8 Z" /><glyph glyph-name="" unicode="&#x63a7;" d="M186 492 q-94 0 -147 -9 l0 66 q53 -9 147 -9 q-2 154 -13 214 q23 -6 78 -6 q24 0 24 -7 q0 -7 -15 -19 q-15 -12 -15 -38 l0 -144 q70 0 115 9 l0 -66 q-48 8 -115 8 l0 -173 q62 33 102 59 q-1 -30 17 -58 q-57 -27 -119 -60 l0 -300 q0 -43 -11.5 -64 q-11.5 -21 -43 -30 q-31.5 -9 -96.5 -12 q1 31 -4.5 44.5 q-5.5 13.5 -17.5 30.5 q48 -7 73 -7 q25 0 33 11 q8 11 8 40 l0 254 q-68 -38 -122 -73 q-7 37 -36 70 q75 28 158 66 l0 203 ZM625 620 q-18 55 -54 107 l65 27 q25 -56 46 -134 q152 0 237 9 l0 -188 l-59 0 l0 131 l-421 0 l0 -130 l-56 0 l0 187 q90 -9 242 -9 ZM555 495 q27 -26 55 -38 q8 -3 8 -9.5 q0 -6.5 -9.5 -7.5 q-9.5 -1 -22.5 -10.5 q-13 -9.5 -23 -22.5 q-55 -71 -141 -152 q-29 29 -60 39 q121 71 193 201 ZM906 306 l-46 -36 q-63 88 -177 179 l35 36 q95 -75 188 -179 ZM672 -54 q190 0 282 8 l0 -66 q-102 8 -299.5 8 q-197.5 0 -329.5 -8 l0 66 q116 -8 287 -8 l0 227 q-122 -1 -203 -8 l0 64 q91 -8 239 -8 q148 0 237 8 l0 -64 q-83 8 -213 8 l0 -227 Z" /><glyph glyph-name="" unicode="&#x7c7b;" d="M550 490 l0 -90 q0 -36 5 -80 l-70 0 q7 39 7 80 l0 94 q-108 -134 -342 -245 q-14 35 -47 59 q112 34 182 74.5 q70 40.5 144 111.5 q-165 0 -311 -8 l0 61 q123 -7 374 -7 l0 124 q0 61 -8 86 q30 -4 50 -4 l27 1 q10 0 10 -5 q0 -5 -10.5 -13 q-10.5 -8 -10.5 -49 l0 -140 q213 0 362 7 l0 -61 q-137 6 -302 8 l307 -180 q-35 -23 -52 -53 l-315 229 ZM769 728 q36 -34 58 -42 q7 -3 7 -11 q0 -8 -14 -10 q-14 -2 -31.5 -14.5 q-17.5 -12.5 -117.5 -100.5 l-31 31 q104 95 129 147 ZM400 591 l-44 -39 q-46 57 -142 127 l38 36 q86 -67 148 -124 ZM467 143 l-83 0 q-158 0 -301 -6 l0 62 q131 -7 395 -7 q8 39 8 62.5 q0 23.5 -1 39.5 q37 -13 59.5 -14 q22.5 -1 22.5 -7.5 q0 -6.5 -12 -14.5 q-9 -5 -20 -66 q293 0 408 7 l0 -62 q-139 6 -301 6 l-86 0 q138 -164 402 -232 q-30 -22 -49 -65 q-140 55 -230.5 118.5 q-90.5 63.5 -159.5 160.5 q-62 -195 -416 -291 q-6 42 -42 64 q167 26 272 90 q105 64 134 155 Z" /><glyph glyph-name="" unicode="&#x51b7;" d="M609 627 q-43 -84 -119.5 -173 q-76.5 -89 -155.5 -145 q-23 31 -60 44 q107 52 204 172 q97 120 112 241 q39 -25 63.5 -29.5 q24.5 -4.5 24.5 -10.5 q0 -6 -10 -12 q-21 -12 -36 -39 q163 -237 335 -299 q-35 -31 -49 -60 q-183 118 -309 311 ZM289 489 l-50 -38 q-71 108 -163 184 l43 38 q83 -81 170 -184 ZM714 327 l-50 -34 q-50 90 -122 141 l35 39 q57 -45 137 -146 ZM284 315 q-97 -168 -178 -353 q-31 26 -67 35 q117 151 195 357 q25 -27 50 -39 ZM588 -3 l196 216 l-175 0 q-129 1 -272 -9 l0 68 q134 -10 292 -10 q158 0 247 10 l0 -57 q-26 -1 -93.5 -75 q-67.5 -74 -150.5 -177 q57 -44 116 -94 l-44 -42 q-104 109 -278 221 l35 43 q77 -55 127 -94 Z" /><glyph glyph-name="" unicode="&#x8054;" d="M687 526 q81 114 115 215 q23 -18 59 -31 q19 -7 19 -13.5 q0 -6.5 -21 -15 q-21 -8.5 -111 -155.5 q83 1 145 9 l0 -63 q-62 8 -193 8 l0 -198 q148 0 241 9 l0 -67 q-76 8 -238 8 q54 -116 114.5 -188.5 q60.5 -72.5 147.5 -126.5 q-28 -19 -52 -65 q-156 127 -225 306 q-39 -185 -221 -305 q-22 35 -63 49 q117 62 174.5 139.5 q57.5 77.5 63.5 190.5 q-146 0 -211 -8 l0 67 q89 -9 212 -9 l0 198 q-109 0 -184 -8 l0 63 q79 -9 228 -9 ZM647 582 l-53 -34 q-44 83 -111 145 l49 36 q67 -71 115 -147 ZM119 619 q-37 0 -70 -7 l0 64 q38 -7 213.5 -7 q175.5 0 202.5 7 l0 -64 q-31 6 -82 6 l0 -514 l91 26 q-3 -12 -3 -26 q0 -14 4 -31 l-92 -21 q0 -148 9 -211 l-73 0 q8 70 8 197 q-215 -52 -269 -71 q-2 34 -28 67 q29 0 89 10 l0 575 ZM327 619 l-150 0 l0 -152 l150 0 l0 152 ZM327 421 l-150 0 l0 -149 l150 0 l0 149 ZM177 225 l0 -170 q82 16 150 34 l0 136 l-150 0 Z" /><glyph glyph-name="" unicode="&#x4fa3;" d="M194 433 q-59 -101 -109 -161 q-18 32 -61 44 q111 112 180.5 250.5 q69.5 138.5 73.5 198.5 q30 -21 74 -33 q16 -4 16 -12 q0 -8 -13 -15 q-13 -7 -28 -28 q-15 -21 -33 -57 l-38 -74 l0 -713 l-73 0 q11 109 11 215 l0 385 ZM874 363 q-70 4 -216 4 q-146 0 -237 -5 q5 97 5 174.5 q0 77.5 -5 144.5 q82 -6 227 -6 q145 0 226 6 q-4 -79 -4 -173.5 q0 -94.5 4 -144.5 ZM809 417 l0 210 l-321 0 l0 -210 l321 0 ZM853 -65 l-409 0 l0 -91 l-67 0 q6 58 6 127 l0 228 q0 45 -6 77 q51 -4 258.5 -4 q207.5 0 281.5 4 q-5 -29 -5 -77 l0 -219 q0 -66 7 -127 l-66 0 l0 82 ZM444 -14 l409 0 l0 233 l-409 0 l0 -233 Z" /><glyph glyph-name="" unicode="&#x4e70;" d="M932 681 l-127 -234 l-60 30 l86 147 l-330 0 q-280 0 -374 -9 l0 66 q111 -7 402.5 -7 q291.5 0 402.5 7 ZM588 203 q231 0 356 6 l0 -62 q-160 5 -379 4 q-50 -99 -151.5 -173.5 q-101.5 -74.5 -272.5 -140.5 q-21 47 -57 66 q132 23 241 88.5 q109 65.5 171 159.5 q-310 0 -412 -4 l0 62 q141 -6 441 -6 q21 40 34.5 111 q13.5 71 13.5 134.5 q0 63.5 -10 118.5 q48 -6 79 -6 q13 0 13 -7 q0 -7 -11 -18 q-11 -11 -12 -67 q-3 -91 -12.5 -149 q-9.5 -58 -31.5 -117 ZM485 439 l-37 -47 q-74 66 -182 119 l33 47 q113 -62 186 -119 ZM423 285 l-37 -49 q-88 70 -208 127 l30 48 q134 -68 215 -126 ZM934 -85 l-44 -54 q-140 114 -300 189 l29 47 q159 -76 315 -182 Z" /><glyph glyph-name="" unicode="&#x732b;" d="M784 614 q102 0 170 8 l0 -67 q-68 8 -170 8 l0 -117 l-57 0 l0 117 l-157 0 l0 -116 l-56 0 l0 116 q-76 0 -136 -8 l0 67 q60 -8 136 -8 q0 97 -6 133 q39 -6 69 -6 q10 0 10 -6.5 q0 -6.5 -6 -10.5 q-11 -6 -11 -31 l0 -79 l157 0 q0 109 -6 135 q32 -6 70 -6 q10 0 10 -5 q0 -5 -6 -9 q-11 -7 -11 -31 l0 -84 ZM228 501 q-75 -80 -133 -125 q-23 35 -63 48 q94 54 168 126 q-67 97 -134 140 l44 41 q65 -46 132 -136 q58 69 86 135 q30 -26 67 -43 q3 -1 3 -5.5 q0 -4.5 -6 -6.5 q-32 -8 -82 -77 q-18 -25 -40 -51 q60 -129 60 -347 q0 -182 -29 -258.5 q-29 -76.5 -166 -96.5 q-7 48 -50 82 q27 -2 48 -2 q72 0 99 28 q27 28 35.5 108 q8.5 80 8.5 140.5 q0 60.5 -5 110.5 q-82 -139 -183 -251 q-19 25 -62 44 q132 93 233 291 q-10 54 -31 105 ZM462 -72 l0 -78 l-62 0 q5 59 5 141 l0 327 q0 59 -4 93 q85 -8 253.5 -8 q168.5 0 253.5 8 q-5 -44 -5 -93 l0 -315 q0 -78 5 -141 l-64 0 l0 66 l-382 0 ZM462 193 l163 0 l0 161 l-163 0 l0 -161 ZM684 193 l160 0 l0 161 l-160 0 l0 -161 ZM625 144 l-163 0 l0 -167 l163 0 l0 167 ZM844 144 l-160 0 l0 -167 l160 0 l0 167 Z" /><glyph glyph-name="" unicode="&#x6bdb;" d="M462 610 l0 -169 q208 15 318 36 l3 -66 q-116 -2 -321 -18 l0 -170 q273 23 408 43 l3 -60 q-162 -7 -411 -31 l0 -165 q0 -27 11.5 -42 q11.5 -15 48.5 -23 q37 -8 145 -8 q108 0 147.5 12 q39.5 12 55.5 40 q16 28 26 93 q24 -29 68 -36 q-28 -85 -54 -117 q-26 -32 -80 -41.5 q-54 -9.5 -176 -9.5 q-122 0 -173 8.5 q-51 8.5 -67 28.5 q-16 20 -16 62 l0 192 q-210 -20 -343 -36 l-1 64 q141 3 344 20 l0 172 q-208 -16 -292 -29 l-3 65 q104 -2 295 12 l0 167 q-141 -14 -283 -18 q-3 31 -22 64 q56 -4 119 -4 q152 0 318.5 23 q166.5 23 231.5 47 q14 -33 42 -55 q6 -5 6 -10.5 q0 -5.5 -5.5 -8.5 q-5.5 -3 -14 -1 q-8.5 2 -39.5 2 q-31 0 -104.5 -10.5 q-73.5 -10.5 -184.5 -22.5 Z" /><glyph glyph-name="" unicode="&#x6469;" d="M569 668 q284 0 370 8 l0 -60 q-78 5 -262 5 l-470 0 q0 -290 -5 -412.5 q-5 -122.5 -23.5 -194.5 q-18.5 -72 -65.5 -164 q-28 23 -63 28 q56 83 78 184.5 q22 101.5 22 259 q0 157.5 -7 354.5 q90 -8 370 -8 q-19 37 -50 72 l57 31 q26 -45 49 -103 ZM740 524 q93 0 159 6 l0 -51 q-58 4 -147 6 q94 -84 186 -113 q-24 -14 -36 -49 q-87 45 -162 128 l0 -64 q0 -47 6 -80 l-62 0 q7 40 7 80 l0 46 q-38 -56 -116 -119 q-19 29 -45 41 q101 50 153 130 q-51 -1 -102 -6 l0 51 q56 -5 110 -6 q0 50 -7 83 q32 -3 54 -3 q22 0 22 -6 q0 -6 -10 -12 q-10 -6 -10 -29 l0 -33 ZM402 486 q-102 0 -147 -6 l0 51 q66 -6 150 -6 q0 50 -7 80 q31 -3 53 -3 q22 0 22 -6 q0 -6 -10 -12 q-10 -6 -10 -29 l0 -30 q72 1 100 6 l0 -51 q-32 6 -92 6 q59 -39 101 -76 l-41 -36 q-30 45 -68 77 l0 -74 q0 -44 4 -80 l-57 0 q5 36 5 80 l0 58 q-47 -65 -133 -139 q-18 30 -45 42 q103 51 175 148 ZM569 228 q-182 -15 -272 -14 q2 12 2 27.5 q0 15.5 -11 28.5 q37 -6 117 -6 q80 0 226.5 13.5 q146.5 13.5 198.5 36.5 q15 -33 37 -55 q6 -6 6 -11 q0 -10 -12 -6.5 q-12 3.5 -54 3.5 q-42 0 -181 -12 l0 -66 q163 0 276 8 l0 -56 q-113 8 -276 8 l0 -61 q210 0 336 9 l0 -61 q-126 9 -336 9 l0 -95 q0 -31 -11.5 -47.5 q-11.5 -16.5 -49 -24.5 q-37.5 -8 -114.5 -9 q2 38 -28 72 q66 -9 97 -9 q31 0 40 9 q9 9 9 33 l0 71 q-209 0 -337 -9 l0 61 q128 -9 337 -9 l0 61 q-172 0 -288 -8 l0 56 q116 -8 288 -8 l0 61 Z" /><glyph glyph-name="" unicode="&#x76ee;" d="M768 -51 l-518 0 l0 -102 l-70 0 q8 64 8 153 l0 561 q0 80 -8 121 q105 -11 311.5 -11 q206.5 0 346.5 11 q-8 -59 -8 -121 l0 -544 q0 -88 8 -153 l-70 0 l0 85 ZM250 443 l518 0 l0 178 l-518 0 l0 -178 ZM768 393 l-518 0 l0 -172 l518 0 l0 172 ZM768 171 l-518 0 l0 -174 l518 0 l0 174 Z" /><glyph glyph-name="" unicode="&#x80fd;" d="M454 467 l-254 -15 q-83 -5 -120 -17 q-6 36 -16 63 q50 24 111.5 99.5 q61.5 75.5 96.5 161.5 q34 -23 53.5 -29 q19.5 -6 19.5 -19.5 q0 -13.5 -13.5 -17.5 q-13.5 -4 -46.5 -39.5 q-33 -35.5 -127 -158.5 l273 10 q-34 54 -86 107 l47 29 q90 -108 146 -211 l-49 -34 q-23 51 -35 71 ZM624 583 q155 61 217 117 q17 -29 41 -48 q11 -8 11 -15.5 q0 -7.5 -23 -8.5 q-23 -1 -59 -15 l-187 -80 l0 -76 q0 -29 23 -39 q23 -10 86.5 -10 q63.5 0 86 23.5 q22.5 23.5 27.5 86.5 q29 -30 65 -40 q-15 -55 -33 -79.5 q-18 -24.5 -54.5 -33 q-36.5 -8.5 -109.5 -8.5 q-73 0 -101 7 q-28 7 -37 29.5 q-9 22.5 -9 77.5 l0 91 q0 121 -5 169 q16 -4 29 -5.5 q13 -1.5 26 -1.5 l22 1 q10 0 10 -4.5 q0 -4.5 -9 -15.5 q-16 -18 -17 -122 ZM177 59 l0 -201 l-66 0 q10 101 10 171 l0 251 q0 67 -8 99 q85 -9 177 -9 q92 0 183 9 q-8 -32 -8 -99 l0 -332 q0 -40 -10 -56 q-10 -16 -38 -20.5 q-28 -4.5 -98 -4.5 q-1 34 -22 67 q37 -7 61.5 -7 q24.5 0 36.5 10.5 q12 10.5 12 37.5 l0 84 l-230 0 ZM177 233 l230 0 l0 90 l-230 0 l0 -90 ZM407 191 l-230 0 l0 -89 l230 0 l0 89 ZM627 128 q142 56 214 123 q21 -29 37.5 -44 q16.5 -15 16.5 -24 q0 -14 -23 -14 q-18 0 -67.5 -18 q-49.5 -18 -177.5 -71 l0 -109 q0 -20 6 -30 q6 -10 25.5 -14.5 q19.5 -4.5 74.5 -4.5 q55 0 85 6.5 q30 6.5 43.5 27 q13.5 20.5 24.5 69.5 q26 -29 57 -36 q-20 -75 -57 -99.5 q-37 -24.5 -174 -24.5 q-90 0 -116 20 q-26 20 -26 94 l0 199 q0 125 -5 139 q22 -6 41 -6 q47 0 47 -4.5 q0 -4.5 -9 -15.5 q-17 -19 -17 -93 l0 -70 Z" /><glyph glyph-name="" unicode="&#x6696;" d="M873 729 q23 -34 52 -53 q10 -6 10 -14 q0 -12 -18.5 -8 q-18.5 4 -40 4 q-21.5 0 -85.5 -9 q-176 -25 -377 -40 q-3 36 -45 65 q52 -6 115 -6 q63 0 203.5 14.5 q140.5 14.5 185.5 46.5 ZM145 79 l0 -100 l-68 0 q8 59 8 137 l0 466 q0 61 -4 96 q63 -5 132 -5 q69 0 133 5 q-8 -48 -8 -96 l0 -434 q0 -77 8 -135 l-65 0 l0 66 l-136 0 ZM145 396 l136 0 l0 230 l-136 0 l0 -230 ZM281 348 l-136 0 l0 -222 l136 0 l0 222 ZM678 -47 q-73 -56 -227 -119 q-10 34 -57 55 q151 38 243 96 q-57 50 -104 127 q-43 -93 -193 -240 q-23 30 -77 34 q105 70 175.5 164 q70.5 94 90.5 191 q-93 0 -160 -8 l0 62 q57 -8 169 -8 q8 53 10 85 q-89 -1 -150 -9 l0 63 q66 -9 183 -9 l124 0 q77 93 110 200 q37 -24 66 -32 q11 -3 11 -11.5 q0 -8.5 -14.5 -16.5 q-14.5 -8 -36.5 -34 q-22 -26 -80 -106 q97 1 159 9 l0 -63 q-63 9 -187 9 l-128 0 q-11 -83 -11 -85 l172 0 q120 0 186 8 l0 -62 q-65 8 -186 8 l-181 0 q-9 -36 -20 -65 l89 0 q146 0 199 5 q-52 -139 -133 -214 q80 -45 234 -76 q-36 -28 -48 -64 q-147 49 -228 106 ZM677 15 q73 59 99 139 l-213 0 q50 -90 114 -139 ZM697 492 l-49 -20 q-21 52 -64 107 l44 29 q46 -54 69 -116 ZM531 486 l-45 -29 q-26 58 -74 105 l40 30 q39 -40 79 -106 Z" /><glyph glyph-name="" unicode="&#x724c;" d="M561 637 q32 66 42 121 q34 -18 58.5 -20.5 q24.5 -2.5 24.5 -9.5 q0 -7 -12 -14 q-23 -15 -59 -78 q237 0 288 10 q-7 -27 -7 -104 l0 -213 q0 -67 7 -100 q-55 4 -143 6 l0 -140 q157 0 211 5 l0 -58 q-58 6 -211 6 l0 -46 q0 -98 8 -159 l-72 0 q8 65 8 159 l0 46 l-151 0 q-117 0 -182 -6 l0 58 q33 -3 100 -5 q65 74 100 140 q-85 -1 -138 -6 q8 48 8 101 l0 212 q0 67 -8 104 q37 -8 128 -9 ZM635 456 q5 41 5 76 q0 35 -1 59 l-144 0 l0 -135 l140 0 ZM695 591 q0 -74 -6 -135 l150 0 l0 135 l-144 0 ZM593 282 q26 60 36 130 l-134 0 l0 -130 l98 0 ZM683 412 q-12 -72 -35 -130 l191 0 l0 130 l-156 0 ZM628 236 q-31 -66 -89 -141 l165 0 l0 141 l-76 0 ZM176 387 q0 -56 -2 -134 l101 0 q45 0 73 4 q-4 -18 -4 -65 l0 -220 q0 -66 4 -117 l-65 0 q6 56 6 117 l0 236 l-117 0 q-7 -209 -63 -345 q-26 23 -71 26 q53 91 68.5 206 q15.5 115 15.5 339.5 q0 224.5 -11 295.5 q34 -10 79 -10 q11 0 11 -7.5 q0 -7.5 -12 -18 q-12 -10.5 -13 -258.5 l108 0 l0 175 q0 80 -10 116 q38 -10 80 -10 q12 0 12 -6.5 q0 -6.5 -7 -10.5 q-19 -11 -19 -35 l0 -229 q56 2 74 5 l0 -59 q-33 5 -117 5 l-121 0 Z" /><glyph glyph-name="" unicode="&#x4f69;" d="M166 444 q-48 -84 -92 -144 q-16 28 -45 45 q64 73 128 194.5 q64 121.5 89 217.5 q32 -16 56.5 -19.5 q24.5 -3.5 24.5 -11 q0 -7.5 -16.5 -14 q-16.5 -6.5 -37.5 -51.5 l-51 -109 l0 -706 l-67 0 q11 104 11 195 l0 403 ZM978 -23 q-5 -60 -20.5 -90.5 q-15.5 -30.5 -38.5 -30.5 q-33 0 -75.5 71 q-42.5 71 -42.5 386 q0 135 8 313 l-434 0 q2 -113 2 -260 q0 -147 -5.5 -229 q-5.5 -82 -24 -148.5 q-18.5 -66.5 -52.5 -120.5 q-27 21 -61 24 q37 48 56 102 q19 54 26.5 128 q7.5 74 7.5 268 q0 194 -12 292 q96 -9 279.5 -9 q183.5 0 288.5 9 q-10 -19 -19 -174 q-9 -155 -9 -260 q0 -105 10 -176 q10 -71 26 -105.5 q16 -34.5 25 -34.5 q13 0 14 80 q19 -29 51 -35 ZM567 488 q-97 0 -158 -8 l0 56 q58 -8 183.5 -8 q125.5 0 180.5 8 l0 -56 q-48 8 -153 8 l0 -128 q111 0 139 5 q-3 -50 -3 -85 l0 -203 q0 -52 -27.5 -67.5 q-27.5 -15.5 -70.5 -17.5 q-3 34 -25 60 q21 -4 38 -4 q17 0 25.5 10 q8.5 10 8.5 34 l0 224 l-85 0 l0 -272 q0 -88 10 -172 l-73 0 q10 85 10 172 l0 272 l-82 0 l0 -314 l-57 0 q6 69 6 122 l0 156 q0 51 -6 86 q43 -6 139 -6 l0 128 Z" /><glyph glyph-name="" unicode="&#x76c6;" d="M405 479 q-109 0 -161 -5 l0 33 q-65 -55 -157 -112 q-15 29 -56 53 q229 98 324 281 q29 -34 52.5 -41.5 q23.5 -7.5 23.5 -14.5 q0 -7 -16 -11 q-26 -6 -80 -66 q-31 -36 -67 -67 q41 -4 219 -4 q178 0 240 4 q-80 71 -150 185 l53 26 q111 -208 338 -273 q-35 -23 -56 -67 q-94 54 -155 104 l-18 -141 q-5 -44 -21.5 -65.5 q-16.5 -21.5 -55 -31.5 q-38.5 -10 -120.5 -17 q3 39 -26 77 q71 -8 100.5 -8 q29.5 0 44 7.5 q14.5 7.5 19.5 40.5 l16 113 l-230 0 q-21 -105 -80.5 -155.5 q-59.5 -50.5 -203.5 -90.5 q-11 34 -47 60 q137 26 197 64.5 q60 38.5 73 121.5 ZM179 -54 l0 164 q0 68 -6 102 q122 -5 349.5 -5 q227.5 0 313.5 5 q-7 -26 -7 -102 l0 -164 q76 0 133 9 l0 -69 q-77 10 -468.5 10 q-391.5 0 -452.5 -10 l0 69 q59 -9 138 -9 ZM570 157 l-136 0 l0 -211 l136 0 l0 211 ZM767 -54 l0 211 l-139 0 l0 -211 l139 0 ZM376 157 l-137 0 l0 -211 l137 0 l0 211 Z" /><glyph glyph-name="" unicode="&#x81a8;" d="M538 640 q84 1 147 8 l0 -58 q-63 7 -147 8 l0 -95 q71 0 115 9 l0 -58 q-44 9 -147 9 q-103 0 -145 -9 l0 58 q44 -9 121 -9 l0 95 q-84 -1 -147 -8 l0 58 q63 -7 147 -8 q-2 79 -5 105 q38 -7 61 -7 q23 0 23 -5.5 q0 -5.5 -7 -8 q-7 -2.5 -11.5 -12 q-4.5 -9.5 -4.5 -19.5 l0 -53 ZM844 732 q27 -27 64 -39 q9 -3 9 -10.5 q0 -7.5 -13 -12 q-13 -4.5 -42 -51.5 q-63 -100 -150 -209 q-23 29 -55 38 q57 39 111.5 123 q54.5 84 75.5 161 ZM139 235 q-1 -150 -12.5 -229 q-11.5 -79 -34.5 -145 q-25 13 -65 20 q30 43 43 146.5 q13 103.5 13 316.5 l0 239 q0 87 -3 126 q49 -4 114 -4 q65 0 112 4 q-2 -39 -2 -126 l0 -617 q0 -54 -29.5 -69.5 q-29.5 -15.5 -96.5 -15.5 q-4 32 -23 63 q30 -5 51.5 -5 q21.5 0 31.5 13 q10 13 10 50 l0 233 l-109 0 ZM139 490 l109 0 l0 166 l-109 0 l0 -166 ZM248 441 l-109 0 l0 -157 l109 0 l0 157 ZM864 484 q31 -28 59 -43 q10 -5 10 -11.5 q0 -6.5 -14 -10.5 q-22 -6 -47 -42 q-92 -138 -163 -208 q-23 28 -53 35 q69 50 126 127 q57 77 82 153 ZM643 407 q-6 -44 -6 -96.5 q0 -52.5 5 -95.5 q-60 4 -141.5 4 q-81.5 0 -143.5 -4 q7 39 7 93 q0 54 -7 99 q55 -7 143.5 -7 q88.5 0 142.5 7 ZM583 261 l0 97 l-167 0 l0 -97 l167 0 ZM873 219 q35 -35 52 -44 q17 -9 17 -16.5 q0 -7.5 -14 -11 q-14 -3.5 -28.5 -18 q-14.5 -14.5 -35.5 -41.5 q-81 -110 -246 -245 q-16 33 -56 46 q106 56 188.5 143.5 q82.5 87.5 122.5 186.5 ZM562 24 q24 6 95 26 q-5 -14 -5 -26.5 q0 -12.5 4 -29.5 q-261 -46 -312 -73 q-1 34 -27 68 q117 10 189 23 q54 109 63 178 q33 -21 54 -25.5 q21 -4.5 21 -11.5 q0 -7 -13 -13 q-23 -12 -69 -116 ZM477 42 l-49 -18 q-19 65 -58 129 l47 24 q32 -56 60 -135 Z" /><glyph glyph-name="" unicode="&#x54c1;" d="M740 692 q-6 -29 -6 -74 l0 -162 q0 -34 6 -75 q-62 11 -227 11 q-165 0 -255 -12 q7 36 7 76 l0 162 q0 47 -7 74 q64 -11 240 -11 q176 0 242 11 ZM329 628 l0 -184 l342 0 l0 184 l-342 0 ZM177 -37 l0 -88 l-67 0 q8 57 8 116 l0 198 q0 66 -8 101 q70 -10 176.5 -10 q106.5 0 173.5 10 q-8 -44 -8 -103 l0 -195 q0 -62 7 -105 l-68 0 l0 76 l-214 0 ZM391 15 l0 214 l-214 0 l0 -214 l214 0 ZM613 -41 l0 -79 l-64 0 q7 56 7 116 l0 191 q0 48 -7 100 q62 -9 173 -9 q111 0 179 10 q-7 -47 -7 -100 l0 -190 q0 -50 6 -105 l-66 0 l0 66 l-221 0 ZM834 11 l0 217 l-221 0 l0 -217 l221 0 Z" /><glyph glyph-name="" unicode="&#x65d7;" d="M305 640 l-47 -33 q-44 61 -102 118 l42 39 q66 -66 107 -124 ZM518 606 q-31 -63 -81 -134 q-24 14 -52 22 q50 57 78.5 114.5 q28.5 57.5 53.5 149.5 q41 -13 56.5 -16.5 q15.5 -3.5 15.5 -12 q0 -8.5 -8 -11 q-8 -2.5 -15.5 -13.5 q-7.5 -11 -26.5 -51 l295 0 q75 0 108 10 l0 -65 q-27 7 -104 7 l-320 0 ZM214 390 q134 1 167 8 l-15 -333 q-4 -62 -15 -88 q-11 -26 -41.5 -36 q-30.5 -10 -101.5 -13 q-2 41 -22 67 q34 -5 63.5 -5 q29.5 0 44.5 17 q15 17 17 63 l12 277 l-111 0 q-15 -312 -94 -466 q-32 21 -70 18 q32 40 53 96.5 q21 56.5 35 144.5 q14 88 18.5 158 q4.5 70 4.5 230 q-64 0 -103 -6 l0 60 q49 -7 163 -7 q114 0 179 7 l0 -60 q-74 7 -181 7 l-3 -139 ZM836 468 q56 2 91 5 l0 -56 l-91 4 l0 -312 l112 6 l0 -57 q-84 7 -278 7 q-194 0 -255 -7 l0 57 l117 -6 l0 312 q-50 -2 -85 -4 l0 56 q65 -5 85 -5 q-2 68 -6 88 q18 -1 36 -1 l33 1 q10 0 10 -4.5 q0 -4.5 -8 -10 q-8 -5.5 -8 -39.5 l0 -35 l189 0 q0 51 -6 90 q21 -6 73 -6 q7 0 7 -3 q0 -3 -8 -10 q-8 -7 -8 -40 l0 -30 ZM778 423 l-189 0 l0 -75 l189 0 l0 75 ZM778 224 l0 79 l-189 0 l0 -79 l189 0 ZM778 107 l0 73 l-189 0 l0 -73 l189 0 ZM567 46 q25 -27 51 -34 q7 -2 7 -10 q0 -12 -7 -12 q-18 0 -49 -30 q-67 -64 -145 -108 q-15 24 -52 41 q146 70 195 153 ZM938 -88 l-41 -50 q-87 90 -159 142 l32 39 q81 -56 168 -131 Z" /><glyph glyph-name="" unicode="&#x5668;" d="M432 434 q-76 6 -162 6 q-86 0 -145 -5 q5 117 5 172.5 q0 55.5 -5 92.5 q54 -6 144 -6 q90 0 163 6 q-5 -39 -5 -81 q0 -42 2 -105.5 q2 -63.5 3 -79.5 ZM370 485 l0 166 l-183 0 l0 -166 l183 0 ZM858 439 q-58 6 -161 6 q-103 0 -149 -5 q5 73 5 145.5 q0 72.5 -5 114.5 q44 -5 156 -5 q112 0 154 5 q-5 -49 -5 -130.5 q0 -81.5 5 -130.5 ZM795 490 l0 161 l-184 0 l0 -161 l184 0 ZM202 -124 l0 -40 l-68 0 q8 46 8 108 l0 89 q0 27 -2 70 q-65 -18 -70 -19 q-12 32 -46 55 q281 55 358 151 q-185 -1 -316 -10 l0 66 q113 -8 351 -10 q28 49 34 121 q35 -9 73 -16 q10 -2 10 -6.5 q0 -4.5 -8 -10.5 q-22 -16 -49 -88 l245 0 q-54 44 -100 66 l29 38 q61 -26 116 -70 l-28 -32 q121 0 183 8 l0 -66 q-124 8 -330 10 q78 -59 177.5 -91.5 q99.5 -32.5 201.5 -31.5 q-25 -23 -41 -66 l-72 16 q-6 -35 -6 -78 l0 -80 q0 -56 8 -111 l-67 0 l0 28 l-188 0 l0 -39 l-67 0 q8 46 8 108 l0 94 q0 61 -4 96 q69 -5 131 -5 q62 0 126 2 q-155 42 -280 158 l-66 0 q-61 -96 -247 -165 l87 -1 q88 0 156 5 q-8 -35 -8 -96 l0 -78 q0 -65 7 -111 l-64 0 l0 32 l-182 0 ZM793 -77 l0 164 l-188 0 l0 -164 l188 0 ZM384 -77 l0 158 l-182 0 l0 -158 l182 0 Z" /><glyph glyph-name="" unicode="&#x9752;" d="M470 609 q-211 0 -326 -11 l0 68 q113 -11 326 -11 q0 50 -8 103 q24 -6 47 -6 l30 1 q12 0 12 -6.5 q0 -6.5 -7 -11.5 q-14 -12 -14 -39 l0 -41 q211 0 326 11 l0 -68 q-114 11 -326 11 l0 -71 q199 0 275 8 l0 -60 q-76 8 -275 8 l0 -72 q276 0 402 10 l0 -64 q-132 10 -430 10 q-298 0 -436 -10 l0 64 q132 -10 404 -10 l0 72 q-165 0 -265 -8 l0 60 q101 -8 265 -8 l0 71 ZM266 14 l0 -173 l-71 0 q11 65 11 139 l0 223 q0 69 -8 114 q151 -7 302 -7 q151 0 300 7 q-5 -70 -5 -115 l0 -271 q0 -52 -42 -68.5 q-42 -16.5 -119 -16.5 q2 36 -26 67 q37 -5 65.5 -5 q28.5 0 44 9.5 q15.5 9.5 15.5 37.5 l0 59 l-467 0 ZM733 184 l0 80 l-467 0 l0 -80 l467 0 ZM733 61 l0 76 l-467 0 l0 -76 l467 0 Z" /><glyph glyph-name="" unicode="&#x533a;" d="M904 -111 q-55 11 -387 11 q-332 0 -386 -11 q5 79 5 161 l0 468 q0 97 -5 162 q54 -10 375 -10 q321 0 363 10 l0 -73 q-72 11 -355 11 l-318 0 l0 -667 l361 0 q273 0 347 11 l0 -73 ZM556 324 q125 140 185 261 q30 -31 59 -41 q12 -5 12 -10 q0 -5 -19.5 -14 q-19.5 -9 -59.5 -63 q-72 -97 -140 -172 l219 -232 l-51 -43 q-109 129 -206 233 q-119 -126 -262 -232 q-7 34 -50 54 q135 76 274 218 q-121 128 -232 230 l41 35 q143 -136 230 -224 Z" /><glyph glyph-name="" unicode="&#x72ac;" d="M451 402 q-253 0 -359 -7 l0 65 q124 -8 367 -8 q8 71 8 145 q0 74 -8 144 q37 -6 76 -7 q21 -1 21 -17 q0 -7 -6.5 -12.5 q-6.5 -5.5 -10 -24 q-3.5 -18.5 -10.5 -84.5 l-15 -144 q260 0 402 8 l0 -65 q-101 7 -389 7 q55 -136 169.5 -260 q114.5 -124 245.5 -192 q-28 -29 -48 -68 q-300 217 -395 475 q-25 -100 -65.5 -175.5 q-40.5 -75.5 -146 -172 q-105.5 -96.5 -183.5 -141.5 q-18 29 -59 51 q141 65 259 185.5 q118 120.5 147 297.5 ZM823 551 l-41 -45 q-77 85 -159 140 l35 43 q94 -71 165 -138 Z" /><glyph glyph-name="" unicode="&#x5982;" d="M375 135 q82 -52 141 -99 q-25 -16 -43 -51 q-59 56 -128 104 q-97 -133 -234 -229 q-10 32 -53 53 q156 90 238 209 q-68 45 -176 107 q56 118 92 291 q-106 -1 -149 -8 l0 64 q45 -8 159 -8 q25 125 26 197 l73 -24 q19 -6 19 -15 q0 -9 -11.5 -17 q-11.5 -8 -21 -34.5 q-9.5 -26.5 -26.5 -106.5 q167 0 207 8 q-17 -163 -42 -262.5 q-25 -99.5 -71 -178.5 ZM271 520 q-26 -114 -77 -274 q75 -44 130 -79 q77 138 97 353 l-150 0 ZM629 25 l0 -108 l-68 0 q8 59 8 137 l0 485 q0 61 -4 96 q70 -5 169.5 -5 q99.5 0 169.5 5 q-6 -41 -6 -96 l0 -471 q0 -65 8 -135 l-67 0 l0 92 l-210 0 ZM839 77 l0 502 l-210 0 l0 -502 l210 0 Z" /><glyph glyph-name="" unicode="&#x5165;" d="M468 578 q-12 36 -27.5 60.5 q-15.5 24.5 -41.5 42.5 q-14 9 -14 20 q0 11 21.5 12.5 q21.5 1.5 70.5 10.5 l59 -187 q38 -122 79 -209.5 q41 -87.5 89 -157 q48 -69.5 105.5 -124 q57.5 -54.5 125.5 -94.5 q-29 -24 -50 -58 q-247 178 -387 591 q-68 -328 -375 -600 q-20 34 -58 53 q152 97 261.5 269 q109.5 172 141.5 371 Z" /><glyph glyph-name="" unicode="&#x8f6f;" d="M169 577 q-79 0 -120 -8 l0 64 q46 -8 133 -8 q21 79 26 142 q41 -22 79 -22 q16 0 16 -11 q0 -8 -11 -12 q-11 -4 -21 -22 q-10 -18 -30 -75 q152 0 212 8 l0 -64 q-40 8 -229 8 l-86 -243 l120 0 q0 156 -8 183 q34 -7 58 -6 l18 1 q10 0 10 -6 q0 -6 -11 -12 q-11 -6 -11 -34 l0 -126 q95 1 129 10 l0 -68 q-42 9 -129 9 l0 -131 q86 20 142 40 q-1 -9 -1 -23.5 q0 -14.5 5 -38.5 q-40 -7 -146 -31 q0 -160 8 -248 l-72 0 q8 92 8 234 q-121 -29 -197 -55 q-2 40 -20 71 q96 11 217 38 l0 145 q-149 -1 -187 -20 q-6 36 -25 62 q33 12 62 72.5 q29 60.5 61 176.5 ZM588 589 l203 0 q66 0 130 8 l-75 -215 l-59 17 l52 140 l-265 0 q-15 -58 -74 -191 q-29 26 -65 30 q99 128 129 377 q46 -19 65.5 -20 q19.5 -1 19.5 -6.5 q0 -5.5 -11 -14.5 q-16 -14 -50 -125 ZM685 322 q57 -260 264 -397 q-34 -17 -59 -55 q-96 97 -147.5 175 q-51.5 78 -74.5 166 q-22 -111 -77.5 -193 q-55.5 -82 -158.5 -153 q-8 31 -57 48 q120 58 189 176.5 q69 118.5 69 281.5 q0 34 -4 65 q37 -11 76 -11 q10 0 10 -5.5 q0 -5.5 -9 -14.5 q-9 -9 -21 -83 Z" /><glyph glyph-name="" unicode="&#x6da6;" d="M513 627 l-51 -32 q-37 74 -107 133 l45 38 q69 -70 113 -139 ZM305 617 l-40 -46 q-46 60 -154 134 l36 43 q84 -56 158 -131 ZM904 689 q-7 -25 -7 -187 l0 -552 q0 -33 -12 -52 q-12 -19 -50 -29 q-38 -10 -115 -10 q0 45 -33 71 q53 -7 85 -7 q32 0 47.5 10 q15.5 10 15.5 46 l0 654 l-140 0 q-94 0 -145 -4 l0 60 q82 -6 180.5 -6 q98.5 0 173.5 6 ZM322 593 q36 -10 80 -10 q16 0 16 -6 q0 -6 -10.5 -12.5 q-10.5 -6.5 -13.5 -23 q-3 -16.5 -3 -56.5 l0 -445 q0 -89 10 -189 l-79 0 q9 94 9 189 l0 393 q0 114 -9 160 ZM253 405 l-40 -46 q-82 83 -157 124 l38 46 q80 -52 159 -124 ZM584 467 q-77 0 -133 -7 l0 57 q52 -7 162.5 -7 q110.5 0 158.5 7 l0 -57 q-44 7 -135 7 l0 -150 q80 0 116 7 l0 -59 q-36 7 -116 7 l0 -176 q96 0 144 8 l0 -60 q-49 8 -168.5 8 q-119.5 0 -171.5 -8 l0 60 q59 -8 143 -8 l0 176 q-81 0 -118 -7 l0 59 q37 -7 118 -7 l0 150 ZM282 240 q-89 -179 -167 -370 q-28 26 -71 40 q87 97 180 373 q24 -30 58 -43 Z" /><glyph glyph-name="" unicode="&#x8272;" d="M185 443 q-19 -20 -78 -77 q-24 32 -61 43 q197 130 308 362 q26 -24 58 -35 q17 -6 17 -14 q0 -8 -19.5 -15 q-19.5 -7 -64.5 -72 l251 0 q92 0 180 9 l-184 -205 q203 0 245 7 q-2 -97 -2 -162 q0 -65 4 -137 q-36 5 -195 5 l-391 0 l0 -149 q0 -37 19 -51 q19 -14 84.5 -19 q65.5 -5 175 -5 q109.5 0 191 5.5 q81.5 5.5 111 16.5 q29.5 11 43.5 38 q14 27 20 84 q25 -31 65 -35 q-20 -75 -39.5 -105.5 q-19.5 -30.5 -56.5 -40.5 q-37 -10 -121 -13 q-84 -3 -222 -3 q-138 0 -196 3.5 q-58 3.5 -87.5 14 q-29.5 10.5 -39 30.5 q-9.5 20 -9.5 61 l0 337 q0 47 -6 122 ZM310 585 q-43 -61 -122 -139 q38 -7 330 -7 l130 146 l-338 0 ZM552 200 l219 0 l0 190 l-219 0 l0 -190 ZM489 390 l-236 0 l0 -190 l236 0 l0 190 Z" /><glyph glyph-name="" unicode="&#x7802;" d="M630 747 q40 -5 63 -5 q23 0 23 -5.5 q0 -5.5 -10.5 -12 q-10.5 -6.5 -10.5 -36.5 l0 -463 q0 -42 5 -101 l-68 0 q4 45 4 101 l0 399 q0 96 -6 123 ZM193 618 q-106 0 -135 -6 l0 64 q56 -7 192.5 -7 q136.5 0 187.5 7 l0 -64 q-34 7 -183 7 q-19 -102 -46 -198 l99 0 l81 1 q-5 -27 -5 -65 l0 -304 q0 -24 2 -86 l-59 0 l0 79 l-130 0 l0 -111 l-61 0 q5 56 5 106 l0 206 q-29 -66 -60 -118 q-24 25 -56 34 q119 146 168 455 ZM327 94 l0 280 l-130 0 l0 -280 l130 0 ZM951 336 l-49 -36 q-84 149 -165 265 l41 33 q105 -146 173 -262 ZM512 590 q23 -15 49 -18.5 q26 -3.5 26 -11 q0 -7.5 -10 -15.5 q-17 -14 -33 -74 q-24 -97 -75 -242 q-21 18 -60 31 q84 144 103 330 ZM839 250 q37 -32 66 -42 q10 -4 10 -11 q0 -7 -13 -12.5 q-13 -5.5 -27 -23 q-14 -17.5 -45 -64.5 q-56 -85 -162.5 -142.5 q-106.5 -57.5 -276.5 -108.5 q-6 34 -39 67 q102 12 210.5 52 q108.5 40 184.5 122 q76 82 92 163 Z" /><glyph glyph-name="" unicode="&#x5c71;" d="M542 -14 l262 6 l0 431 q0 64 -9 108 q47 -7 71.5 -7 q24.5 0 24.5 -5 q0 -5 -11 -13.5 q-11 -8.5 -11 -33.5 l0 -529 q0 -53 6 -93 l-74 0 q3 40 3 91 l-356 -14 q-183 -7 -325 -23 q16 86 16 344 q0 258 -5 288 q43 -9 82 -10 q17 -1 17 -10.5 q0 -9.5 -20 -23.5 q-10 -7 -10 -36 l0 -478 l275 6 l0 643 q0 101 -12 131 q35 -6 85 -8 q12 0 12 -7 q0 -7 -10.5 -14 q-10.5 -7 -10.5 -24 l0 -719 Z" /><glyph glyph-name="" unicode="&#x8bbe;" d="M335 570 l-51 -38 q-57 86 -155 170 l45 41 q98 -87 161 -173 ZM961 431 q-15 -29 -12 -63 q-108 -3 -150.5 3.5 q-42.5 6.5 -55.5 30 q-13 23.5 -13 87.5 l0 148 l-204 0 q0 -136 -30 -196 q-30 -60 -103 -111 q-20 29 -62 37 q75 45 99.5 77.5 q24.5 32.5 33 79.5 q8.5 47 8.5 84 q0 37 -13 84 q78 -5 169.5 -5 q91.5 0 168.5 5 q-6 -44 -6 -136 q0 -92 3 -105 q3 -13 23 -20 q20 -7 62 -7 q42 0 82 7 ZM252 328 l0 -332 q70 61 131 146 q16 -32 40 -49 l-146 -158 q-40 -43 -61 -70 q-18 23 -48 44 q11 15 17.5 35.5 q6.5 20.5 6.5 66.5 l0 380 q-88 0 -148 -12 l0 69 q28 -5 104 -5 q76 0 120 5 q-16 -39 -16 -120 ZM639 -18 q-114 -91 -284 -145 q-10 37 -50 60 q169 33 292 123 q-93 93 -139 230 q-36 0 -64 -4 l0 60 q95 -6 234.5 -6 q139.5 0 231.5 6 q-54 -164 -177 -286 q100 -81 258 -110 q-33 -25 -42 -65 q-148 45 -260 137 ZM641 56 q91 85 134 197 l-265 0 q39 -116 131 -197 Z" /><glyph glyph-name="" unicode="&#x6e7f;" d="M278 621 l-46 -43 q-84 80 -157 127 l40 41 q143 -106 163 -125 ZM489 -81 l0 414 q-90 -1 -157 -9 q7 75 7 192.5 q0 117.5 -7 189.5 q86 -9 272 -9 q186 0 268 9 q-8 -43 -8 -227 q0 -98 8 -157 q-72 10 -164 11 l0 -414 q205 0 247 9 l0 -65 q-35 9 -325.5 9 q-290.5 0 -368.5 -9 l0 65 q106 -9 228 -9 ZM805 539 l0 113 l-408 0 l0 -113 l408 0 ZM397 494 l0 -115 l408 0 l0 115 l-408 0 ZM547 333 l0 -414 l102 0 l0 414 l-102 0 ZM242 382 l-42 -48 q-54 58 -155 117 l37 42 q86 -47 160 -111 ZM841 274 q42 -27 77 -39 q7 -3 7 -10 q0 -7 -17.5 -15.5 q-17.5 -8.5 -40 -44 q-22.5 -35.5 -81.5 -154.5 l-59 28 q89 111 114 235 ZM232 211 l-108 -358 q-33 19 -74 26 q47 76 83 201 q36 125 44 186 q22 -38 55 -55 ZM454 33 l-60 -23 q-23 107 -86 208 l54 21 q55 -97 92 -206 Z" /><glyph glyph-name="" unicode="&#x5f0f;" d="M599 554 q-3 181 -12 214 q42 -11 69 -11 q27 0 27 -6.5 q0 -6.5 -8.5 -14.5 q-8.5 -8 -13 -58 q-4.5 -50 -4.5 -124 q189 0 280 12 l0 -70 q-83 7 -280 7 q4 -253 48.5 -367.5 q44.5 -114.5 94.5 -156 q50 -41.5 71 -41.5 q14 0 20 22.5 q6 22.5 9 69.5 q29 -30 65 -36 q-15 -69 -35 -102.5 q-20 -33.5 -49 -33.5 q-38 0 -108 61 q-70 61 -118.5 183 q-48.5 122 -54.5 401 l-206 0 q-275 0 -309 -6 l0 69 q73 -12 306 -12 l208 0 ZM873 612 l-52 -35 q-39 72 -98 129 l43 37 q65 -71 107 -131 ZM389 23 q93 23 197 62 q-3 -15 -3 -30.5 q0 -15.5 4 -36.5 q-246 -59 -443 -121 q-6 41 -30 79 q113 11 216 33 l0 320 q-107 0 -179 -10 l0 68 q68 -10 200 -10 q132 0 199 10 l0 -68 q-58 9 -161 10 l0 -306 Z" /><glyph glyph-name="" unicode="&#x9002;" d="M576 626 l-210 -26 q-5 30 -30 65 q19 -1 41 -1 q109 0 249.5 21 q140.5 21 188.5 56 q50 -67 50 -82 q0 -9 -7 -9 q-7 0 -18.5 2.5 q-11.5 2.5 -31 2.5 q-19.5 0 -68.5 -7 q-49 -7 -104 -14 l0 -141 q186 0 276 8 l0 -65 q-93 9 -276 9 l0 -126 q136 0 197 9 q-7 -37 -7 -90 l0 -131 q0 -61 7 -123 l-69 0 l0 66 l-309 0 l0 -68 l-69 0 q8 51 8 123 l0 133 q0 55 -6 90 q57 -9 188 -9 l0 126 q-182 0 -268 -8 l0 64 q99 -8 268 -8 l0 133 ZM764 98 l0 175 l-309 0 l0 -175 l309 0 ZM281 555 l-51 -42 q-73 104 -139 161 l47 35 q74 -64 143 -154 ZM191 5 l0 332 q-109 0 -144 -4 l0 60 q49 -7 105.5 -7 q56.5 0 106.5 7 q-8 -32 -8 -119 l0 -269 q23 -6 75 -39 q75 -47 287 -47 q146 0 340 24 q-13 -23 -18 -77 q-108 -2 -243.5 -2 q-135.5 0 -240 11.5 q-104.5 11.5 -147.5 39.5 q-58 37 -83 37 q-25 0 -47.5 -23 q-22.5 -23 -65.5 -88 q-28 26 -62 44 q107 113 145 120 Z" /><glyph glyph-name="" unicode="&#x9996;" d="M550 582 q92 90 135 184 q31 -20 64 -32 q13 -4 13 -10.5 q0 -6.5 -11.5 -10 q-11.5 -3.5 -36 -27 q-24.5 -23.5 -98.5 -104.5 q193 1 334 10 l0 -66 q-141 10 -428 10 l-50 -108 l134 0 q127 0 203 9 q-7 -59 -7 -145 l0 -307 q0 -71 6 -137 l-70 0 l0 72 l-476 0 l0 -81 l-67 0 q7 63 7 136 l0 317 q0 101 -6 145 q80 -8 220 -8 l43 107 q-268 -2 -396 -10 l0 66 q110 -10 487 -10 ZM262 279 l476 0 l0 104 l-476 0 l0 -104 ZM738 234 l-476 0 l0 -112 l476 0 l0 112 ZM262 76 l0 -110 l476 1 l0 109 l-476 0 ZM434 631 l-47 -39 q-53 73 -130 131 l41 41 q75 -67 136 -133 Z" /><glyph glyph-name="" unicode="&#x5b88;" d="M566 619 q250 1 339 9 l0 -184 l-66 0 l0 125 l-668 0 l0 -131 l-66 0 l0 190 q90 -9 393 -9 q-32 53 -82 96 l63 36 q49 -57 87 -132 ZM688 351 q203 0 249 6 l0 -66 q-47 6 -249 6 l0 -354 q0 -41 -14.5 -61.5 q-14.5 -20.5 -53.5 -30.5 q-39 -10 -121 -15 q-6 39 -38 81 q67 -7 100.5 -7 q33.5 0 49 8 q15.5 8 15.5 37 l0 342 l-339 0 q-173 0 -222 -6 l0 66 q49 -6 222 -6 l339 0 q0 131 -6 165 q22 -5 75 -5 q19 0 19 -9 q0 -4 -7 -9 q-19 -14 -19 -37 l0 -105 ZM440 60 l-56 -42 q-60 109 -170 203 l47 42 q104 -100 179 -203 Z" /><glyph glyph-name="" unicode="&#x6570;" d="M241 493 q-108 0 -169 -7 l0 59 q93 -7 215 -7 l0 107 q0 55 -10 104 q40 -4 64.5 -4 q24.5 0 24.5 -7 q0 -7 -8 -10 q-14 -5 -14 -36 l0 -154 q95 1 216 7 l0 -59 q-76 7 -216 7 q82 -63 158 -138 l-44 -46 q-53 66 -114 130 q2 -79 7 -134 l-71 0 q7 71 7 174 q-75 -132 -189 -225 q-14 22 -45 40 q120 87 188 199 ZM742 124 q57 114 67 364 l-163 0 q-38 -119 -87 -201 q-10 4 -28 14 q-18 10 -30 14 q53 64 91 185.5 q38 121.5 45 246.5 q41 -17 83 -17 q13 0 13 -11.5 q0 -11.5 -12.5 -19 q-12.5 -7.5 -22 -26.5 q-9.5 -19 -37.5 -134 l170 0 q83 0 123 8 l0 -66 q-30 6 -88 6 q-20 -295 -92 -416 q77 -108 193 -151 q-29 -26 -48 -62 q-99 71 -176 168 q-82 -103 -234 -189 q-17 24 -56 56 q69 20 140 69 q71 49 116 108 q-67 101 -101 257 l56 15 q4 -93 78 -218 ZM473 717 q27 -23 44 -31.5 q17 -8.5 17 -17.5 q0 -9 -11.5 -12 q-11.5 -3 -30 -22.5 q-18.5 -19.5 -60.5 -77.5 q-16 11 -46 21 q60 64 87 140 ZM238 592 l-51 -30 q-39 70 -79 117 l43 26 q49 -55 87 -113 ZM415 14 q60 -24 110 -49 q-21 -18 -40 -50 q-55 34 -112 59 q-76 -63 -256 -116 q-7 34 -35 65 q148 17 234 75 q-85 32 -169 49 q42 58 71 110 q-89 -1 -145 -8 l0 60 q54 -4 168 -6 q18 36 38 96 q33 -16 54.5 -20.5 q21.5 -4.5 21.5 -13 q0 -8.5 -14.5 -15.5 q-14.5 -7 -39.5 -47 l142 0 q50 0 79 7 q-50 -132 -107 -196 ZM276 157 l-44 -82 q65 -17 128 -41 q48 48 75 123 l-159 0 Z" /><glyph glyph-name="" unicode="&#x5237;" d="M830 758 q23 -6 42 -6.5 q19 -0.5 34.5 -0.5 q15.5 0 15.5 -8.5 q0 -8.5 -11 -14.5 q-11 -6 -11 -26 l0 -747 q0 -48 -11 -70 q-11 -22 -46.5 -30.5 q-35.5 -8.5 -116.5 -8.5 q2 40 -25 72 q58 -11 85.5 -11 q27.5 0 39.5 10 q12 10 12 44 l0 633 q0 102 -8 164 ZM587 469 q-19 5 -224 5 l-164 0 q-1 -212 -26 -343 q-25 -131 -78 -212 q-23 22 -65 27 q71 86 92 216 q21 130 21 319 q0 110 -8 224 q51 -9 223.5 -9 q172.5 0 228.5 9 q-6 -48 -6 -123 q0 -75 6 -113 ZM527 524 l0 126 l-328 0 l0 -126 l328 0 ZM667 630 q22 -8 75 -8 q11 0 11 -6.5 q0 -6.5 -10.5 -13 q-10.5 -6.5 -10.5 -26.5 l0 -298 q0 -75 7 -159 l-71 0 q7 65 7 159 l0 219 q0 92 -8 133 ZM433 274 l0 -278 q0 -86 8 -155 l-73 0 q9 79 9 155 l0 278 l-102 0 l0 -296 l-61 0 q9 81 9 157 l0 192 q56 -7 154 -7 q-1 58 -7 123 q52 -6 70.5 -6 q18.5 0 18.5 -4 q0 -4 -8 -9 q-18 -11 -18 -29 l0 -75 q121 0 165 7 l0 -265 q0 -26 -8 -40 q-8 -14 -33 -22.5 q-25 -8.5 -77 -13.5 q0 34 -21 67 q28 -4 46.5 -4 q18.5 0 27.5 10.5 q9 10.5 9 46.5 l0 168 l-109 0 Z" /><glyph glyph-name="" unicode="&#x53f8;" d="M874 689 q-7 -20 -7 -195 l0 -529 q0 -57 -10.5 -81.5 q-10.5 -24.5 -44 -34 q-33.5 -9.5 -110.5 -9.5 q-2 42 -31 75 q43 -6 72.5 -6 q29.5 0 45 10 q15.5 10 15.5 46 l0 668 l-394 0 q-124 0 -261 -7 l0 64 q98 -7 357.5 -7 q259.5 0 367.5 6 ZM727 446 q-89 8 -315 8 q-226 0 -327 -6 l0 60 q92 -8 322.5 -8 q230.5 0 319.5 8 l0 -62 ZM232 73 l0 -82 l-68 0 q6 48 6 93 l0 208 q0 38 -5 54 q119 -2 241.5 -2 q122.5 0 232.5 2 q-3 -5 -3 -54 l0 -183 q0 -69 6 -104 l-67 0 l0 68 l-343 0 ZM575 120 l0 176 l-343 0 l0 -176 l343 0 Z" /><glyph glyph-name="" unicode="&#x56db;" d="M186 -26 l0 -104 l-74 0 q10 91 10 187 l0 484 q0 102 -7 145 q34 -9 385.5 -9 q351.5 0 383.5 9 q-6 -33 -6 -145 l0 -480 q0 -101 8 -183 l-72 0 l0 96 l-628 0 ZM814 30 l0 595 l-178 0 l0 -352 q0 -34 6.5 -48 q6.5 -14 28 -19.5 q21.5 -5.5 64.5 -5.5 q43 0 66 11 q-13 -35 -9 -62 q-31 -4 -81.5 -4 q-50.5 0 -80.5 5.5 q-30 5.5 -41 22 q-11 16.5 -11 52.5 l0 400 l-149 0 q6 -221 -31 -322 q-37 -101 -139 -180 q-26 27 -59 49 q108 62 142 143.5 q34 81.5 30 309.5 l-186 0 l0 -595 l628 0 Z" /><glyph glyph-name="" unicode="&#x6240;" d="M207 474 l104 0 q104 0 129 4 l-2 -199 q0 -53 2 -109 q-47 3 -129 3 l-108 0 q-5 -110 -21.5 -175 q-16.5 -65 -65.5 -130 q-36 31 -73 32 q73 69 88 164.5 q15 95.5 15 388.5 q0 138 -8 206 q179 -7 302 67 q19 -38 33 -57 q14 -19 14 -25 q0 -6 -7.5 -6 q-7.5 0 -15 2.5 q-7.5 2.5 -17.5 2.5 q-25 0 -112.5 -16 q-87.5 -16 -127.5 -17 l0 -136 ZM207 224 l170 0 l0 200 l-170 0 l0 -200 ZM576 406 l192 0 q117 0 185 6 l0 -66 q-45 6 -153 6 l0 -336 q0 -107 6 -171 l-75 0 q6 85 6 171 l0 336 l-161 0 q-1 -134 -11 -212.5 q-10 -78.5 -39.5 -141.5 q-29.5 -63 -90.5 -133 q-33 34 -74 45 q73 62 105.5 117 q32.5 55 42 130.5 q9.5 75.5 9.5 255 q0 179.5 -10 247.5 q37 -2 72 -2 q150 0 293 51 q18 -33 45 -57 q11 -10 11 -18 q0 -8 -14 -8 q-4 0 -15 2 q-11 2 -39 2 q-28 0 -103.5 -10 q-75.5 -10 -181.5 -17 l0 -197 Z" /><glyph glyph-name="" unicode="&#x901a;" d="M281 577 l-48 -41 q-68 87 -158 145 l40 42 q91 -63 166 -146 ZM602 556 l124 92 l-136 0 q-198 0 -249 -6 l0 59 q56 -8 255.5 -8 q199.5 0 254.5 8 l0 -56 q-38 -3 -88.5 -37 q-50.5 -34 -108.5 -80 q11 -6 33 -20 l-18 -22 q168 1 212 9 q-8 -35 -8 -115 l0 -314 q0 -27 -9 -42 q-9 -15 -38.5 -25.5 q-29.5 -10.5 -92.5 -20.5 q-4 33 -35 69 q32 -3 58.5 -3 q26.5 0 42 7.5 q15.5 7.5 15.5 38.5 l0 68 l-180 0 q0 -98 6 -146 l-68 0 q6 48 6 146 l-169 0 l0 -161 l-64 0 q8 60 8 111 l0 272 q0 85 -7 115 q70 -9 262 -9 q-54 36 -159 82 l34 41 q72 -29 119 -53 ZM409 339 l169 0 l0 102 l-169 0 l0 -102 ZM634 339 l180 0 l0 102 l-180 0 l0 -102 ZM578 296 l-169 0 l0 -95 l169 0 l0 95 ZM814 296 l-180 0 l0 -95 l180 0 l0 95 ZM184 13 l0 373 q-108 0 -138 -4 l0 59 q48 -7 102.5 -7 q54.5 0 103.5 7 q-8 -34 -8 -119 l0 -314 q51 -9 75 -22 q64 -34 136 -49 q72 -15 185 -15 q113 0 338 27 q-28 -27 -26 -79 q-192 -8 -299 -8 q-107 0 -184 14.5 q-77 14.5 -177 63.5 q-44 22 -69.5 22 q-25.5 0 -52.5 -22 q-27 -22 -65 -70 q-25 32 -48 52 q91 83 127 91 Z" /><glyph glyph-name="" unicode="&#x571f;" d="M470 403 q-213 0 -321 -11 l0 74 q108 -11 321 -11 l0 145 q0 109 -7 144 q43 -6 71.5 -6 q28.5 0 28.5 -9 q0 -9 -14.5 -20 q-14.5 -11 -14.5 -35 l0 -219 q206 1 311 11 l0 -74 q-106 10 -311 11 l0 -411 q262 1 412 12 l0 -77 q-172 13 -446.5 13 q-274.5 0 -447.5 -13 l0 77 q175 -12 418 -12 l0 411 Z" /><glyph glyph-name="" unicode="&#x5fae;" d="M216 759 q40 -24 59 -30.5 q19 -6.5 19 -14 q0 -7.5 -15 -12.5 q-23 -5 -65 -67 q-64 -95 -133 -167 q-12 30 -51 44 q71 55 122.5 127 q51.5 72 63.5 120 ZM617 398 l0 -59 q-55 8 -169 8 q-114 0 -184 -8 l0 59 q70 -8 183 -8 q113 0 166 8 l-13 1 q92 148 111 350 q42 -17 72 -19 q14 -1 14 -8 q0 -7 -14 -17.5 q-14 -10.5 -27.5 -57.5 q-13.5 -47 -24.5 -85 l112 0 q84 0 111 6 l0 -58 q-22 6 -68 6 q-6 -306 -72 -440 q55 -102 162 -162 q-32 -15 -49 -52 q-87 74 -142 163 q-63 -91 -187 -175 q-15 27 -57 46 q145 72 212 189 q-57 113 -79 283 l46 9 q16 -123 63 -238 q46 98 49 377 l-116 0 q-24 -78 -51 -135 q-20 14 -48 17 ZM484 515 l78 0 q1 34 1 85.5 q0 51.5 -3 79.5 q25 -6 38 -6 l19 2 q7 0 7 -6 q0 -6 -4.5 -15.5 q-4.5 -9.5 -8 -71.5 q-3.5 -62 -2.5 -120 q-34 8 -157 8 q-123 0 -156 -8 l0 9 q-3 -5 -13 -9 q-16 -7 -65 -81 l0 -538 l-65 1 q8 70 8 156 l0 296 q-32 -45 -69 -92 q-25 34 -62 42 q57 38 124 132.5 q67 94.5 70 146.5 q33 -27 60 -35 q10 -3 13 -9 q2 52 2 108 q0 56 -2 89 q13 -3 28 -3 q15 0 22 1 l11 1 q4 0 4 -4 q0 -4 -3 -10 q-12 -18 -10 -149 l84 0 q0 189 -3 232 q19 -5 37 -5 l29 2 q8 0 8 -5 q0 -5 -7 -12 q-13 -13 -13 -212 ZM662 128 q-3 -26 15 -60 q-88 -55 -159 -119 q-15 31 -38 48 q32 22 32 90 l0 136 l-126 0 q0 -94 -6 -140.5 q-6 -46.5 -25.5 -84.5 q-19.5 -38 -66.5 -92 q-25 30 -56 36 q52 40 72 71 q20 31 26 94.5 q6 63.5 6 100.5 q0 37 -6 66 q73 -5 128.5 -5 q55.5 0 107.5 5 l0 -226 q55 38 96 80 Z" /><glyph glyph-name="" unicode="&#x5582;" d="M413 336 q7 36 7 114 l0 149 q0 61 -6 93 q67 -8 231.5 -8 q164.5 0 231.5 8 q-7 -33 -7 -93 l0 -137 q0 -76 7 -126 q-60 6 -227 6 q-167 0 -237 -6 ZM480 530 l138 0 l0 108 l-138 0 l0 -108 ZM674 530 l138 0 l0 108 l-138 0 l0 -108 ZM618 486 l-138 0 l0 -99 l138 0 l0 99 ZM812 486 l-138 0 l0 -99 l138 0 l0 99 ZM143 159 l0 -109 l-67 0 q8 58 8 137 l0 394 q0 61 -4 96 q61 -5 126.5 -5 q65.5 0 129.5 5 q-9 -40 -9 -96 l0 -375 q0 -66 8 -136 l-66 0 l0 89 l-126 0 ZM269 211 l0 413 l-126 0 l0 -413 l126 0 ZM598 230 l-84 0 l0 -289 q86 53 130 91 q2 -33 21 -57 l-129 -82 q-37 -24 -65 -51 q-18 32 -45 55 q15 9 22 26.5 q7 17.5 7 70.5 l0 234 q-48 0 -90 -6 l0 60 q101 -9 293 -9 q192 0 300 9 l0 -60 q-86 8 -309 8 q41 -79 81 -133 q62 49 98 122 q24 -34 43.5 -43.5 q19.5 -9.5 19.5 -16.5 q0 -7 -19.5 -11.5 q-19.5 -4.5 -40 -21.5 q-20.5 -17 -68.5 -68 q57 -61 205 -125 q-33 -23 -46 -64 q-133 79 -202 158 q-69 79 -122 203 Z" /><glyph glyph-name="" unicode="&#x6e29;" d="M319 606 l-45 -46 q-67 67 -157 132 l36 46 q96 -65 166 -132 ZM847 321 q-49 5 -233.5 5 q-184.5 0 -230.5 -5 q7 26 7 79 l0 204 q0 52 -7 82 q41 -8 225.5 -8 q184.5 0 238.5 8 q-7 -30 -7 -82 l0 -204 q0 -53 7 -79 ZM779 521 l0 107 l-328 0 l0 -107 l328 0 ZM779 375 l0 98 l-328 0 l0 -98 l328 0 ZM283 383 l-42 -53 q-91 83 -178 125 l33 53 q113 -66 187 -125 ZM894 -60 q40 0 73 2 l0 -61 q-19 5 -353.5 5 q-334.5 0 -371.5 -5 l0 61 q53 -3 101 -3 l0 224 q0 30 -2 77 q80 -3 276.5 -3 q196.5 0 279.5 3 q-3 -36 -3 -77 l0 -223 ZM732 187 l0 -248 l103 0 l0 248 l-103 0 ZM516 -61 l0 248 l-112 0 l0 -248 l112 0 ZM571 187 l0 -248 l105 0 l0 248 l-105 0 ZM284 191 q-88 -157 -159 -337 q-22 28 -71 36 q112 147 169 342 q22 -33 61 -41 Z" /><glyph glyph-name="" unicode="&#x7a9d;" d="M471 650 q-31 43 -71 79 l50 38 q53 -64 80 -117 q270 0 375 10 l0 -149 l-58 0 l-1 92 l-685 0 l0 -102 l-61 0 l0 159 q83 -10 371 -10 ZM246 455 q-58 -24 -108 -42 q-6 30 -36 54 q172 32 280 127 q17 -25 31 -39 q14 -14 14 -18.5 q0 -4.5 -5.5 -5 q-5.5 -0.5 -11.5 -0.5 q-15 0 -67 -27.5 q-52 -27.5 -89 -44.5 q103 -5 256 -5 q153 0 251 6 q-3 -38 -3 -103.5 q0 -65.5 3 -90.5 q-53 2 -236 2 q-1 -28 -5 -66 q209 0 350 8 q-4 -33 -4 -83 l0 -177 q0 -31 -11.5 -48.5 q-11.5 -17.5 -43 -28.5 q-31.5 -11 -94.5 -20 q-6 39 -35 68 q57 -2 82.5 3.5 q25.5 5.5 33.5 19.5 q8 14 8 43 l0 167 l-294 0 q-6 -30 -16 -52 q93 -34 227 -102 l-39 -56 q-88 63 -209 119 q-45 -68 -195 -137 q-15 36 -54 53 q195 51 228 174 l-255 0 l0 -307 l-68 0 q7 45 7 97 l0 183 q0 46 -6 83 q120 -7 333 -7 q5 25 3 66 q-174 0 -223 -3 q6 34 6 90 q0 56 -5 100 ZM700 313 l0 95 l-394 0 l0 -95 l394 0 ZM891 470 l-32 -51 q-115 70 -274 119 l28 50 q147 -51 278 -118 Z" /><glyph glyph-name="" unicode="&#x5c4b;" d="M863 480 q-45 7 -210 7 l-433 0 q-1 -183 -7.5 -280 q-6.5 -97 -26.5 -173 q-20 -76 -64 -173 q-31 23 -72 26 q62 76 85.5 208.5 q23.5 132.5 23.5 340.5 q0 112 -8 258 q34 -9 354.5 -9 q320.5 0 357.5 9 q-6 -48 -6 -104.5 q0 -56.5 6 -109.5 ZM795 533 l0 106 l-575 0 l0 -106 l575 0 ZM486 374 q-140 0 -222 -8 l0 57 q104 -8 320 -8 q216 0 318 8 l0 -57 q-111 8 -347 8 q-68 -69 -133 -131 l315 7 q-33 30 -73 60 l46 35 q96 -85 169 -158 l-46 -36 q-35 39 -51 55 l-170 -4 l0 -103 q176 0 264 11 l0 -67 q-91 11 -264 11 l0 -114 q199 0 332 13 l0 -69 q-139 13 -354.5 13 q-215.5 0 -354.5 -13 l0 69 q133 -12 315 -13 l0 114 q-177 -2 -260 -11 l0 67 q100 -11 260 -11 l0 101 q-142 -5 -207 -19 q-6 33 -24 64 q37 8 75 40 q38 32 92 89 Z" /><glyph glyph-name="" unicode="&#x7269;" d="M139 500 q-12 -63 -42 -143 q-30 16 -66 17 q34 49 61.5 147 q27.5 98 23.5 152 q32 -15 61 -18 q15 -3 15 -13 q0 -10 -7 -14.5 q-7 -4.5 -16 -25 q-9 -20.5 -18 -54.5 l89 0 l0 66 q0 113 -11 150 q49 -12 86 -12 q11 0 11 -5 q0 -5 -9 -16.5 q-9 -11.5 -14 -38 q-5 -26.5 -5 -57.5 l0 -87 q66 0 110 9 l0 -66 q-44 9 -110 9 l0 -206 q39 19 99 52 q-2 -9 -2 -17 q0 -22 18 -41 q-51 -22 -115 -51 l0 -146 q0 -159 9 -243 l-78 0 q11 106 11 243 l0 120 q-87 -39 -154 -74 q-9 36 -31 71 q116 29 185 59 l0 233 l-101 0 ZM667 565 q-36 -148 -81 -241 q-45 -93 -136 -190 q-25 38 -60 40 q175 121 220 391 l-70 0 q-45 -85 -98 -158 q-22 25 -60 34 q123 116 170 313 q36 -22 67 -29 q12 -3 12 -9.5 q0 -6.5 -16.5 -14.5 q-16.5 -8 -26.5 -32 l-24 -54 l201 0 q130 0 175 8 q-8 -37 -10 -93 q-9 -206 -19.5 -348.5 q-10.5 -142.5 -28 -203 q-17.5 -60.5 -58.5 -80 q-41 -19.5 -143 -21.5 q1 25 -6.5 41 q-7.5 16 -26.5 36 q54 -10 93 -10 q39 0 61 24.5 q22 24.5 33 86.5 q11 62 21 224.5 q10 162.5 11 285.5 l-68 0 q-31 -281 -84.5 -392.5 q-53.5 -111.5 -212.5 -247.5 q-19 36 -68 45 q159 97 222.5 222.5 q63.5 125.5 88.5 372.5 l-78 0 Z" /><glyph glyph-name="" unicode="&#x8bef;" d="M309 591 l-50 -45 q-51 72 -157 152 l43 45 q77 -65 164 -152 ZM860 454 q-97 3 -258 3 q-161 0 -213 -4 q6 49 6 119 q0 70 -6 119 q62 -5 229 -5 q167 0 242 5 q-3 -60 -3 -125 q0 -65 3 -112 ZM796 507 l0 130 l-342 0 l0 -130 l342 0 ZM237 351 l0 -332 q64 51 105 101 q11 -39 29 -54 l-104 -93 q-53 -48 -77 -77 q-18 31 -56 58 q42 45 42 110 l0 353 q-53 0 -77 -3 q-24 -3 -54 -15 l0 72 q37 -5 101.5 -5 q64.5 0 107.5 5 q-17 -42 -17 -120 ZM639 184 q192 0 282 7 l0 -62 q-102 7 -208 7 l-49 0 q40 -68 121.5 -127 q81.5 -59 183.5 -92 q-40 -22 -56 -60 q-204 105 -291 264 q-29 -88 -92 -149 q-63 -61 -192 -132 q-10 24 -58 48 q126 57 194 115 q68 58 92 133 l-36 0 q-121 0 -199 -7 l0 62 q93 -6 247 -7 q12 64 11 132 l-42 0 q-96 0 -181 -7 l0 62 q87 -7 272.5 -7 q185.5 0 257.5 7 l0 -62 q-87 7 -190 7 l-59 0 q-2 -87 -8 -132 Z" /><glyph glyph-name="" unicode="&#x5438;" d="M495 634 q-23 1 -50 1 q-27 0 -56 -5 l0 59 q71 -6 217.5 -6 q146.5 0 248.5 15 l-110 -303 l88 0 q27 0 65 6 q-31 -147 -58.5 -220 q-27.5 -73 -69.5 -127 q45 -50 86 -79.5 q41 -29.5 115 -61.5 q-32 -21 -50 -59 q-101 59 -186 157 q-109 -112 -259 -164 q-15 40 -50 60 q97 26 155.5 57.5 q58.5 31.5 114.5 90.5 q-81 97 -145 220 l54 24 q50 -109 128 -203 q66 91 88 254 l-92 0 q-40 0 -62 -6 l104 290 l-218 0 q0 -318 -50 -467.5 q-50 -149.5 -209 -274.5 q-22 30 -65 44 q154 86 212.5 230 q58.5 144 53.5 468 ZM142 169 l0 -99 l-65 0 q8 90 8 176 l0 281 q0 103 -7 158 q30 -6 136 -6 q106 0 141 6 q-7 -68 -7 -159 l0 -257 q0 -107 6 -179 l-67 0 l0 79 l-145 0 ZM287 218 l0 413 l-145 0 l0 -413 l145 0 Z" /><glyph glyph-name="" unicode="&#x7cfb;" d="M449 619 q-68 -9 -300 -19 q-8 37 -41 66 q60 -4 153 -4 q93 0 283 17 q190 17 293 53 q16 -34 38 -53 q9 -9 9 -16 q0 -11 -17 -9 q-17 2 -39 2 q-86 0 -319 -30 q13 -7 27 -11.5 q14 -4.5 14 -10.5 q0 -6 -22 -11.5 q-22 -5.5 -78.5 -49.5 q-56.5 -44 -142.5 -96 l310 10 q89 50 102 75 q31 -29 52 -41.5 q21 -12.5 21 -19.5 q0 -7 -29.5 -8.5 q-29.5 -1.5 -136.5 -62.5 q-154 -90 -326 -156 l428 24 q-36 36 -60 57 l47 32 q87 -76 176 -184 l-56 -40 q-19 39 -62 87 l-229 -12 l0 -286 q0 -31 -13 -46 q-13 -15 -53 -21 q-40 -6 -126 -7 q-1 48 -30 75 q66 -10 98 -10 q32 0 46 8 q14 8 14 31 l0 253 q-263 -12 -308 -28 q0 38 -18 75 q27 -4 140 40.5 q113 44.5 243 117.5 l-203 -10 q-88 -3 -121 -15 q2 40 -17 64 q104 28 253 170 ZM306 143 q16 -19 41.5 -35.5 q25.5 -16.5 25.5 -23 q0 -6.5 -14.5 -10.5 q-14.5 -4 -31 -16.5 q-16.5 -12.5 -72.5 -64.5 l-123 -115 q-14 42 -59 52 q160 92 233 213 ZM923 -59 l-51 -45 q-105 113 -228 193 l38 44 q118 -82 241 -192 Z" /><glyph glyph-name="" unicode="&#x590f;" d="M342 177 l201 0 q152 0 238 9 q-99 -135 -218 -202 q176 -71 374 -67 q-26 -33 -34 -68 q-259 32 -396 104 q-163 -85 -409 -113 q0 39 -40 67 q211 -2 394 77 q-65 41 -124 90 l35 33 q58 -54 143 -97 q111 59 155 125 l-354 0 q-66 -77 -149 -144 q-24 30 -65 44 q146 73 230 205 q-66 0 -124 -4 q8 55 8 121 l0 116 q0 61 -8 112 q71 -8 204 -8 q17 32 30 70 q-228 -1 -342 -10 l0 65 q142 -10 411 -10 q269 0 409 10 l0 -65 q-135 10 -415 10 q-11 -24 -35 -70 l157 0 q122 0 187 8 q-7 -54 -7 -112 l0 -117 q0 -74 7 -121 q-99 6 -213 6 l-205 0 q-20 -32 -45 -64 ZM736 536 l-471 0 l0 -58 l471 0 l0 58 ZM736 439 l-471 0 l0 -61 l471 0 l0 61 ZM736 340 l-471 0 l0 -58 l471 0 l0 58 Z" /><glyph glyph-name="" unicode="&#x8c61;" d="M208 515 q-40 -33 -75 -59 q-19 28 -71 42 q129 60 216.5 147 q87.5 87 107.5 140 q36 -27 60 -33 q8 -2 8 -9.5 q0 -7.5 -12.5 -11 q-12.5 -3.5 -27.5 -18 q-15 -14.5 -40 -43.5 l179 0 q117 0 185 6 l-89 -128 q157 0 216 4 q-3 -44 -3 -102 q0 -58 3 -98 q-46 3 -81 3 l-279 0 q-17 -21 -46 -44 q63 -57 99 -119 q166 70 226 145 q40 -38 58 -53 q8 -6 8 -15 q0 -9 -14 -10 q-32 -2 -89 -29 l-67 -32 q36 -72 117 -142 q81 -70 169 -102 q-32 -17 -55 -55 q-86 50 -159.5 127 q-73.5 77 -112.5 153 q-21 -9 -58 -26 q38 -68 38 -129 q0 -65 -14 -98.5 q-14 -33.5 -54.5 -51.5 q-40.5 -18 -126.5 -27 q-4 36 -34 64 q91 -3 130.5 14.5 q39.5 17.5 39.5 103.5 q0 44 -17 85 q-96 -131 -407 -234 q-17 33 -47 59 q116 16 241.5 76.5 q125.5 60.5 194.5 136.5 q-14 26 -37 53 q-64 -58 -137.5 -99.5 q-73.5 -41.5 -207.5 -86.5 q-14 34 -44 59 q86 5 194.5 54.5 q108.5 49.5 165.5 104.5 q-22 23 -43 42 q-91 -67 -252 -113 q-11 32 -45 57 q200 27 316 132 q-155 0 -232 -2 q6 39 6 87.5 q0 48.5 -1 74.5 ZM335 627 q-38 -37 -84 -78 q47 -1 223 -1 l114 0 l54 79 l-307 0 ZM474 399 q28 44 30 106 l-237 0 l0 -106 l207 0 ZM561 505 q-10 -66 -28 -106 l269 0 l0 106 l-241 0 Z" /><glyph glyph-name="" unicode="&#x5c0f;" d="M467 754 q36 -5 60 -5 l31 1 q15 0 15 -10 q0 -8 -11 -15 q-11 -7 -16 -21.5 q-5 -14.5 -5 -45.5 l0 -728 q0 -32 -13 -48.5 q-13 -16.5 -51 -25 q-38 -8.5 -117 -13.5 q-1 54 -32 88 q60 -11 89.5 -11 q29.5 0 43.5 7.5 q14 7.5 14 32.5 l0 633 q0 114 -8 161 ZM968 81 l-65 -38 q-136 287 -241 432 l51 33 q126 -183 255 -427 ZM246 504 q47 -23 68 -25 q21 -2 21 -11 q0 -9 -20 -18 q-12 -5 -35 -73.5 q-23 -68.5 -73 -170 q-50 -101.5 -101 -177.5 q-31 35 -73 40 q74 66 131.5 183.5 q57.5 117.5 81.5 251.5 Z" /><glyph glyph-name="" unicode="&#x578b;" d="M816 740 q23 -6 39.5 -6.5 q16.5 -0.5 31.5 -0.5 q15 0 15 -8.5 q0 -8.5 -11 -14.5 q-11 -6 -11 -26 l0 -382 q0 -41 -9.5 -62 q-9.5 -21 -40.5 -32 q-31 -11 -95 -12 q5 38 -23 69 q42 -8 66 -8 q24 0 35 10 q11 10 11 41 l0 268 q0 102 -8 164 ZM249 640 q-78 -3 -115 -7 l0 57 q86 -8 227 -8 q141 0 227 8 l0 -57 q-44 5 -104 6 l0 -159 q73 1 134 7 l0 -60 q-46 6 -134 7 q0 -123 9 -193 l-73 0 q9 70 9 193 l-132 0 q-9 -78 -38 -134.5 q-29 -56.5 -93 -115.5 q-26 27 -64 42 q67 41 98 88.5 q31 47.5 41 118.5 q-84 0 -143 -6 l0 60 q65 -6 149 -7 q4 41 4 82 q0 41 -2 78 ZM429 640 l-126 1 q2 -39 2 -79 q0 -40 -3 -82 l127 0 l0 160 ZM651 674 q23 -8 70 -8 q11 0 11 -6.5 q0 -6.5 -10.5 -13 q-10.5 -6.5 -10.5 -26.5 l0 -160 q0 -59 7 -143 l-66 0 q7 63 7 143 l0 103 q0 70 -8 111 ZM473 73 q-191 -1 -299 -11 l0 67 q108 -10 299 -11 q-1 76 -7 109 q44 -6 68.5 -6 q24.5 0 24.5 -7 q0 -7 -13 -17 q-13 -10 -13 -35 l0 -44 q203 0 309 11 l0 -67 q-110 11 -309 11 l0 -132 q258 1 403 13 l0 -73 q-158 12 -435 12 q-277 0 -435 -12 l0 73 q165 -13 407 -13 l0 132 Z" /><glyph glyph-name="" unicode="&#x96ea;" d="M467 657 q-245 0 -344 -6 l0 56 q110 -6 372 -6 q262 0 372 6 l0 -56 q-104 6 -340 6 l0 -83 q293 0 393 5 l0 -178 l-60 0 l0 128 l-333 0 l0 -173 q0 -55 3 -109 l-67 0 q4 17 4 108 l0 174 l-322 0 l0 -124 l-60 0 l0 174 q92 -5 382 -5 l0 83 ZM810 420 q-47 2 -116 2 q-69 0 -116 -2 l0 44 q47 -2 116 -2 q69 0 116 2 l0 -44 ZM413 416 q-46 2 -111 2 q-65 0 -111 -2 l0 44 q46 -2 111 -2 q65 0 111 2 l0 -44 ZM823 309 q-48 2 -121 2 q-73 0 -121 -2 l0 46 q48 -2 121 -2 q73 0 121 2 l0 -46 ZM418 308 q-48 2 -123 2 q-75 0 -123 -2 l0 45 q48 -2 123 -2 q75 0 123 2 l0 -45 ZM746 73 l0 93 q-501 0 -581 -8 l0 62 q67 -8 285 -8 q218 0 275 1.5 q57 1.5 95 8.5 q-6 -23 -6 -59 l0 -253 q0 -31 6 -66 l-74 0 l0 38 q-429 0 -583 -7 l0 60 q109 -7 583 -7 l0 100 q-405 0 -552 -7 l0 59 q150 -7 552 -7 Z" /><glyph glyph-name="" unicode="&#x96c5;" d="M512 477 q-28 -43 -49 -61 q-20 25 -66 29 q60 43 108 128.5 q48 85.5 71 178.5 q30 -26 63 -33 q17 -4 17 -13 q0 -9 -15 -17.5 q-15 -8.5 -27 -25.5 q-12 -17 -29 -53.5 q-17 -36.5 -29 -57.5 l225 -1 q101 0 160 7 l0 -60 q-58 7 -186 7 l0 -145 q97 0 156 7 l0 -60 q-58 7 -156 7 l0 -136 q96 0 156 7 l0 -61 q-59 7 -156 7 l0 -142 l38 0 q98 0 160 7 l0 -60 q-59 7 -160 7 l-223 0 l0 -96 l-69 0 q11 107 11 208 l0 422 ZM696 505 l-126 0 l0 -145 l126 0 l0 145 ZM696 314 l-126 0 l0 -136 l126 0 l0 136 ZM696 -11 l0 142 l-126 0 l0 -142 l126 0 ZM852 612 l-47 -39 q-53 73 -124 120 l37 43 q74 -61 134 -124 ZM296 621 q-175 0 -236 -8 l0 63 q74 -9 212 -9 q138 0 212 9 l0 -63 q-45 5 -134 7 l0 -242 q66 4 107 16 l0 -75 q-55 8 -107 9 l0 -332 q0 -51 -11 -74 q-11 -23 -44 -32 q-33 -9 -107 -12 q-1 40 -34 77 q58 -13 86.5 -13 q28.5 0 42 12.5 q13.5 12.5 13.5 63.5 l0 311 l-16 0 q-45 -214 -166 -332 q-20 25 -79 31 q68 41 125.5 123 q57.5 82 82.5 178 q-86 0 -160 -7 q37 131 50 251 q44 -12 64 -14.5 q20 -2.5 20 -13.5 q0 -7 -13.5 -23.5 q-13.5 -16.5 -24 -51 q-10.5 -34.5 -21.5 -94.5 l138 0 l0 245 Z" /><glyph glyph-name="" unicode="&#x989c;" d="M359 686 l-37 -42 q-44 43 -110 81 l32 41 q65 -32 115 -80 ZM692 637 q-125 0 -173 -8 l0 59 q36 -8 214 -8 q178 0 220 8 l0 -59 q-47 8 -201 8 q-13 -57 -36 -132 q137 0 183 4 q-2 -39 -2 -121 l0 -181 q0 -51 2 -130 l-62 0 l0 382 l-229 0 l0 -384 l-60 0 q3 62 3 131 l0 182 q0 89 -4 121 q38 -2 112 -4 q24 64 33 132 ZM488 593 q-64 10 -194.5 10 q-130.5 0 -195.5 -10 l0 60 q65 -10 195.5 -10 q130.5 0 194.5 10 l0 -60 ZM320 458 q40 56 58 131 q26 -19 57 -24 q14 -2 14 -14 q0 -12 -18 -18 q-19 -5 -56 -74 q80 0 136 10 l0 -59 q-23 6 -261 6 l-85 0 q3 -78 3 -141 q0 -153 -18 -246 q-18 -93 -61 -164 q-27 19 -69 16 q92 98 92 350 q0 101 -14 238 q62 -9 120 -11 q-20 61 -63 101 l41 26 q48 -48 80 -96 l-47 -31 l91 0 ZM397 406 q23 -32 43 -43 q7 -4 7 -13 q0 -9 -15 -13 q-49 -13 -200 -123 q-10 25 -53 38 q72 30 136 75.5 q64 45.5 82 78.5 ZM683 386 q30 -4 74 -4 q7 0 7 -8.5 q0 -8.5 -5 -12.5 q-13 -10 -13 -36 q-4 -133 -10.5 -191.5 q-6.5 -58.5 -29 -106 q-22.5 -47.5 -69.5 -92 q-47 -44.5 -141 -103.5 q-19 43 -75 50 q103 36 165 96.5 q62 60.5 82.5 120 q20.5 59.5 20.5 191.5 q0 47 -6 96 ZM440 286 q30 -33 42.5 -40 q12.5 -7 12.5 -14 q0 -11 -15 -12 q-15 -1 -31 -10 q-16 -9 -73 -55 l-126 -105 q-8 29 -64 37 q168 88 254 199 ZM464 139 q33 -36 47 -43.5 q14 -7.5 14 -14 q0 -6.5 -4.5 -9 q-4.5 -2.5 -16.5 -2.5 q-12 0 -28.5 -9.5 q-16.5 -9.5 -55.5 -44.5 q-86 -77 -205 -152 q-10 30 -56 46 q104 46 166 92 q62 46 139 137 ZM966 -102 l-50 -47 q-72 83 -171 154 l39 47 q108 -75 182 -154 Z" /><glyph glyph-name="" unicode="&#x836f;" d="M363 640 l271 0 q0 60 -9 108 q45 -7 78 -7 q10 0 10 -5 q0 -5 -8.5 -10.5 q-8.5 -5.5 -8.5 -18.5 l0 -67 q141 0 251 9 l0 -69 q-110 9 -251 9 l0 -81 l-61 0 l0 81 l-272 0 l0 -87 l-62 0 l0 87 q-154 -2 -240 -9 l0 69 q90 -9 240 -9 q0 63 -10 110 q51 -6 70 -6 q19 0 19 -5 q0 -5 -8.5 -10 q-8.5 -5 -8.5 -20 l0 -69 ZM302 310 q58 76 79 119 q29 -23 63 -32 q13 -4 13 -13.5 q0 -9.5 -17 -14.5 q-7 -2 -22.5 -16.5 q-15.5 -14.5 -46.5 -46.5 l-167 -184 q86 4 205 17 q-7 -19 -7 -29.5 q0 -10.5 2 -20.5 l-163 -15 q-64 -5 -141 -25 q-2 33 -22 65 q45 8 101.5 59 q56.5 51 91.5 97 l-85 -6 q-47 -3 -88 -27 q-8 41 -26 66 q44 26 95.5 88 q51.5 62 76.5 122 q51 -31 60 -38 q9 -7 9 -14 q0 -7 -16.5 -12.5 q-16.5 -5.5 -43.5 -31 q-27 -25.5 -90 -108.5 l139 1 ZM582 380 l165 0 q73 0 134 8 q-8 -60 -10 -107 l-14 -321 q-3 -63 -51 -84.5 q-48 -21.5 -135 -25.5 q1 29 -5 44 q-6 15 -19 32 q48 -7 81.5 -7 q33.5 0 50.5 11 q17 11 18 44 l13 356 l-253 0 q-36 -67 -92 -145 q-23 19 -61 30 q113 115 158 283 q45 -16 62 -18.5 q17 -2.5 17 -11.5 q0 -9 -13.5 -15 q-13.5 -6 -45.5 -73 ZM717 66 l-53 -41 q-63 99 -134 165 l44 39 q73 -71 143 -163 ZM429 10 q-9 -16 -9 -30.5 q0 -14.5 3 -31.5 q-258 -62 -337 -90 q-3 29 -31 66 q146 10 374 86 Z" /><glyph glyph-name="" unicode="&#x9875;" d="M460 492 q316 0 362 7 q-3 -29 -3 -84 l0 -289 q0 -61 4 -100 l-70 0 l0 420 l-479 0 l0 -438 l-70 0 q5 40 5 100 l0 307 q0 55 -3 84 q62 -6 180 -7 q62 87 80 145 q-228 0 -365 -10 l0 67 q143 -10 406.5 -10 q263.5 0 406.5 10 l0 -67 q-137 10 -375 10 q-45 -75 -79 -145 ZM470 384 q20 -5 74 -5 q14 0 14 -6.5 q0 -6.5 -8 -15.5 q-8 -9 -12 -74 q-6 -92 -20.5 -146 q-14.5 -54 -36 -90.5 q-21.5 -36.5 -70 -79 q-48.5 -42.5 -117.5 -80 q-69 -37.5 -152 -63.5 q-14 46 -66 64 q121 20 227.5 82 q106.5 62 140 134 q33.5 72 33.5 175 q0 48 -7 105 ZM930 -119 l-47 -42 q-187 155 -340 211 l40 51 q176 -91 347 -220 Z" /><glyph glyph-name="" unicode="&#x7528;" d="M476 168 l-248 0 q0 -109 -22.5 -181.5 q-22.5 -72.5 -71.5 -157.5 q-30 27 -73 29 q60 63 80.5 138.5 q20.5 75.5 20.5 236.5 l0 309 q0 103 -8 149 q73 -7 352.5 -7 q279.5 0 361.5 7 q-9 -32 -9 -149 l0 -599 q0 -44 -10 -63.5 q-10 -19.5 -42 -27.5 q-32 -8 -106 -11 q3 13 3 23 q0 28 -28 51 q41 -6 66.5 -6 q25.5 0 38 9 q12.5 9 12.5 36 l0 214 l-252 0 l0 -92 q0 -114 6 -167 l-77 0 q6 54 6 167 l0 92 ZM476 444 l0 192 l-248 0 l0 -192 l248 0 ZM541 636 l0 -192 l252 0 l0 192 l-252 0 ZM541 216 l252 0 l0 178 l-252 0 l0 -178 ZM228 216 l248 0 l0 178 l-248 0 l0 -178 Z" /><glyph glyph-name="" unicode="&#x5728;" d="M360 568 q-174 -2 -261 -8 l0 68 q100 -7 280 -10 q25 69 37 149 q28 -17 42 -21.5 q14 -4.5 31.5 -4.5 q17.5 0 17.5 -9.5 q0 -9.5 -14 -17.5 q-20 -13 -53 -96 l306 0 q68 0 169 10 l0 -68 q-124 9 -169 9 l-325 0 q-51 -122 -120 -210 l0 -312 q0 -84 5 -193 l-72 0 q6 130 6 193 l0 242 q-54 -59 -150 -140 q-10 48 -61 60 q237 142 331 359 ZM651 299 q137 1 213 10 l0 -68 q-79 9 -213 9 l0 -274 q195 0 296 10 l0 -67 q-111 9 -310 9 q-199 0 -307 -9 l0 67 q93 -9 258 -10 l0 274 q-115 -1 -211 -12 l0 71 q79 -9 211 -10 q0 122 -9 188 q17 -5 32.5 -7 q15.5 -2 27.5 -2 l21 1 q15 0 15 -12 q0 -9 -12 -16 q-12 -7 -12 -54 l0 -98 Z" /><glyph glyph-name="" unicode="&#x667a;" d="M384 624 q-1 -65 -11 -131 q120 1 202 11 l0 -63 q-83 10 -209 11 q-1 -13 -10 -36 q96 -44 193 -108 l-44 -52 q-73 71 -170 119 q-72 -107 -216 -177 q-18 37 -56 62 q206 60 245 192 q-148 -1 -222 -11 l0 63 q88 -11 232 -11 q9 40 9 72.5 q0 32.5 -3 58.5 l-92 0 q-44 -73 -89 -117 q-20 27 -64 34 q57 34 100.5 101 q43.5 67 50.5 131 q34 -23 68 -23 q14 0 14 -9.5 q0 -9.5 -14 -16.5 q-22 -10 -43 -56 l92 0 q139 0 200 4 l0 -52 q-34 4 -163 4 ZM918 309 q-66 5 -157.5 5 q-91.5 0 -154.5 -5 q4 35 4 96 l0 160 q0 61 -4 96 q63 -5 154.5 -5 q91.5 0 157.5 5 q-9 -45 -9 -96 l0 -160 q0 -51 9 -96 ZM850 361 l0 248 l-182 0 l0 -248 l182 0 ZM305 -106 l0 -49 l-70 0 q7 54 7 100 l0 219 q0 43 -8 77 q85 -9 294.5 -9 q209.5 0 298.5 9 q-6 -23 -6 -77 l0 -207 q0 -48 7 -100 l-70 0 l0 37 l-453 0 ZM305 85 l453 0 l0 100 l-453 0 l0 -100 ZM758 40 l-453 0 l0 -102 l453 0 l0 102 Z" /><glyph glyph-name="" unicode="&#x88c5;" d="M325 538 l0 86 q0 96 -6 134 q26 -8 69 -8 q17 0 17 -12 q0 -8 -11 -15 q-11 -7 -11 -37 l0 -266 q0 -56 5 -99 l-67 0 q4 30 4 99 l0 62 q-131 -56 -215 -114 q-9 45 -36 75 q129 28 251 95 ZM633 563 q-123 -1 -214 -9 l0 62 q91 -8 214 -9 q0 121 -7 148 q39 -7 77 -7 q16 0 16 -12 q0 -8 -10 -12 q-15 -5 -15 -47 l0 -70 q132 1 225 9 l0 -62 q-93 8 -225 9 l0 -142 q111 2 173 8 l0 -60 q-72 8 -201 8 q-129 0 -201 -8 l0 60 q60 -6 168 -8 l0 142 ZM274 595 l-42 -41 q-40 53 -111 104 l36 40 q70 -51 117 -103 ZM492 251 q-24 40 -63 72 l46 36 q42 -38 74 -83 l-36 -25 q318 0 419 10 l0 -63 q-108 10 -227 10 l-232 0 q-46 -45 -96 -85 l0 -196 q69 39 131 87 q6 -30 27 -61 l-144 -80 q-31 -17 -63 -47 q-17 35 -45 53 q19 10 26 28.5 q7 18.5 7 58.5 l0 112 q-85 -57 -205 -114 q-14 43 -62 63 q208 47 354 181 q-230 0 -333 -10 l0 63 q101 -10 422 -10 ZM665 55 q79 70 112 128 q35 -31 52.5 -37.5 q17.5 -6.5 17.5 -13.5 q0 -10 -17 -10 q-24 0 -130 -95 q110 -85 248 -103 q-45 -25 -54 -73 q-269 111 -370 309 l43 25 q26 -65 98 -130 Z" /></font>
</defs>
</svg>
